<?xml version="1.0" encoding="UTF-8"?>
<svg id="Layer_1" data-name="Layer 1" xmlns="http://www.w3.org/2000/svg" viewBox="0 0 943.29 1000.25">
  <defs>
    <style>
      .cls-1 {
        opacity: .1;
      }

      .cls-2 {
        fill: #999595;
        stroke-width: 2.39px;
      }

      .cls-2, .cls-3 {
        stroke-linecap: round;
        stroke-linejoin: round;
      }

      .cls-2, .cls-3, .cls-4, .cls-5, .cls-6 {
        stroke: #000;
      }

      .cls-3 {
        fill: #3a3d40;
        stroke-width: 2.73px;
      }

      .cls-7, .cls-8, .cls-9 {
        stroke: #4d4d4d;
      }

      .cls-4 {
        fill: rgba(255, 95, 85, .96);
      }

      .cls-5, .cls-8, .cls-10, .cls-9, .cls-6 {
        fill: #1a1a1a;
      }

      .cls-10 {
        stroke: #1a1a1a;
      }

      .cls-9 {
        stroke-width: 1px;
      }

      .cls-6 {
        stroke-width: 1px;
      }

      .cls-11, .cls-12, .cls-13 {
        stroke-width: 0px;
      }

      .cls-14 {
        fill: #ff5f53;
        stroke: rgba(0, 0, 5, .96);
        stroke-width: 1px;
      }

      .cls-12 {
        fill: #ff5f55;
      }

      .cls-13 {
        fill: #fff;
      }
    </style>
  </defs>
  <g id="g315">
    <g id="g64" class="cls-1">
      <path id="path36" class="cls-12" d="m597.9,233.9v79.5h-4.2c-3.3,0-6-2.7-6-6v-67.6c0-3.3,2.7-6,6-6h4.2v.1Z"/>
      <path id="path38" class="cls-12" d="m597.9,636.6v79.5h-4.2c-3.3,0-6-2.7-6-6v-67.6c0-3.3,2.7-6,6-6h4.2v.1Z"/>
      <path id="path40" class="cls-12" d="m929,134.9l-3.4,3.4c-33.2-78-109.8-128.7-194.7-128.7h-54.2v-2.6c0-3.3,2.7-6,6-6h51.2c84.8,0,161.7,49.8,196.4,127.2,1,2.3.5,4.9-1.3,6.7h0Z"/>
      <path id="path42" class="cls-12" d="m679.5,94.5v-11.7c0-1.6-1.3-3-3-3h-11.7c-1.6,0-3,1.3-3,3h0v11.7c0,1.6-1.3,3-3,3h-11.7c-1.6,0-3,1.3-3,3h0v11.7c0,1.6,1.3,3,3,3h11.7c1.6,0,3,1.3,3,3h0v11.7c0,1.6,1.3,3,3,3h11.7c1.6,0,3-1.3,3-3h0v-11.7c0-1.6,1.3-3,3-3h11.7c1.6,0,3-1.3,3-3h0v-11.7c0-1.6-1.3-3-3-3h-11.7c-1.7,0-3-1.4-3-3h0Z"/>
      <circle id="circle44" class="cls-12" cx="768.9" cy="333.9" r="37.5"/>
      <circle id="circle46" class="cls-12" cx="768.9" cy="187.1" r="37.5"/>
      <circle id="circle48" class="cls-12" cx="842.3" cy="260.5" r="37.5"/>
      <circle id="circle50" class="cls-12" cx="695.5" cy="260.5" r="37.5"/>
      <circle id="circle52" class="cls-12" cx="715" cy="721.3" r="27.9"/>
      <path id="path54" class="cls-12" d="m765.6,460.3v12.3c0,3-2.2,5.5-5.2,5.9-25.2,3.7-45,23.5-48.7,48.7-.4,2.9-2.9,5.1-5.9,5.2h-12.3c1.7-39.1,33-70.4,72.1-72.1h0Z"/>
      <path id="path56" class="cls-12" d="m765.6,598.8v12.3c-39.1-1.7-70.3-33-72.1-72h12.3c3,0,5.5,2.2,5.9,5.2,3.7,25.2,23.5,45,48.7,48.7,3,.3,5.2,2.8,5.2,5.8h0Z"/>
      <path id="path58" class="cls-12" d="m844.3,539c-1.7,39.1-33,70.3-72.1,72v-12.3c0-3,2.2-5.5,5.2-5.9,25.2-3.7,45-23.5,48.7-48.7.4-2.9,2.9-5.1,5.9-5.2l12.3.1Z"/>
      <path id="path60" class="cls-12" d="m844.3,532.4h-12.3c-3,0-5.5-2.2-5.9-5.2-3.7-25.2-23.5-45-48.7-48.7-2.9-.4-5.1-2.9-5.2-5.9v-12.3c39.1,1.7,70.4,33,72.1,72.1h0Z"/>
      <path id="path62" class="cls-12" d="m844.4,535.7c0,1.1,0,2.2-.1,3.3h-12.3c-3,0-5.5,2.2-5.9,5.2-3.7,25.2-23.5,45-48.7,48.7-2.9.4-5.1,2.9-5.2,5.9v12.3c-1.1.1-2.2.1-3.3.1s-2.2,0-3.3-.1v-12.3c0-3-2.2-5.5-5.2-5.9-25.2-3.7-45-23.5-48.7-48.7-.4-2.9-2.9-5.1-5.9-5.2h-12.3c-.1-1.1-.1-2.2-.1-3.3s0-2.2.1-3.3h12.3c3,0,5.5-2.2,5.9-5.2,3.7-25.2,23.5-45,48.7-48.7,2.9-.4,5.1-2.9,5.2-5.9v-12.3c1.1-.1,2.2-.1,3.3-.1s2.2,0,3.3.1v12.3c0,3,2.2,5.5,5.2,5.9,25.2,3.7,45,23.5,48.7,48.7.4,2.9,2.9,5.1,5.9,5.2h12.3c0,1.1.1,2.2.1,3.3h0Z"/>
    </g>
    <path id="path72" class="cls-11" d="m601.6,906.6h-7.9c-3.6,0-6.4-2.9-6.5-6.5v-157.2c0-4.9,1.2-9.6,3.4-13.9l6.7-13v-79.2l-6.7-13c-2.2-4.3-3.4-9.1-3.4-14v-269.7c0-4.9,1.2-9.6,3.4-13.9l6.7-13v-79.2l-6.7-13c-2.2-4.3-3.4-9.1-3.4-14V71.2c0-3.6,2.9-6.4,6.5-6.5h7.9c3.6,0,6.4,2.9,6.5,6.5,1.06,276.3,1.22,552.6,0,828.9-.1,3.6-3,6.5-6.5,6.5h0Zm-7.9-840.9c-3,0-5.5,2.4-5.5,5.5v135.8c0,4.7,1.1,9.3,3.3,13.5l6.8,13.1c0,.1.1.1.1.2v79.5c0,.1,0,.2-.1.2l-6.8,13.1c-2.2,4.2-3.3,8.8-3.3,13.5v269.7c0,4.7,1.1,9.3,3.3,13.5l6.8,13.1c0,.1.1.1.1.2v79.5c0,.1,0,.2-.1.2l-6.8,13.1c-2.2,4.2-3.3,8.8-3.3,13.5v157.2c0,3,2.4,5.5,5.5,5.5h7.9c3,0,5.5-2.4,5.5-5.5V71.2c0-3-2.4-5.5-5.5-5.5h-7.9Z"/>
    <path id="path74" class="cls-11" d="m618.8,858.9h-11.3c-.3,0-.5-.2-.5-.5h0l.76-786.43c0-.3.2-.5.5-.5h11.3c.3,0-.26.23-.26.53v786.4c0,.3-.2.5-.5.5Zm-9.94-1h9.44l.76-785.43h-10.3l1.01,8.75c-.58,256.11,4.51,511.75-1.09,768.3-.06,2.78.25,5.59.18,8.38h0Z"/>
    <path id="path76" class="cls-11" d="m730.68,1000.25h-106.2c-3.6,0-6.5-2.9-6.5-6.5V15.75c0-3.6,2.9-6.5,6.5-6.5h106.2c116.8,0,211.9,95.1,211.9,211.9v567.2c0,117-94.8,211.9-211.9,211.9h0ZM624.48,10.35c-3,0-5.5,2.4-5.5,5.5v978c0,3,2.4,5.5,5.5,5.5h106.2c116.3,0,210.9-94.6,210.9-210.9V221.15c0-116.3-94.6-210.9-210.9-210.9l-106.2.1Z"/>
    <path id="path128" class="cls-11" d="m597.9,314.3h-4.2c-3.8,0-6.9-3.1-7-7v-67.6c0-3.8,3.1-6.9,7-7h4.2c.6,0,1,.4,1,1h0v79.5c0,.7-.5,1.1-1,1.1h0Zm-4.2-79.5c-2.7,0-5,2.2-5,5v67.6c0,2.7,2.2,5,5,5h3.2v-77.5h-3.2v-.1Z"/>
    <path id="path130" class="cls-11" d="m597.9,717.1h-4.2c-3.8,0-6.9-3.1-7-7v-67.6c0-3.8,3.1-6.9,7-7h4.2c.6,0,1,.4,1,1h0v79.5c0,.6-.5,1.1-1,1.1h0Zm-4.2-79.5c-2.7,0-5,2.2-5,5v67.6c0,2.7,2.2,5,5,5h3.2v-77.5h-3.2v-.1Z"/>
    <path id="path1240" class="cls-14" d="m748.77,998.68c26.62-2.36,50.5-9.2,75.95-21.77,5.09-2.51,10.04-5.2,14.86-8.05,19.1-11.32,36.27-27.08,49.6-41.74,25.49-28.03,45.46-70.08,51.38-116.52.08-.66.4-4.27.37-6.75-.06-6.86.65-20,.8-38.34.66-77.55,1.09-244.04,1.07-376.44-.02-101.2-.31-182.49-.97-188.91-2.69-26.09-9.3-49.06-20.77-72.14-31.76-63.91-92.95-107.44-164-116.67-11.36-1.48-60.7-1.65-96.6-1.33-7.74.07-14.07-.08-20.14.06-7.47.17-12.9-.07-16.2.25-1.73.17-3.03.79-3.23.99-.1.1-1.42,1.38-1.53,3.35-.29,5.17-.26,17.11-.44,38.05-.04,4.23-.07,8.83-.11,13.82-.03,4.93.13,10.12.1,15.82-.05,8.77.12,18.56.07,29.25-.05,9.81-.25,20.5,0,32.02.19,8.97.2,18.38.16,28.44-.07,15.1.59,31.15.32,48.97-.22,14.98.12,29.99-.04,46.92-.1,11.08.08,22.62-.02,34.61-.06,7.2,0,14.54-.08,22.07-.5,52.11-.02,112.21-.02,180.33,0,254.31-.32,376.1-.05,435.15.03,7.67-.2,14.45-.13,20.15.03,2.2-.04,4.3-.02,6.23.04,3.32-.03,6.64.01,9.26.05,2.93-.07,5.8,0,7.96.14,4.99.1,8.1.27,10.04.26,2.84,1.26,3.58,1.56,3.83.22.18,1.3.93,3.08,1.09,4.53.41,14.56.35,27.09.23,9.86-.1,21.28-.23,32.8-.21,32.13.06,65.23.25,64.87,0h0Z"/>
    <path id="path78" class="cls-11" d="m715,763.2c-23.1,0-41.9-18.7-41.9-41.9s18.7-41.9,41.9-41.9,41.9,18.7,41.9,41.9h0c-.1,23.1-18.8,41.8-41.9,41.9Zm0-82.8c-22.6,0-40.9,18.3-40.9,40.9s18.3,40.9,40.9,40.9,40.9-18.3,40.9-40.9h0c-.1-22.6-18.3-40.9-40.9-40.9Z"/>
    <path id="path92" class="cls-13" d="m855.9,276.5h-4.7l-2.2-7-12.36.33-3.24,6.67h-4.5l9.93-35.2,6.67,3.2,10.4,32Zm-8.73-11.27l-4.88-14.59-4.59,14.81,9.47-.22Z"/>
    <path id="path132" class="cls-11" d="m925.6,139.3h-.2c-.3-.1-.6-.3-.7-.6-33-77.7-109.3-128.2-193.8-128.1h-54.2c-.6,0-1-.4-1-1h0v-2.6c0-3.8,3.1-6.9,7-7h51.2c85.2.1,162.4,50.1,197.3,127.8,1.2,2.6.6,5.7-1.5,7.8l-3.4,3.4c-.2.2-.5.3-.7.3ZM677.7,8.6h53.2c84.7-.1,161.3,50.2,195,128l2.4-2.4h0c1.5-1.4,1.9-3.6,1.1-5.5C894.8,51.7,818.3,2.1,733.9,2h-51.2c-2.7,0-5,2.2-5,5v1.6Z"/>
    <path id="path134" class="cls-11" d="m676.5,133.7h-11.7c-2.2,0-4-1.8-4-4v-11.7c0-1.1-.9-2-2-2h-11.7c-2.2,0-4-1.8-4-4v-11.7c0-2.2,1.8-4,4-4h11.7c1.1,0,2-.9,2-2v-11.5c0-2.2,1.8-4,4-4h11.7c2.2,0,4,1.8,4,4v11.7c0,1.1.9,2,2,2h11.7c2.2,0,4,1.8,4,4v11.7c0,2.2-1.8,4-4,4h-11.7c-1.1,0-2,.9-2,2v11.7c0,2-1.8,3.8-4,3.8Zm-29.3-35.2c-1.1,0-2,.9-2,2v11.7c0,1.1.9,2,2,2h11.7c2.2,0,4,1.8,4,4v11.7c0,1.1.9,2,2,2h11.7c1.1,0,2-.9,2-2v-11.7c0-2.2,1.8-4,4-4h11.7c1.1,0,2-.9,2-2v-11.7c0-1.1-.9-2-2-2h-11.7c-2.2,0-4-1.8-4-4v-11.7c0-1.1-.9-2-2-2h-11.7c-1.1,0-2,.9-2,2v11.7c0,2.2-1.8,4-4,4h-11.7Z"/>
    <path id="path136" class="cls-11" d="m768.9,372.4c-21.2,0-38.5-17.2-38.5-38.5s17.2-38.5,38.5-38.5,38.5,17.2,38.5,38.5c-.1,21.3-17.3,38.5-38.5,38.5Zm0-74.9c-20.1,0-36.5,16.3-36.5,36.5s16.3,36.5,36.5,36.5,36.5-16.3,36.5-36.5c-.1-20.2-16.4-36.5-36.5-36.5Z"/>
    <path id="path138" class="cls-11" d="m768.9,225.5c-21.2,0-38.5-17.2-38.5-38.5s17.2-38.5,38.5-38.5,38.5,17.2,38.5,38.5c-.1,21.3-17.3,38.5-38.5,38.5Zm0-74.9c-20.1,0-36.5,16.3-36.5,36.5s16.3,36.5,36.5,36.5,36.5-16.3,36.5-36.5c-.1-20.2-16.4-36.5-36.5-36.5Z"/>
    <path id="path140" class="cls-11" d="m842.3,299c-21.2,0-38.5-17.2-38.5-38.5s17.2-38.5,38.5-38.5,38.5,17.2,38.5,38.5-17.2,38.4-38.5,38.5Zm0-75c-20.1,0-36.5,16.3-36.5,36.5s16.3,36.5,36.5,36.5,36.5-16.3,36.5-36.5-16.3-36.5-36.5-36.5Z"/>
    <path id="path142" class="cls-11" d="m695.5,299c-21.2,0-38.5-17.2-38.5-38.5s17.2-38.5,38.5-38.5,38.5,17.2,38.5,38.5c-.1,21.2-17.3,38.4-38.5,38.5Zm0-75c-20.1,0-36.5,16.3-36.5,36.5s16.21,36.2,36.41,36.2,36.59-16,36.59-36.2c-.1-20.1-16.4-36.5-36.5-36.5Z"/>
    <path id="path144" class="cls-11" d="m715,750.2c-16,0-28.9-13-28.9-28.9s13-28.9,28.9-28.9,28.9,13,28.9,28.9h0c0,16-12.9,28.9-28.9,28.9Zm0-55.9c-14.9,0-26.9,12.1-26.9,26.9s12.1,26.9,26.9,26.9,26.9-12.1,26.9-26.9-12-26.8-26.9-26.9Z"/>
    <path id="path146" class="cls-11" d="m705.8,533.4h-12.3c-.6,0-1-.4-1-1h0c1.7-39.6,33.4-71.3,73-73,.3,0,.5.1.7.3.2.2.3.4.3.7v12.3c0,3.5-2.6,6.4-6,6.9-24.7,3.7-44.2,23.1-47.9,47.9-.4,3.3-3.3,5.9-6.8,5.9Zm-11.2-2h11.2c2.5,0,4.6-1.8,4.9-4.3,3.9-25.6,24-45.7,49.6-49.6,2.5-.3,4.3-2.4,4.3-4.9v-11.2c-37.4,2.1-67.9,32.6-70,70Z"/>
    <path id="path148" class="cls-11" d="m765.6,612.1s-.1,0,0,0c-39.6-1.7-71.3-33.4-73-73,0-.6.4-1,1-1h12.3c3.5,0,6.4,2.6,6.9,6,3.7,24.7,23.1,44.2,47.9,47.9,3.4.5,6,3.4,6,6.9v12.3c-.1.4-.6.9-1.1.9h0Zm-71-72.1c2.2,37.4,32.6,67.8,70,70v-11.2c0-2.5-1.8-4.6-4.3-4.9-25.6-3.9-45.7-24-49.6-49.6-.3-2.5-2.4-4.3-4.9-4.3h-11.2Z"/>
    <path id="path150" class="cls-11" d="m772.2,612.1c-.6,0-1-.4-1-1h0v-12.3c0-3.5,2.6-6.4,6-6.9,24.7-3.7,44.2-23.1,47.9-47.9.5-3.4,3.4-6,6.9-6h12.3c.6,0,1,.4,1,1h0c-1.8,39.7-33.4,71.3-73.1,73.1q.1,0,0,0h0Zm59.8-72.1c-2.5,0-4.6,1.8-4.9,4.3-3.9,25.6-24,45.7-49.6,49.6-2.5.3-4.3,2.4-4.3,4.9v11.2c37.4-2.2,67.8-32.6,70-70h-11.2Z"/>
    <path id="path152" class="cls-11" d="m844.3,533.4h-12.3c-3.5,0-6.4-2.6-6.9-6-3.7-24.7-23.1-44.2-47.9-47.9-3.4-.5-6-3.4-6-6.9v-12.3c0-.3.1-.5.3-.7s.5-.3.7-.3c39.6,1.7,71.3,33.4,73,73,.1.6-.3,1-.9,1.1h0Zm-71.1-72v11.2c0,2.5,1.8,4.6,4.3,4.9,25.6,3.9,45.7,24,49.6,49.6.3,2.5,2.4,4.3,4.9,4.3h11.2c-2.1-37.4-32.6-67.9-70-70Z"/>
    <path id="path154" class="cls-11" d="m768.9,612.2c-1.2,0-2.3,0-3.4-.1-.5,0-.9-.5-.9-1v-12.3c0-2.5-1.8-4.6-4.3-4.9-25.6-3.9-45.7-24-49.6-49.6-.3-2.5-2.4-4.3-4.9-4.3h-12.3c-.5,0-1-.4-1-.9-.1-1.1-.1-2.2-.1-3.4s0-2.3.1-3.4c0-.5.5-.9,1-.9h12.3c2.5,0,4.6-1.8,4.9-4.3,3.9-25.6,24-45.7,49.6-49.6,2.5-.3,4.3-2.4,4.3-4.9v-12.3c0-.5.4-1,.9-1,2.3-.1,4.5-.1,6.8,0,.5,0,.9.5.9,1v12.3c0,2.5,1.8,4.6,4.3,4.9,25.6,3.9,45.7,24,49.6,49.6.3,2.5,2.4,4.3,4.9,4.3h12.3c.5,0,1,.4,1,.9.1,1.1.1,2.2.1,3.4s0,2.3-.1,3.4c0,.5-.5.9-1,.9h-12.3c-2.5,0-4.6,1.8-4.9,4.3-3.9,25.6-24,45.7-49.6,49.6-2.5.3-4.3,2.4-4.3,4.9v12.3c0,.5-.4,1-.9,1-1.1,0-2.2.1-3.4.1h0Zm-2.3-2.1c1.5.1,3.1.1,4.7,0v-11.3c0-3.5,2.6-6.4,6-6.9,24.7-3.7,44.2-23.1,47.9-47.9.5-3.4,3.4-6,6.9-6h11.3v-4.6h-11.4c-3.5,0-6.4-2.6-6.9-6-3.7-24.7-23.1-44.2-47.9-47.9-3.4-.5-6-3.4-6-6.9v-11.3c-1.5-.1-3.1-.1-4.7,0v11.3c0,3.5-2.6,6.4-6,6.9-24.7,3.7-44.2,23.1-47.9,47.9-.5,3.4-3.4,6-6.9,6h-11.3v4.6h11.3c3.5,0,6.4,2.6,6.9,6,3.7,24.7,23.1,44.2,47.9,47.9,3.4.5,6,3.4,6,6.9v11.3h.1Z"/>
    <path id="path1462" class="cls-5" d="m686.28,295.46c-6.33-1.66-11.32-3.9-16.5-9.07-7.72-7.71-11.29-16.95-10.84-27.7.56-13.5,8.03-25.03,20.03-30.96,10.51-5.19,22.55-5.3,32.66-.27,7.94,3.95,12.83,10.03,16.63,17.97,5.19,10.85,4.25,24.4-2.4,34.58-5,7.65-13.49,13.7-22.04,15.69-4.82,1.13-12.72,1.01-17.55-.25h0Z"/>
    <path id="path1464" class="cls-5" d="m762.71,222.87c0-.32-3.68-.85-5.68-1.6-2.95-1.11-5.89-2.63-7.96-4.02-6.91-4.62-11.71-10.88-14.54-18.94-1.35-3.84-2.06-5.2-2.06-11.45s.71-7.18,2.06-11.02c3.88-11.06,11.8-19.06,22.77-22.97,4.25-1.52,5.15-2.29,11.56-2.29s7.33.77,11.58,2.29c14.52,5.18,24.02,17.63,24.67,32.87.45,10.59-2.74,19.5-10.19,26.91-7.56,7.53-14.42,10.7-24.63,10.99-3.39.09-6.85-.62-7.58-.76h0Z"/>
    <path id="path1466" class="cls-5" d="m834.94,296.45c-6.7-1-15.59-5.79-20.81-12.87-3.03-4.11-6.22-10.67-7.27-15.67-2.76-13.24,2.64-27.86,13.27-35.91,19.99-15.15,48.09-6.69,56.44,17,1.86,5.28,2.98,13.31,1.68,19.17-1.51,6.78-4.87,12.86-10.19,18.16-5.27,5.24-9.89,7.95-16.43,9.62-4.86,1.24-12.03,1.2-16.69.51h0Z"/>
    <path id="path1468" class="cls-5" d="m763.71,369.86c-8.12-1.28-14.24-3.96-20.57-10.26-3.76-3.74-5.37-6.19-7.19-9.96-7.6-15.75-2.96-33.08,10.78-44.1,6.36-5.1,13.62-7.59,22.14-7.59,29.93,0,46.68,33.84,28.71,58.01-2.8,3.76-6.28,7.45-10.51,9.84-7.04,3.97-15.7,5.27-23.35,4.07h0Z"/>
    <path id="path1500" class="cls-10" d="m766.92,602.65c-.29-8.93-.83-9.73-10.13-11.86-21.07-4.84-37.2-20.14-42.61-41.35-.55-2.16-1.09-5.2-1.09-5.88s-1.01-2.25-2.24-3.48l-2.35-1.95-6.86-.29h-6.97v-3.95h5.94c6.6,0,9.94-1,11.2-3.37.44-.83,1.5-3.94,2-6.97,2.68-16.31,14.91-30.69,29.48-37.96,4.72-2.36,11.37-4.65,15.51-5.36,6.62-1.13,8.22-3.62,8.22-12.75v-5.94h3.95v6.9c0,6.62.07,6.97,1.81,8.83,1.46,1.56,3.91,1.7,9.49,3.07,20.41,4.97,35.28,20.46,40.72,40.15.79,2.86,1.76,6.37,2.17,7.81,1.23,4.35,3.85,5.61,11.69,5.61h6.48v3.95h-6.61c-6.96,0-9.89.84-10.81,3.1-.26.65-1.27,4.61-2.14,8.03-5.39,21.4-21.28,36.72-42.14,41.53-9.95,2.3-10.66,3.15-10.66,12.75v6.28h-3.83l-.22-6.89Z"/>
    <path id="path1504" class="cls-8" d="m695.46,526.5c1.75-15.27,8.92-31.23,20.42-42.95,11.95-12.19,27.52-19.18,45.72-21.64l2.8-.38v6.18c0,7.93-.12,8.87-6.84,10.24-22.3,4.57-41.81,22.09-46.1,44.19-1.76,9.07-2.36,9.12-11.11,9.12h-5.43l.55-4.77Z"/>
    <path id="path1506" class="cls-8" d="m754.53,608.25c-32.22-6.91-55.74-32.91-59.39-65.64l-.24-2.14h6.36c6.89,0,6.85.02,7.75,1.02,1.27,1.42,1.51,3.83,2.43,7.9,4.79,21.22,24.19,39.14,46.59,43.98,6.9,1.49,6.37,2.73,6.37,10.29v5.88l-2.14-.05c-1.18-.03-4.65-.59-7.73-1.25h0Z"/>
    <path id="path1508" class="cls-8" d="m773.34,603.05c-.29-7.26.98-8.25,5.33-9,4.85-.83,11.11-2.92,16.32-5.45,15.8-7.67,27.12-21.99,31.56-39.91.98-3.95,1.57-7.24,2.25-7.74.72-.52,3.9-.49,7.85-.49h6.21l-.43,3.78c-3.79,33.2-31.78,61.26-64.83,65l-3.99.45-.27-6.66Z"/>
    <path id="path1510" class="cls-8" d="m828.66,529.84c-1.18-1.07-1.31-2.96-2.11-6.73-4.38-20.46-18.96-36.62-39.29-43.54-2.44-.83-5.82-1.72-7.52-1.97-1.88-.28-3.86-.56-4.78-1.49-1.38-1.38-1.35-2.61-1.35-8.25v-6.24l2.47.33c19,2.55,32.68,9.21,45.44,22.12,10.43,10.55,17.44,23.81,20.16,38.15.55,2.88.99,6.1.99,7.14v1.9h-5.88c-5.18,0-6.7-.12-8.13-1.42h0Z"/>
    <path id="path1512" class="cls-6" d="m663.62,131.03c-.53-.59-.62-1.7-.62-7.55v-6.86l-1.1-1.23-1.1-1.23-7.11-.11c-4.07-.06-6.48.46-7.57-.16-1.35-.77-.86-3.07-.86-7.63s.13-6.29.54-6.85c.49-.67,1.1-.74,7.27-.83,3.7-.05,7.12-.19,7.6-.29.47-.11,1.2-.74,1.6-1.41.66-1.09.74-1.92.74-7.76,0-3.78.17-6.85.39-7.27.36-.68.86-.73,7.35-.73s6.99.05,7.35.73c.23.42.39,3.49.39,7.27,0,5.83.08,6.67.74,7.76.41.67,1.13,1.3,1.6,1.41s3.89.24,7.6.29c6.17.09,6.78.16,7.27.83.41.56.54,2.17.54,6.85s.74,7.19-.88,7.88c-1.16.49-3.77-.14-7.55-.09l-7.11.11-1.1,1.23-1.1,1.23v6.92c0,6.23-.07,6.98-.69,7.55-.59.53-1.67.63-7.12.63-5.75,0-6.49-.07-7.05-.69h0Z"/>
    <path id="path1514" class="cls-9" d="m709.9,726.44v-5.26h10.51v10.51h-10.51v-5.26Z"/>
    <path id="path1518" class="cls-8" d="m709.33,761.61c-14.85-2.34-27.22-12.34-32.44-26.23-7.52-20.03,2.33-43.03,22.03-51.41,6.07-2.58,7.96-3.52,15.7-3.49,6.51.03,7.91.6,11.26,1.62,14.44,4.39,24.64,14.87,28.59,29.4.79,2.9,1.11,5.24,1.1,10.74,0,5.45-.34,6.15-1.11,9.05-4.75,17.69-20.04,29.95-38.08,30.54-2.56.08-5.73-.02-7.04-.22h0Zm12.02-11.95c11.94-2.63,21.27-13.05,22.49-25.12,2.18-21.54-18.13-37.7-38.52-30.66-4.18,1.44-6.99,3.29-10.82,7.09-2.82,2.8-3.82,4.14-5.33,7.15-2.56,5.11-3.3,8.69-3.02,14.63.32,6.81,2.16,11.73,6.31,16.89,6.76,8.39,18.23,12.37,28.89,10.02h0Z"/>
    <path id="path1520" class="cls-4" d="m591.47,714.31c-1.33-.81-2.29-.92-2.47-5.31-.18-4.34.06-13.49.06-32.63,0-32.81-.47-35.2.63-36.26.07-.06.1-.15.16-.22,1.14-1.45,2.69-2.13,4.87-2.13h1.91v77.27h-1.99c-1.29,0-2.41-.26-3.18-.73h0Z"/>
    <path id="path1522" class="cls-4" d="m592.88,312.11c-.51-.1-1.32-.44-1.82-.76-.78-.51-1.54-.77-1.83-2.7-.48-3.23-.17-11.38-.17-35.1,0-19.26-.52-28.35-.38-32.53.09-2.73.78-3.23,1-3.61.93-1.58,2.43-2.29,4.84-2.29h2.12v77.27l-1.42-.05c-.78-.03-1.83-.13-2.34-.22h0Z"/>
    <path id="path1524" class="cls-7" d="m921.32,126.45c-10.09-20.55-21.9-37.24-38.16-53.89-34.82-35.67-78.67-57.01-129.65-63.08-5.06-.6-13.08-.79-40.92-.97l-34.63-.22v-1.41c0-.98.01-2.97,1.4-3.67l2.12-1.13,30.38.22c16.93.13,33.55.22,37,.48,50.75,3.92,97.06,24.58,133.31,59.47,17.58,16.92,31.48,35.74,42.78,57.91,4.28,8.41,4.88,10.06,4.25,11.78-.42,1.15-2.66,4.17-3.18,4.13-.14-.01-2.25-4.58-4.73-9.63h0Z"/>
    <path id="path1530" class="cls-5" d="m590.08,903.77c-.56-.55-1.71-1.18-1.56-5.04.26-6.7-.22-27.16-.14-79.12l.3-82.56,2.57-6.45,7.9-15.05.1-39.43-.37-39.62-7.11-13.23-2.91-7.69-.38-7.29.09-48.03-.1-22.13.1-34.13.06-10.48v-10.49s-.06-8.6-.06-8.6l.02-25.57v-19.35s-.15-27.48-.15-27.48l.07-21.59-.02-11.01.1-19.61-.05-10.23.55-5.68,1.92-5.79,2.96-5.52,5.29-9.82v-39.48l-.37-39.58-5.28-9.75-2.68-5.33-1.82-5.14-.74-7.6.24-13.32-.12-12.25v-11.08s-.05-10.85-.05-10.85l.03-9.87v-6.54s.03-2.9.03-2.9l.07-17.39.03-21.51v-10.81s-.06-8.44-.06-8.44l.02-5.13-.22-5.94,2.2-3.06,3.16-1.1,3.22.06c1.42.03,2.73.06,3.94.24.86.13,1.84.13,2.59.4.99.36,1.68,1.02,2.04,1.32.21.17,1.21,1.72,1.33,4.75.08,2.06-.02,4.68-.01,8.33.01,4.09.08,9.69.04,16.36-.07,10.01-.02,23.12-.08,40.38-.05,13.18.2,28.67.14,46.99-.18,62.77-.25,157.99-.24,300.98l.03,416.25-1.26,1.82c-1.8,2.6-12.61,2.9-15.35.21h0Z"/>
    <path id="path1532" class="cls-5" d="m609.12,465.09V72.72h8.62v784.74h-8.62v-392.37Z"/>
    <ellipse id="path3879" class="cls-2" cx="714.88" cy="721.07" rx="40.27" ry="40.27"/>
    <ellipse id="path3881" class="cls-3" cx="714.95" cy="721.39" rx="34.06" ry="34.49"/>
    <path id="path96" class="cls-11" d="m715,694.3l-26.77,26.42h7.65v22.53h38.52v-22.53h7.24l-26.63-26.42Zm7.79,40.9h-15.16v-14.48h15.16v14.48Z"/>
  </g>
</svg>