<?xml version="1.0" encoding="UTF-8"?>
<svg id="Layer_1" data-name="Layer 1" xmlns="http://www.w3.org/2000/svg" viewBox="0 0 1064 1000.25">
  <defs>
    <style>
      .cls-1 {
        stroke-width: .85px;
      }

      .cls-1, .cls-2, .cls-3, .cls-4, .cls-5, .cls-6, .cls-7, .cls-8, .cls-9, .cls-10, .cls-11, .cls-12, .cls-13, .cls-14 {
        stroke: #000;
      }

      .cls-1, .cls-7, .cls-9, .cls-13, .cls-14 {
        fill: #333;
      }

      .cls-15 {
        opacity: .1;
      }

      .cls-2 {
        fill: #999595;
        stroke-width: 2.39px;
      }

      .cls-2, .cls-3 {
        stroke-linecap: round;
        stroke-linejoin: round;
      }

      .cls-3 {
        fill: #3a3d40;
        stroke-width: 2.73px;
      }

      .cls-16, .cls-17, .cls-18, .cls-19 {
        stroke: #4d4d4d;
      }

      .cls-16, .cls-11 {
        stroke-width: 1px;
      }

      .cls-5 {
        fill: rgba(255, 95, 85, .96);
      }

      .cls-6, .cls-18, .cls-20, .cls-19, .cls-10, .cls-11, .cls-12 {
        fill: #1a1a1a;
      }

      .cls-20 {
        stroke: #1a1a1a;
      }

      .cls-8 {
        fill: #00bbdb;
      }

      .cls-9 {
        stroke-width: .93px;
      }

      .cls-19 {
        stroke-width: 1px;
      }

      .cls-10 {
        stroke-width: 1px;
      }

      .cls-12 {
        stroke-width: 1px;
      }

      .cls-21, .cls-22, .cls-23 {
        stroke-width: 0px;
      }

      .cls-13 {
        stroke-width: .96px;
      }

      .cls-24 {
        fill: #ff5f53;
        stroke: rgba(0, 0, 5, .96);
        stroke-width: 1px;
      }

      .cls-22 {
        fill: #ff5f55;
      }

      .cls-23 {
        fill: #fff;
      }

      .cls-14 {
        stroke-width: .93px;
      }
    </style>
  </defs>
  <g id="layer1">
    <g id="g344">
      <path id="path66-7" class="cls-21" d="m413.1,906.6h-7.9c-3.6,0-6.4-2.9-6.5-6.5V71.2c0-3.6,2.9-6.4,6.5-6.5h7.9c3.6,0,6.4,2.9,6.5,6.5v135.8c0,4.9-1.2,9.6-3.4,14l-6.7,13v79.2l6.7,13c2.2,4.3,3.4,9.1,3.4,13.9v269.7c0,4.9-1.2,9.6-3.4,14l-6.7,13v79.2l6.7,13c2.2,4.3,3.4,9.1,3.4,13.9v157.2c0,3.6-2.9,6.5-6.5,6.5h0Zm-7.9-840.9c-3,0-5.5,2.4-5.5,5.5v828.9c0,3,2.4,5.5,5.5,5.5h7.9c3,0,5.5-2.4,5.5-5.5v-157.2c0-4.7-1.1-9.3-3.3-13.5l-6.8-13.1c0-.1-.1-.2-.1-.2v-79.5c0-.1,0-.2.1-.2l6.8-13.1c2.2-4.2,3.3-8.8,3.3-13.5v-269.7c0-4.7-1.1-9.3-3.3-13.5l-6.8-13.1c0-.1-.1-.2-.1-.2v-79.5c0-.1,0-.2.1-.2l6.8-13.1c2.2-4.2,3.3-8.8,3.3-13.5V71.2c0-3-2.4-5.5-5.5-5.5h-7.9Z"/>
      <path id="path68-5" class="cls-21" d="m399.3,858.9h-11.2c-.3,0-.5-.2-.5-.5V72c0-.3.2-.5.5-.5h11.2c.3,0,.5.2.5.5v786.4c0,.3-.2.5-.5.5Zm-10.7-1h10.2V72.5h-10.2v785.4Z"/>
      <path id="path70-3" class="cls-21" d="m382.1,1000h-106.2c-117,0-211.9-94.8-211.9-211.9h0V220.9c0-116.8,95.1-211.8,211.9-211.8h106.2c3.6,0,6.5,2.9,6.5,6.5v978c0,3.5-2.9,6.4-6.5,6.4h0ZM275.9,10.1c-116.3,0-210.9,94.6-210.9,210.8v567.2c0,116.3,94.6,210.9,210.9,210.9h106.2c3,0,5.5-2.4,5.5-5.5V15.5c0-3-2.4-5.5-5.5-5.5h-106.2v.1Z"/>
      <path id="path98" class="cls-21" d="m413.1,717.1h-4.2c-.6,0-1-.4-1-1h0v-79.5c0-.6.4-1,1-1h4.2c3.8,0,6.9,3.1,7,7v67.6c0,3.8-3.1,6.9-7,6.9Zm-3.2-2h3.2c2.7,0,5-2.2,5-5v-67.6c0-2.7-2.2-5-5-5h-3.2v77.6Z"/>
      <path id="path100" class="cls-21" d="m413.1,314.3h-4.2c-.6,0-1-.4-1-1v-79.5c0-.6.4-1,1-1h4.2c3.8,0,6.9,3.1,7,7v67.6c0,3.8-3.1,6.9-7,6.9Zm-3.2-2h3.2c2.7,0,5-2.2,5-5v-67.6c0-2.7-2.2-5-5-5h-3.2v77.6Z"/>
      <path id="path1144" class="cls-8" d="m257.24,997.87c-26.23-3.01-49.95-8.45-75.09-20.98-21.9-10.92-41.13-25.71-57.45-42.5-32.32-33.25-53.71-77.78-59.04-126.69-.37-3.41-.06-30.45-.34-72.25-1.06-158.54-.9-520.58.51-534.41,1.81-17.7,6.06-36.49,12.01-52.36,2.8-7.46,7.09-15.78,10.72-23.14C119.95,61.79,180.78,21.16,250.99,11.96c18.18-2.38,133.14-3.26,135.46-.93.15.15.87,2.31,1.05,7.01.4,11.1.35,36,1.26,79.38.69,32.74-.03,76.31.1,132.52.16,70.26-1.58,160.16-1.58,274.77,0,484.5,1.44,491.18-.87,492.42-.32.17-2.47,1.66-5.34,1.81-21.91,1.09-119.24-.54-120.57-.69l-3.27-.38Z"/>
      <polygon id="polygon80" class="cls-9" points="237.94 448.12 224.58 470.22 251.29 470.22 237.94 448.12"/>
      <polygon id="polygon82" class="cls-13" points="251.1 605.63 238.31 627.3 225.51 605.63 251.1 605.63"/>
      <polygon id="polygon84" class="cls-14" points="169.9 524.74 147.97 538.1 169.9 551.45 169.9 524.74"/>
      <polygon id="polygon86" class="cls-1" points="330.41 537.87 304.83 551.63 304.83 524.12 330.41 537.87"/>
      <path id="path102" class="cls-21" d="m81.3,139.3c-.3,0-.5-.1-.7-.3l-3.4-3.4c-2-2-2.6-5.1-1.5-7.8C110.5,50.1,187.7.1,272.9,0h51.2c3.8,0,6.9,3.1,7,7v2.6c0,.6-.4,1-1,1h-54.2c-84.5-.1-160.8,50.4-193.7,128.1-.1.3-.4.5-.7.6h-.2ZM272.9,2c-84.4.1-160.9,49.7-195.4,126.7-.8,1.9-.4,4.1,1.1,5.5l2.4,2.4C114.6,58.8,191.3,8.5,276,8.6h53.2v-1.6c0-2.7-2.2-5-5-5h-51.3Z"/>
      <path id="path104" class="cls-21" d="m359.6,116.1h-46.9c-2.2,0-4-1.8-4-4v-11.7c0-2.2,1.8-4,4-4h46.9c2.2,0,4,1.8,4,4v11.7c0,2.2-1.8,4-4,4Zm-46.9-17.6c-1.1,0-2,.9-2,2v11.7c0,1.1.9,2,2,2h46.9c1.1,0,2-.9,2-2v-11.7c0-1.1-.9-2-2-2h-46.9Z"/>
      <path id="path106" class="cls-21" d="m237.9,502.9c-21.2,0-38.5-17.2-38.5-38.5s17.2-38.5,38.5-38.5,38.5,17.2,38.5,38.5-17.2,38.5-38.5,38.5h0Zm0-74.9c-20.1,0-36.5,16.3-36.5,36.5s16.3,36.5,36.5,36.5,36.5-16.3,36.5-36.5-16.3-36.5-36.5-36.5h0Z"/>
      <path id="path108" class="cls-21" d="m237.9,649.8c-21.2,0-38.5-17.2-38.5-38.5s17.2-38.5,38.5-38.5,38.5,17.2,38.5,38.5-17.2,38.5-38.5,38.5h0Zm0-74.9c-20.1,0-36.5,16.3-36.5,36.5s16.3,36.5,36.5,36.5,36.5-16.3,36.5-36.5h0c0-20.2-16.3-36.5-36.5-36.5h0Z"/>
      <path id="path110" class="cls-21" d="m311.4,576.3c-21.2,0-38.5-17.2-38.5-38.5s17.2-38.5,38.5-38.5,38.5,17.2,38.5,38.5h0c-.1,21.3-17.3,38.5-38.5,38.5Zm0-74.9c-20.1,0-36.5,16.3-36.5,36.5s16.3,36.5,36.5,36.5,36.5-16.3,36.5-36.5h0c-.1-20.2-16.4-36.5-36.5-36.5h0Z"/>
      <path id="path112" class="cls-21" d="m164.5,576.3c-21.2,0-38.5-17.2-38.5-38.5s17.2-38.5,38.5-38.5,38.5,17.2,38.5,38.5h0c-.1,21.3-17.3,38.5-38.5,38.5Zm0-74.9c-20.1,0-36.5,16.3-36.5,36.5s16.3,36.5,36.5,36.5,36.5-16.3,36.5-36.5h0c-.1-20.2-16.4-36.5-36.5-36.5h0Z"/>
      <path id="path114" class="cls-21" d="m314.1,753.7h-45c-5.5,0-9.9-4.4-9.9-9.9v-45c0-5.5,4.4-9.9,9.9-9.9h45c5.5,0,9.9,4.4,9.9,9.9v45c0,5.5-4.5,9.9-9.9,9.9Zm-45-62.8c-4.4,0-7.9,3.6-7.9,7.9v45c0,4.4,3.6,7.9,7.9,7.9h45c4.4,0,7.9-3.6,7.9-7.9v-45c0-4.4-3.6-7.9-7.9-7.9h-45Z"/>
      <path id="path116" class="cls-21" d="m291.6,741.7c-11.3,0-20.4-9.2-20.4-20.4s9.2-20.4,20.4-20.4,20.4,9.2,20.4,20.4h0c0,11.3-9.1,20.4-20.4,20.4Zm0-38.9c-10.2,0-18.4,8.3-18.4,18.4s8.3,18.4,18.4,18.4,18.4-8.3,18.4-18.4-8.2-18.3-18.4-18.4Z"/>
      <path id="path118" class="cls-21" d="m174.8,260.2h-12.3c-.6,0-1-.4-1-1h0c1.7-39.6,33.4-71.3,73-73,.3,0,.5.1.7.3s.3.4.3.7v12.3c0,3.5-2.6,6.4-6,6.9-24.7,3.7-44.2,23.1-47.9,47.9-.4,3.3-3.3,5.9-6.8,5.9h0Zm-11.2-2h11.2c2.5,0,4.6-1.8,4.9-4.3,3.9-25.6,24-45.7,49.6-49.6,2.5-.3,4.3-2.4,4.3-4.9v-11.2c-37.4,2.1-67.9,32.6-70,70Z"/>
      <path id="path120" class="cls-21" d="m234.6,338.9h0c-39.6-1.7-71.3-33.4-73-73,0-.6.4-1,1-1h12.3c3.5,0,6.4,2.6,6.9,6,3.7,24.7,23.1,44.2,47.9,47.9,3.4.5,6,3.4,6,6.9v12.3c-.1.5-.6.9-1.1.9Zm-71-72c2.2,37.4,32.6,67.8,70,70v-11.2c0-2.5-1.8-4.6-4.3-4.9-25.6-3.9-45.7-24-49.6-49.6-.3-2.5-2.4-4.3-4.9-4.3h-11.2Z"/>
      <path id="path122" class="cls-21" d="m241.3,338.9c-.6,0-1-.4-1-1v-12.3c0-3.5,2.6-6.4,6-6.9,24.7-3.7,44.2-23.1,47.9-47.9.5-3.4,3.4-6,6.9-6h12.3c.6,0,1,.4,1,1h0c-1.8,39.7-33.5,71.4-73.1,73.1h0Zm59.7-72c-2.5,0-4.6,1.8-4.9,4.3-3.9,25.6-24,45.7-49.6,49.6-2.5.3-4.3,2.4-4.3,4.9v11.2c37.4-2.2,67.8-32.6,70-70h-11.2Z"/>
      <path id="path124" class="cls-21" d="m313.3,260.2h-12.3c-3.5,0-6.4-2.6-6.9-6-3.7-24.7-23.1-44.2-47.9-47.9-3.4-.5-6-3.4-6-6.9v-12.3c0-.3.1-.5.3-.7s.5-.3.7-.3c39.6,1.7,71.3,33.4,73,73,.1.6-.3,1.1-.9,1.1h0Zm-71-72v11.2c0,2.5,1.8,4.6,4.3,4.9,25.6,3.9,45.7,24,49.6,49.6.3,2.5,2.4,4.3,4.9,4.3h11.2c-2.2-37.4-32.7-67.9-70-70h0Z"/>
      <path id="path126" class="cls-21" d="m237.9,339c-1.2,0-2.3,0-3.4-.1-.5,0-.9-.5-.9-1v-12.3c0-2.5-1.8-4.6-4.3-4.9-25.6-3.9-45.7-24-49.6-49.6-.3-2.5-2.4-4.3-4.9-4.3h-12.3c-.5,0-1-.4-1-.9-.1-1.1-.1-2.2-.1-3.4s0-2.3.1-3.4c0-.5.5-.9,1-.9h12.3c2.5,0,4.6-1.8,4.9-4.3,3.9-25.6,24-45.7,49.6-49.6,2.5-.3,4.3-2.4,4.3-4.9v-12.3c0-.5.4-1,.9-1,2.3-.1,4.5-.1,6.8,0,.5,0,.9.5.9,1v12.3c0,2.5,1.8,4.6,4.3,4.9,25.6,3.9,45.7,24,49.6,49.6.3,2.5,2.4,4.3,4.9,4.3h12.3c.5,0,1,.4,1,.9.1,1.1.1,2.2.1,3.4s0,2.3-.1,3.4c0,.5-.5.9-1,.9h-12.3c-2.5,0-4.6,1.8-4.9,4.3-3.9,25.6-24,45.7-49.6,49.6-2.5.3-4.3,2.4-4.3,4.9v12.3c0,.5-.4,1-.9,1-1.1.1-2.2.1-3.4.1Zm-2.3-2c1.5.1,3.1.1,4.7,0v-11.3c0-3.5,2.6-6.4,6-6.9,24.7-3.7,44.2-23.1,47.9-47.9.5-3.4,3.4-6,6.9-6h11.3v-4.6h-11.4c-3.5,0-6.4-2.6-6.9-6-3.7-24.7-23.1-44.2-47.9-47.9-3.4-.5-6-3.4-6-6.9v-11.3c-1.5-.1-3.1-.1-4.7,0v11.3c0,3.5-2.6,6.4-6,6.9-24.7,3.7-44.2,23.1-47.9,47.9-.5,3.4-3.4,6-6.9,6h-11.3v4.6h11.3c3.5,0,6.4,2.6,6.9,6,3.7,24.7,23.1,44.2,47.9,47.9,3.4.5,6,3.4,6,6.9l.1,11.3Z"/>
      <path id="path179" class="cls-12" d="m158.03,574.28c-14.73-3.25-24.86-12.71-29.04-27.12-.99-3.39-1.22-6.27-.94-11.66.34-6.46.68-7.77,3.53-13.51,11.35-22.91,40.69-27.93,58.62-10.02,19.42,19.4,12,51.86-13.9,60.78-5.19,1.79-13.81,2.51-18.26,1.52h0Zm12.6-36.29c0-7.35-.18-13.36-.4-13.36-.9,0-23.32,13.18-22.99,13.51.66.66,22.24,13.11,22.82,13.17.31.03.57-5.96.57-13.31h0Z"/>
      <path id="path181" class="cls-12" d="m232.51,500.57c-6.92-.86-15.04-5-20.49-10.42-14.59-14.53-14.56-36.86.06-51.42,23.03-22.94,62.27-6.95,62.27,25.37,0,10.35-3.47,18.75-10.72,25.98-8.34,8.31-19.22,11.98-31.12,10.49h0Zm18.58-30.69c-.92-2.38-12.79-22.35-13.29-22.35-.45,0-5.88,9.05-11.96,19.91l-2.02,3.6h13.86c12.18,0,13.8-.14,13.41-1.17h0Z"/>
      <path id="path185" class="cls-12" d="m229.21,646.98c-12.92-3.47-23.15-13.74-26.52-26.62-5.92-22.65,11.59-45.22,35.16-45.33,7.45-.03,11.29.91,18.1,4.46,16.9,8.81,23.85,30.39,15.41,47.87-7.54,15.62-25.64,24.04-42.14,19.62h0Zm16.22-30.06c3.65-6.3,6.49-11.62,6.29-11.81s-6.41-.26-13.81-.14l-13.46.21,6.67,11.59c3.67,6.37,6.89,11.59,7.16,11.6.27,0,3.49-5.14,7.14-11.45Z"/>
      <path id="path187" class="cls-6" d="m307.86,574.24c-.34-.04-1.63-.27-2.85-.52-11.24-2.25-20.92-9.7-26.17-20.14-2.83-5.62-4.2-12.18-3.76-17.94,1.14-14.8,11.33-27.74,25.62-32.53,8.75-2.94,18.04-2.19,26.73,2.16,8.69,4.35,15.49,12.11,18.64,21.3,5.26,15.31-.72,32.17-14.73,41.56-5.99,4.02-13.36,6.28-20.19,6.21-1.47-.02-2.95-.06-3.29-.1h0Zm-.67-23.09c.71-.36,3.03-1.62,5.14-2.81,8.67-4.85,15.64-9.17,16.22-10.05.28-.43.28-.5.02-.9-.87-1.33-21.51-13.53-22.88-13.53-.26,0-.57.11-.68.25-.41.5-.6,4.79-.59,13.89,0,9.06.18,13.03.6,13.54.32.39.78.3,2.18-.4h0Z"/>
      <path id="path189" class="cls-7" d="m287.96,739.1c-1.02-.22-2.98-.95-4.35-1.62-2.09-1.02-2.88-1.59-4.78-3.49-1.9-1.9-2.47-2.68-3.49-4.78-2.67-5.48-2.67-10.56,0-16.09,1.01-2.1,1.56-2.85,3.48-4.76,3.63-3.61,7.73-5.34,12.7-5.35,8.35-.02,15.68,5.72,17.81,13.93.52,2.02.54,6.17.03,8.35-1.47,6.34-6.31,11.45-12.7,13.41-2.45.75-6.26.93-8.71.4h0Z"/>
      <path id="path191" class="cls-6" d="m267.23,751.29c-1.6-.44-2.95-1.3-4.06-2.6-1.81-2.12-1.73-.88-1.73-27.4s-.1-25.31,1.88-27.55c.58-.66,1.71-1.51,2.55-1.93l1.51-.74h48.31l1.78.87c1.26.62,2.05,1.23,2.71,2.09,1.79,2.34,1.73,1.33,1.65,27.8-.07,23.78-.07,23.87-.64,25.09-.72,1.56-2.26,3.1-3.93,3.93l-1.31.65-23.75.05c-18.21.04-24.03-.02-24.95-.28h0Zm27.29-9.68c10.6-1.53,18.09-10.67,17.51-21.36-.18-3.36-.67-5.27-2.05-8.06-4.59-9.3-15.47-13.68-25.31-10.19-2.76.98-4.69,2.17-7.03,4.34-3.05,2.84-5.12,6.35-6.04,10.27-.51,2.15-.51,7.22,0,9.37.92,3.91,2.95,7.37,6.01,10.25,2.21,2.08,4.16,3.32,6.72,4.26,3.41,1.25,6.73,1.62,10.19,1.12h0Z"/>
      <path id="path1082" class="cls-20" d="m235.77,330.35c0-6.02-.05-6.52-.73-7.87-1.06-2.1-2.95-3.39-5.65-3.88-15.06-2.68-27.5-10.15-36.52-21.94-4.97-6.49-8.83-15.11-10.39-23.19-.83-4.33-1.4-5.66-2.98-7.01-1.77-1.52-3.3-1.79-9.97-1.79h-5.86v-4.22h6.27c6.13,0,6.31-.02,7.99-.86,2.44-1.22,3.32-2.74,4.22-7.33,4.57-23.25,22.4-40.98,45.63-45.37,4.16-.79,5.57-1.57,6.91-3.84.9-1.54.91-1.6,1.02-8.13l.11-6.58h4.16v6.27c0,6.2.01,6.3.89,8.04,1.33,2.62,2.65,3.38,7.57,4.35,19.38,3.83,35.09,16.98,42.29,35.42,1.04,2.67,1.94,5.93,3.32,12.01.59,2.61,1.67,4.16,3.6,5.18,1.15.6,1.95.68,7.86.77l6.58.1v4.18h-6.27c-6.13,0-6.31.02-7.99.86-2.2,1.1-3.4,2.9-3.91,5.89-4.06,23.83-22.22,42.33-45.97,46.81-4.25.8-5.72,1.66-6.97,4.08-.79,1.54-.83,1.89-.94,8.04l-.11,6.42h-4.16v-6.43Z"/>
      <path id="path1084" class="cls-18" d="m163.79,257.28c.09-.49.26-1.92.37-3.17.35-3.86,1.74-10.12,3.28-14.75,8.02-24.08,28.1-42.7,52.74-48.92,3.12-.79,7.58-1.55,11.29-1.93l2.03-.21v5.87c0,8.54-.39,9.15-6.54,10.38-18.43,3.66-33.67,15.25-41.92,31.89-2.55,5.14-4.15,10.09-5.47,16.97-.46,2.37-1.82,4-3.72,4.44-.71.16-3.76.3-6.76.31h-5.47s.17-.89.17-.89Z"/>
      <path id="path1086" class="cls-18" d="m229.76,336.39c-27-3.05-50.79-21.36-60.92-46.88-2.38-6-4.22-13.36-4.68-18.71-.11-1.32-.28-2.74-.36-3.15l-.16-.76,6.32.11c5.79.1,6.4.16,7.22.78,1.58,1.18,2.04,2.17,2.89,6.25,1.22,5.83,2.45,9.36,5.19,14.84,2.86,5.73,5.67,9.78,9.86,14.18,8.62,9.07,19.7,15.17,31.73,17.47,3.63.7,4.63,1.17,5.81,2.74.61.82.68,1.43.77,7.21.09,5.92.06,6.31-.49,6.27-.32-.02-1.76-.17-3.19-.34h0Z"/>
      <path id="path1088" class="cls-18" d="m299.67,257.71c-2.39-.85-2.82-1.59-3.81-6.52-3.67-18.21-15.4-33.46-31.99-41.58-4.82-2.36-8.58-3.67-13.48-4.7-4.72-.99-6.17-1.59-7.06-2.9-.7-1.05-.74-1.38-.74-7.38,0-3.46.12-6.29.26-6.29s1.93.21,3.98.47c11.97,1.5,22.86,5.63,32.79,12.45,4.37,3,7.42,5.61,11.58,9.9,9.3,9.61,15.51,20.67,18.78,33.48.93,3.65,2.12,10.89,2.12,12.91,0,.59-.3.62-5.6.61-3.83-.01-5.99-.15-6.82-.45h0Z"/>
      <path id="path1090" class="cls-18" d="m242.32,330.46c.1-5.77.16-6.39.78-7.21,1.18-1.58,2.17-2.03,6.33-2.86,23.49-4.69,41.9-23.31,46.44-46.97.67-3.48,1.15-4.48,2.71-5.65.82-.61,1.43-.68,7.22-.78l6.32-.11-.2,1.73c-1.19,10.52-3.3,17.98-7.46,26.41-11.18,22.65-32.93,38.14-57.97,41.27-2.05.26-3.85.47-4,.47s-.23-2.84-.17-6.31h0Z"/>
      <path id="path1092" class="cls-11" d="m311.6,113.46c-.55-.55-.67-1.84-.67-7.2,0-4.5.16-6.68.51-7.04.39-.39,6.44-.51,24.6-.51,21.33,0,24.17.08,24.76.67.55.55.67,1.82.67,7.04,0,6.1-.04,6.4-.95,7.04-.83.58-3.89.67-24.6.67s-23.73-.08-24.32-.67Z"/>
      <path id="path1094" class="cls-16" d="m78.98,134.19c-2.35-2.75-2.19-3.66,2.27-12.63,10.77-21.66,23.63-39.59,40.53-56.5,31.35-31.37,71.58-52.22,115.27-59.75,15.07-2.6,16.54-2.68,54.04-2.87l34.77-.18,1.35,1.21c.97.86,1.42,1.71,1.59,2.99l.24,1.78-33.79.19c-36.25.21-38.77.34-53.26,2.69-38.39,6.23-72.89,22.04-103.29,47.34-6.79,5.65-19.47,18.33-25.22,25.24-8.36,10.03-16.48,21.68-22.54,32.36-3.08,5.42-9.62,18.65-9.62,19.45,0,.91-.81.45-2.32-1.32h0Z"/>
      <path id="path1150" class="cls-4" d="m398.45,615.98c0-216.02-.02-633.99.13-525.97.15,108.01.29,614.35.14,722.36-.04,29.21-.09,43.2-.12,45.05-.09,4.99-.14-83.82-.14-241.43h0Z"/>
      <path id="path1152" class="cls-6" d="m400.63,903.16c-1.48-2.12-.83-44.17-.83-417.62s-.81-415.2.67-417.31c1.38-1.96,3.41-2.25,8.49-2.25,1.77,0,3.84-.09,5.43.21,1.41.26,3.17,2.04,3.49,2.37.5.5.32,4.32.44,16.37.11,11.35-.22,28.99-.22,55.34,0,44.71.61,61.76.14,69.79-.26,4.36-1.18,6.13-1.9,8.05-1.16,3.1-3.86,8.16-5.61,10.91l-3.18,5.01.4,40.35c.37,37.62-.21,39.05,1.64,41.67,1.09,1.54,2.95,6.13,4.62,9.33l3.04,5.81,1.31,7.93-.07,19.79-.11,15.8-.21,97.91c-.2,93.13,1.25,126.69-.28,141.09-.44,4.16-1.62,6.52-2.28,8.5-.91,2.72-2.09,4.91-3.85,7.82l-3.66,6.08.38,15.57.11,25.07c.12,26.52.58,40.43,1.29,40.87.6.37,2.69,4.04,4.33,8.45l3.32,8.97,1.1,9.02-.19,15.87-.19,57.87c-.2,61.89.42,84.48-.47,85.55-.78.94-4.48,2.43-8.42,2.43-5.16,0-7.34-.64-8.72-2.61h0Z"/>
      <path id="path1154" class="cls-6" d="m389.22,464.93V72.69h8.46v392.24l1.12,392.97-5.33.18-4.87-.18.62-392.97Z"/>
      <path id="path1156" class="cls-8" d="m409.9,273.33v-38.63h3.04c1.74,0,3.59.89,4.32,2.08,1.74,2.82,1.74,70.29,0,73.11-.73,1.19-2.58,2.08-4.32,2.08h-3.04v-38.63Z"/>
      <path id="path1158" class="cls-8" d="m409.9,676.16v-38.66h3.04c1.75,0,3.59.89,4.32,2.08,1.74,2.83,1.74,70.35,0,73.17-.73,1.19-2.58,2.08-4.32,2.08h-3.04v-38.66Z"/>
    </g>
    <g id="g315">
      <g id="g64" class="cls-15">
        <path id="path36" class="cls-22" d="m718.61,233.9v79.5h-4.2c-3.3,0-6-2.7-6-6v-67.6c0-3.3,2.7-6,6-6h4.2v.1Z"/>
        <path id="path38" class="cls-22" d="m718.61,636.6v79.5h-4.2c-3.3,0-6-2.7-6-6v-67.6c0-3.3,2.7-6,6-6h4.2v.1Z"/>
        <path id="path40" class="cls-22" d="m1049.71,134.9l-3.4,3.4c-33.2-78-109.8-128.7-194.7-128.7h-54.2v-2.6c0-3.3,2.7-6,6-6h51.2c84.8,0,161.7,49.8,196.4,127.2,1,2.3.5,4.9-1.3,6.7h0Z"/>
        <path id="path42" class="cls-22" d="m800.21,94.5v-11.7c0-1.6-1.3-3-3-3h-11.7c-1.6,0-3,1.3-3,3h0v11.7c0,1.6-1.3,3-3,3h-11.7c-1.6,0-3,1.3-3,3h0v11.7c0,1.6,1.3,3,3,3h11.7c1.6,0,3,1.3,3,3h0v11.7c0,1.6,1.3,3,3,3h11.7c1.6,0,3-1.3,3-3h0v-11.7c0-1.6,1.3-3,3-3h11.7c1.6,0,3-1.3,3-3h0v-11.7c0-1.6-1.3-3-3-3h-11.7c-1.7,0-3-1.4-3-3h0Z"/>
        <circle id="circle44" class="cls-22" cx="889.61" cy="333.9" r="37.5"/>
        <circle id="circle46" class="cls-22" cx="889.61" cy="187.1" r="37.5"/>
        <circle id="circle48" class="cls-22" cx="963.01" cy="260.5" r="37.5"/>
        <circle id="circle50" class="cls-22" cx="816.21" cy="260.5" r="37.5"/>
        <circle id="circle52" class="cls-22" cx="835.71" cy="721.3" r="27.9"/>
        <path id="path54" class="cls-22" d="m886.31,460.3v12.3c0,3-2.2,5.5-5.2,5.9-25.2,3.7-45,23.5-48.7,48.7-.4,2.9-2.9,5.1-5.9,5.2h-12.3c1.7-39.1,33-70.4,72.1-72.1h0Z"/>
        <path id="path56" class="cls-22" d="m886.31,598.8v12.3c-39.1-1.7-70.3-33-72.1-72h12.3c3,0,5.5,2.2,5.9,5.2,3.7,25.2,23.5,45,48.7,48.7,3,.3,5.2,2.8,5.2,5.8h0Z"/>
        <path id="path58" class="cls-22" d="m965.01,539c-1.7,39.1-33,70.3-72.1,72v-12.3c0-3,2.2-5.5,5.2-5.9,25.2-3.7,45-23.5,48.7-48.7.4-2.9,2.9-5.1,5.9-5.2l12.3.1Z"/>
        <path id="path60" class="cls-22" d="m965.01,532.4h-12.3c-3,0-5.5-2.2-5.9-5.2-3.7-25.2-23.5-45-48.7-48.7-2.9-.4-5.1-2.9-5.2-5.9v-12.3c39.1,1.7,70.4,33,72.1,72.1h0Z"/>
        <path id="path62" class="cls-22" d="m965.11,535.7c0,1.1,0,2.2-.1,3.3h-12.3c-3,0-5.5,2.2-5.9,5.2-3.7,25.2-23.5,45-48.7,48.7-2.9.4-5.1,2.9-5.2,5.9v12.3c-1.1.1-2.2.1-3.3.1s-2.2,0-3.3-.1v-12.3c0-3-2.2-5.5-5.2-5.9-25.2-3.7-45-23.5-48.7-48.7-.4-2.9-2.9-5.1-5.9-5.2h-12.3c-.1-1.1-.1-2.2-.1-3.3s0-2.2.1-3.3h12.3c3,0,5.5-2.2,5.9-5.2,3.7-25.2,23.5-45,48.7-48.7,2.9-.4,5.1-2.9,5.2-5.9v-12.3c1.1-.1,2.2-.1,3.3-.1s2.2,0,3.3.1v12.3c0,3,2.2,5.5,5.2,5.9,25.2,3.7,45,23.5,48.7,48.7.4,2.9,2.9,5.1,5.9,5.2h12.3c0,1.1.1,2.2.1,3.3h0Z"/>
      </g>
      <path id="path72" class="cls-21" d="m722.31,906.6h-7.9c-3.6,0-6.4-2.9-6.5-6.5v-157.2c0-4.9,1.2-9.6,3.4-13.9l6.7-13v-79.2l-6.7-13c-2.2-4.3-3.4-9.1-3.4-14v-269.7c0-4.9,1.2-9.6,3.4-13.9l6.7-13v-79.2l-6.7-13c-2.2-4.3-3.4-9.1-3.4-14V71.2c0-3.6,2.9-6.4,6.5-6.5h7.9c3.6,0,6.4,2.9,6.5,6.5,1.06,276.3,1.22,552.6,0,828.9-.1,3.6-3,6.5-6.5,6.5h0Zm-7.9-840.9c-3,0-5.5,2.4-5.5,5.5v135.8c0,4.7,1.1,9.3,3.3,13.5l6.8,13.1c0,.1.1.1.1.2v79.5c0,.1,0,.2-.1.2l-6.8,13.1c-2.2,4.2-3.3,8.8-3.3,13.5v269.7c0,4.7,1.1,9.3,3.3,13.5l6.8,13.1c0,.1.1.1.1.2v79.5c0,.1,0,.2-.1.2l-6.8,13.1c-2.2,4.2-3.3,8.8-3.3,13.5v157.2c0,3,2.4,5.5,5.5,5.5h7.9c3,0,5.5-2.4,5.5-5.5V71.2c0-3-2.4-5.5-5.5-5.5h-7.9Z"/>
      <path id="path74" class="cls-21" d="m739.51,858.9h-11.3c-.3,0-.5-.2-.5-.5h0l.76-786.43c0-.3.2-.5.5-.5h11.3c.3,0-.26.23-.26.53v786.4c0,.3-.2.5-.5.5Zm-9.94-1h9.44l.76-785.43h-10.3l1.01,8.75c-.58,256.11,4.51,511.75-1.09,768.3-.06,2.78.25,5.59.18,8.38h0Z"/>
      <path id="path76" class="cls-21" d="m851.4,1000.25h-106.2c-3.6,0-6.5-2.9-6.5-6.5V15.75c0-3.6,2.9-6.5,6.5-6.5h106.2c116.8,0,211.9,95.1,211.9,211.9v567.2c0,117-94.8,211.9-211.9,211.9h0ZM745.2,10.35c-3,0-5.5,2.4-5.5,5.5v978c0,3,2.4,5.5,5.5,5.5h106.2c116.3,0,210.9-94.6,210.9-210.9V221.15c0-116.3-94.6-210.9-210.9-210.9l-106.2.1Z"/>
      <path id="path128" class="cls-21" d="m718.61,314.3h-4.2c-3.8,0-6.9-3.1-7-7v-67.6c0-3.8,3.1-6.9,7-7h4.2c.6,0,1,.4,1,1h0v79.5c0,.7-.5,1.1-1,1.1h0Zm-4.2-79.5c-2.7,0-5,2.2-5,5v67.6c0,2.7,2.2,5,5,5h3.2v-77.5h-3.2v-.1Z"/>
      <path id="path130" class="cls-21" d="m718.61,717.1h-4.2c-3.8,0-6.9-3.1-7-7v-67.6c0-3.8,3.1-6.9,7-7h4.2c.6,0,1,.4,1,1h0v79.5c0,.6-.5,1.1-1,1.1h0Zm-4.2-79.5c-2.7,0-5,2.2-5,5v67.6c0,2.7,2.2,5,5,5h3.2v-77.5h-3.2v-.1Z"/>
      <path id="path1240" class="cls-24" d="m869.48,998.68c26.62-2.36,50.5-9.2,75.95-21.77,5.09-2.51,10.04-5.2,14.86-8.05,19.1-11.32,36.27-27.08,49.6-41.74,25.49-28.03,45.46-70.08,51.38-116.52.08-.66.4-4.27.37-6.75-.06-6.86.65-20,.8-38.34.66-77.55,1.09-244.04,1.07-376.44-.02-101.2-.31-182.49-.97-188.91-2.69-26.09-9.3-49.06-20.77-72.14-31.76-63.91-92.95-107.44-164-116.67-11.36-1.48-60.7-1.65-96.6-1.33-7.74.07-14.07-.08-20.14.06-7.47.17-12.9-.07-16.2.25-1.73.17-3.03.79-3.23.99-.1.1-1.42,1.38-1.53,3.35-.29,5.17-.26,17.11-.44,38.05-.04,4.23-.07,8.83-.11,13.82-.03,4.93.13,10.12.1,15.82-.05,8.77.12,18.56.07,29.25-.05,9.81-.25,20.5,0,32.02.19,8.97.2,18.38.16,28.44-.07,15.1.59,31.15.32,48.97-.22,14.98.12,29.99-.04,46.92-.1,11.08.08,22.62-.02,34.61-.06,7.2,0,14.54-.08,22.07-.5,52.11-.02,112.21-.02,180.33,0,254.31-.32,376.1-.05,435.15.03,7.67-.2,14.45-.13,20.15.03,2.2-.04,4.3-.02,6.23.04,3.32-.03,6.64.01,9.26.05,2.93-.07,5.8,0,7.96.14,4.99.1,8.1.27,10.04.26,2.84,1.26,3.58,1.56,3.83.22.18,1.3.93,3.08,1.09,4.53.41,14.56.35,27.09.23,9.86-.1,21.28-.23,32.8-.21,32.13.06,65.23.25,64.87,0h0Z"/>
      <path id="path78" class="cls-21" d="m835.71,763.2c-23.1,0-41.9-18.7-41.9-41.9s18.7-41.9,41.9-41.9,41.9,18.7,41.9,41.9h0c-.1,23.1-18.8,41.8-41.9,41.9Zm0-82.8c-22.6,0-40.9,18.3-40.9,40.9s18.3,40.9,40.9,40.9,40.9-18.3,40.9-40.9h0c-.1-22.6-18.3-40.9-40.9-40.9Z"/>
      <path id="path88" class="cls-23" d="m902.91,203.2h-5.5l-7.64-10.92-7.96,10.92h-5.4l10.6-16.3-9.8-15.6h5.2l7.44,10.56,7.26-10.56h5l-9.8,15.4,10.6,16.5Z"/>
      <path id="path90" class="cls-23" d="m829.91,244.5l-11.6,20.6v11.4h-4.4v-11.5l-11.6-20.5h5.3l6.4,11.7,2.08,2.99,2.42-2.59,6.4-12.1h5Z"/>
      <path id="path92" class="cls-23" d="m976.61,276.5h-4.7l-2.2-7-12.36.33-3.24,6.67h-4.5l9.93-35.2,6.67,3.2,10.4,32Zm-8.73-11.27l-4.88-14.59-4.59,14.81,9.47-.22Z"/>
      <path id="path132" class="cls-21" d="m1046.31,139.3h-.2c-.3-.1-.6-.3-.7-.6-33-77.7-109.3-128.2-193.8-128.1h-54.2c-.6,0-1-.4-1-1h0v-2.6c0-3.8,3.1-6.9,7-7h51.2c85.2.1,162.4,50.1,197.3,127.8,1.2,2.6.6,5.7-1.5,7.8l-3.4,3.4c-.2.2-.5.3-.7.3ZM798.41,8.6h53.2c84.7-.1,161.3,50.2,195,128l2.4-2.4h0c1.5-1.4,1.9-3.6,1.1-5.5C1015.51,51.7,939.01,2.1,854.61,2h-51.2c-2.7,0-5,2.2-5,5v1.6Z"/>
      <path id="path134" class="cls-21" d="m797.21,133.7h-11.7c-2.2,0-4-1.8-4-4v-11.7c0-1.1-.9-2-2-2h-11.7c-2.2,0-4-1.8-4-4v-11.7c0-2.2,1.8-4,4-4h11.7c1.1,0,2-.9,2-2v-11.5c0-2.2,1.8-4,4-4h11.7c2.2,0,4,1.8,4,4v11.7c0,1.1.9,2,2,2h11.7c2.2,0,4,1.8,4,4v11.7c0,2.2-1.8,4-4,4h-11.7c-1.1,0-2,.9-2,2v11.7c0,2-1.8,3.8-4,3.8Zm-29.3-35.2c-1.1,0-2,.9-2,2v11.7c0,1.1.9,2,2,2h11.7c2.2,0,4,1.8,4,4v11.7c0,1.1.9,2,2,2h11.7c1.1,0,2-.9,2-2v-11.7c0-2.2,1.8-4,4-4h11.7c1.1,0,2-.9,2-2v-11.7c0-1.1-.9-2-2-2h-11.7c-2.2,0-4-1.8-4-4v-11.7c0-1.1-.9-2-2-2h-11.7c-1.1,0-2,.9-2,2v11.7c0,2.2-1.8,4-4,4h-11.7Z"/>
      <path id="path136" class="cls-21" d="m889.61,372.4c-21.2,0-38.5-17.2-38.5-38.5s17.2-38.5,38.5-38.5,38.5,17.2,38.5,38.5c-.1,21.3-17.3,38.5-38.5,38.5Zm0-74.9c-20.1,0-36.5,16.3-36.5,36.5s16.3,36.5,36.5,36.5,36.5-16.3,36.5-36.5c-.1-20.2-16.4-36.5-36.5-36.5Z"/>
      <path id="path138" class="cls-21" d="m889.61,225.5c-21.2,0-38.5-17.2-38.5-38.5s17.2-38.5,38.5-38.5,38.5,17.2,38.5,38.5c-.1,21.3-17.3,38.5-38.5,38.5Zm0-74.9c-20.1,0-36.5,16.3-36.5,36.5s16.3,36.5,36.5,36.5,36.5-16.3,36.5-36.5c-.1-20.2-16.4-36.5-36.5-36.5Z"/>
      <path id="path140" class="cls-21" d="m963.01,299c-21.2,0-38.5-17.2-38.5-38.5s17.2-38.5,38.5-38.5,38.5,17.2,38.5,38.5-17.2,38.4-38.5,38.5Zm0-75c-20.1,0-36.5,16.3-36.5,36.5s16.3,36.5,36.5,36.5,36.5-16.3,36.5-36.5-16.3-36.5-36.5-36.5Z"/>
      <path id="path142" class="cls-21" d="m816.21,299c-21.2,0-38.5-17.2-38.5-38.5s17.2-38.5,38.5-38.5,38.5,17.2,38.5,38.5c-.1,21.2-17.3,38.4-38.5,38.5Zm0-75c-20.1,0-36.5,16.3-36.5,36.5s16.21,36.2,36.41,36.2,36.59-16,36.59-36.2c-.1-20.1-16.4-36.5-36.5-36.5Z"/>
      <path id="path144" class="cls-21" d="m835.71,750.2c-16,0-28.9-13-28.9-28.9s13-28.9,28.9-28.9,28.9,13,28.9,28.9h0c0,16-12.9,28.9-28.9,28.9Zm0-55.9c-14.9,0-26.9,12.1-26.9,26.9s12.1,26.9,26.9,26.9,26.9-12.1,26.9-26.9-12-26.8-26.9-26.9Z"/>
      <path id="path146" class="cls-21" d="m826.51,533.4h-12.3c-.6,0-1-.4-1-1h0c1.7-39.6,33.4-71.3,73-73,.3,0,.5.1.7.3.2.2.3.4.3.7v12.3c0,3.5-2.6,6.4-6,6.9-24.7,3.7-44.2,23.1-47.9,47.9-.4,3.3-3.3,5.9-6.8,5.9Zm-11.2-2h11.2c2.5,0,4.6-1.8,4.9-4.3,3.9-25.6,24-45.7,49.6-49.6,2.5-.3,4.3-2.4,4.3-4.9v-11.2c-37.4,2.1-67.9,32.6-70,70Z"/>
      <path id="path148" class="cls-21" d="m886.31,612.1s-.1,0,0,0c-39.6-1.7-71.3-33.4-73-73,0-.6.4-1,1-1h12.3c3.5,0,6.4,2.6,6.9,6,3.7,24.7,23.1,44.2,47.9,47.9,3.4.5,6,3.4,6,6.9v12.3c-.1.4-.6.9-1.1.9h0Zm-71-72.1c2.2,37.4,32.6,67.8,70,70v-11.2c0-2.5-1.8-4.6-4.3-4.9-25.6-3.9-45.7-24-49.6-49.6-.3-2.5-2.4-4.3-4.9-4.3h-11.2Z"/>
      <path id="path150" class="cls-21" d="m892.91,612.1c-.6,0-1-.4-1-1h0v-12.3c0-3.5,2.6-6.4,6-6.9,24.7-3.7,44.2-23.1,47.9-47.9.5-3.4,3.4-6,6.9-6h12.3c.6,0,1,.4,1,1h0c-1.8,39.7-33.4,71.3-73.1,73.1q.1,0,0,0h0Zm59.8-72.1c-2.5,0-4.6,1.8-4.9,4.3-3.9,25.6-24,45.7-49.6,49.6-2.5.3-4.3,2.4-4.3,4.9v11.2c37.4-2.2,67.8-32.6,70-70h-11.2Z"/>
      <path id="path152" class="cls-21" d="m965.01,533.4h-12.3c-3.5,0-6.4-2.6-6.9-6-3.7-24.7-23.1-44.2-47.9-47.9-3.4-.5-6-3.4-6-6.9v-12.3c0-.3.1-.5.3-.7s.5-.3.7-.3c39.6,1.7,71.3,33.4,73,73,.1.6-.3,1-.9,1.1h0Zm-71.1-72v11.2c0,2.5,1.8,4.6,4.3,4.9,25.6,3.9,45.7,24,49.6,49.6.3,2.5,2.4,4.3,4.9,4.3h11.2c-2.1-37.4-32.6-67.9-70-70Z"/>
      <path id="path154" class="cls-21" d="m889.61,612.2c-1.2,0-2.3,0-3.4-.1-.5,0-.9-.5-.9-1v-12.3c0-2.5-1.8-4.6-4.3-4.9-25.6-3.9-45.7-24-49.6-49.6-.3-2.5-2.4-4.3-4.9-4.3h-12.3c-.5,0-1-.4-1-.9-.1-1.1-.1-2.2-.1-3.4s0-2.3.1-3.4c0-.5.5-.9,1-.9h12.3c2.5,0,4.6-1.8,4.9-4.3,3.9-25.6,24-45.7,49.6-49.6,2.5-.3,4.3-2.4,4.3-4.9v-12.3c0-.5.4-1,.9-1,2.3-.1,4.5-.1,6.8,0,.5,0,.9.5.9,1v12.3c0,2.5,1.8,4.6,4.3,4.9,25.6,3.9,45.7,24,49.6,49.6.3,2.5,2.4,4.3,4.9,4.3h12.3c.5,0,1,.4,1,.9.1,1.1.1,2.2.1,3.4s0,2.3-.1,3.4c0,.5-.5.9-1,.9h-12.3c-2.5,0-4.6,1.8-4.9,4.3-3.9,25.6-24,45.7-49.6,49.6-2.5.3-4.3,2.4-4.3,4.9v12.3c0,.5-.4,1-.9,1-1.1,0-2.2.1-3.4.1h0Zm-2.3-2.1c1.5.1,3.1.1,4.7,0v-11.3c0-3.5,2.6-6.4,6-6.9,24.7-3.7,44.2-23.1,47.9-47.9.5-3.4,3.4-6,6.9-6h11.3v-4.6h-11.4c-3.5,0-6.4-2.6-6.9-6-3.7-24.7-23.1-44.2-47.9-47.9-3.4-.5-6-3.4-6-6.9v-11.3c-1.5-.1-3.1-.1-4.7,0v11.3c0,3.5-2.6,6.4-6,6.9-24.7,3.7-44.2,23.1-47.9,47.9-.5,3.4-3.4,6-6.9,6h-11.3v4.6h11.3c3.5,0,6.4,2.6,6.9,6,3.7,24.7,23.1,44.2,47.9,47.9,3.4.5,6,3.4,6,6.9v11.3h.1Z"/>
      <path id="path1462" class="cls-6" d="m806.99,295.46c-6.33-1.66-11.32-3.9-16.5-9.07-7.72-7.71-11.29-16.95-10.84-27.7.56-13.5,8.03-25.03,20.03-30.96,10.51-5.19,22.55-5.3,32.66-.27,7.94,3.95,12.83,10.03,16.63,17.97,5.19,10.85,4.25,24.4-2.4,34.58-5,7.65-13.49,13.7-22.04,15.69-4.82,1.13-12.72,1.01-17.55-.25h0Z"/>
      <path id="path1464" class="cls-6" d="m883.42,222.87c0-.32-3.68-.85-5.68-1.6-2.95-1.11-5.89-2.63-7.96-4.02-6.91-4.62-11.71-10.88-14.54-18.94-1.35-3.84-2.06-5.2-2.06-11.45s.71-7.18,2.06-11.02c3.88-11.06,11.8-19.06,22.77-22.97,4.25-1.52,5.15-2.29,11.56-2.29s7.33.77,11.58,2.29c14.52,5.18,24.02,17.63,24.67,32.87.45,10.59-2.74,19.5-10.19,26.91-7.56,7.53-14.42,10.7-24.63,10.99-3.39.09-6.85-.62-7.58-.76h0Z"/>
      <path id="path1466" class="cls-6" d="m955.65,296.45c-6.7-1-15.59-5.79-20.81-12.87-3.03-4.11-6.22-10.67-7.27-15.67-2.76-13.24,2.64-27.86,13.27-35.91,19.99-15.15,48.09-6.69,56.44,17,1.86,5.28,2.98,13.31,1.68,19.17-1.51,6.78-4.87,12.86-10.19,18.16-5.27,5.24-9.89,7.95-16.43,9.62-4.86,1.24-12.03,1.2-16.69.51h0Z"/>
      <path id="path1468" class="cls-6" d="m884.42,369.86c-8.12-1.28-14.24-3.96-20.57-10.26-3.76-3.74-5.37-6.19-7.19-9.96-7.6-15.75-2.96-33.08,10.78-44.1,6.36-5.1,13.62-7.59,22.14-7.59,29.93,0,46.68,33.84,28.71,58.01-2.8,3.76-6.28,7.45-10.51,9.84-7.04,3.97-15.7,5.27-23.35,4.07h0Z"/>
      <path id="path1500" class="cls-20" d="m887.64,602.65c-.29-8.93-.83-9.73-10.13-11.86-21.07-4.84-37.2-20.14-42.61-41.35-.55-2.16-1.09-5.2-1.09-5.88s-1.01-2.25-2.24-3.48l-2.35-1.95-6.86-.29h-6.97v-3.95h5.94c6.6,0,9.94-1,11.2-3.37.44-.83,1.5-3.94,2-6.97,2.68-16.31,14.91-30.69,29.48-37.96,4.72-2.36,11.37-4.65,15.51-5.36,6.62-1.13,8.22-3.62,8.22-12.75v-5.94h3.95v6.9c0,6.62.07,6.97,1.81,8.83,1.46,1.56,3.91,1.7,9.49,3.07,20.41,4.97,35.28,20.46,40.72,40.15.79,2.86,1.76,6.37,2.17,7.81,1.23,4.35,3.85,5.61,11.69,5.61h6.48v3.95h-6.61c-6.96,0-9.89.84-10.81,3.1-.26.65-1.27,4.61-2.14,8.03-5.39,21.4-21.28,36.72-42.14,41.53-9.95,2.3-10.66,3.15-10.66,12.75v6.28h-3.83l-.22-6.89Z"/>
      <path id="path1504" class="cls-18" d="m816.17,526.5c1.75-15.27,8.92-31.23,20.42-42.95,11.95-12.19,27.52-19.18,45.72-21.64l2.8-.38v6.18c0,7.93-.12,8.87-6.84,10.24-22.3,4.57-41.81,22.09-46.1,44.19-1.76,9.07-2.36,9.12-11.11,9.12h-5.43l.55-4.77Z"/>
      <path id="path1506" class="cls-18" d="m875.24,608.25c-32.22-6.91-55.74-32.91-59.39-65.64l-.24-2.14h6.36c6.89,0,6.85.02,7.75,1.02,1.27,1.42,1.51,3.83,2.43,7.9,4.79,21.22,24.19,39.14,46.59,43.98,6.9,1.49,6.37,2.73,6.37,10.29v5.88l-2.14-.05c-1.18-.03-4.65-.59-7.73-1.25h0Z"/>
      <path id="path1508" class="cls-18" d="m894.05,603.05c-.29-7.26.98-8.25,5.33-9,4.85-.83,11.11-2.92,16.32-5.45,15.8-7.67,27.12-21.99,31.56-39.91.98-3.95,1.57-7.24,2.25-7.74.72-.52,3.9-.49,7.85-.49h6.21l-.43,3.78c-3.79,33.2-31.78,61.26-64.83,65l-3.99.45-.27-6.66Z"/>
      <path id="path1510" class="cls-18" d="m949.37,529.84c-1.18-1.07-1.31-2.96-2.11-6.73-4.38-20.46-18.96-36.62-39.29-43.54-2.44-.83-5.82-1.72-7.52-1.97-1.88-.28-3.86-.56-4.78-1.49-1.38-1.38-1.35-2.61-1.35-8.25v-6.24l2.47.33c19,2.55,32.68,9.21,45.44,22.12,10.43,10.55,17.44,23.81,20.16,38.15.55,2.88.99,6.1.99,7.14v1.9h-5.88c-5.18,0-6.7-.12-8.13-1.42h0Z"/>
      <path id="path1512" class="cls-10" d="m784.33,131.03c-.53-.59-.62-1.7-.62-7.55v-6.86l-1.1-1.23-1.1-1.23-7.11-.11c-4.07-.06-6.48.46-7.57-.16-1.35-.77-.86-3.07-.86-7.63s.13-6.29.54-6.85c.49-.67,1.1-.74,7.27-.83,3.7-.05,7.12-.19,7.6-.29.47-.11,1.2-.74,1.6-1.41.66-1.09.74-1.92.74-7.76,0-3.78.17-6.85.39-7.27.36-.68.86-.73,7.35-.73s6.99.05,7.35.73c.23.42.39,3.49.39,7.27,0,5.83.08,6.67.74,7.76.41.67,1.13,1.3,1.6,1.41s3.89.24,7.6.29c6.17.09,6.78.16,7.27.83.41.56.54,2.17.54,6.85s.74,7.19-.88,7.88c-1.16.49-3.77-.14-7.55-.09l-7.11.11-1.1,1.23-1.1,1.23v6.92c0,6.23-.07,6.98-.69,7.55-.59.53-1.67.63-7.12.63-5.75,0-6.49-.07-7.05-.69h0Z"/>
      <path id="path1514" class="cls-19" d="m830.61,726.44v-5.26h10.51v10.51h-10.51v-5.26Z"/>
      <path id="path1518" class="cls-18" d="m830.04,761.61c-14.85-2.34-27.22-12.34-32.44-26.23-7.52-20.03,2.33-43.03,22.03-51.41,6.07-2.58,7.96-3.52,15.7-3.49,6.51.03,7.91.6,11.26,1.62,14.44,4.39,24.64,14.87,28.59,29.4.79,2.9,1.11,5.24,1.1,10.74,0,5.45-.34,6.15-1.11,9.05-4.75,17.69-20.04,29.95-38.08,30.54-2.56.08-5.73-.02-7.04-.22h0Zm12.02-11.95c11.94-2.63,21.27-13.05,22.49-25.12,2.18-21.54-18.13-37.7-38.52-30.66-4.18,1.44-6.99,3.29-10.82,7.09-2.82,2.8-3.82,4.14-5.33,7.15-2.56,5.11-3.3,8.69-3.02,14.63.32,6.81,2.16,11.73,6.31,16.89,6.76,8.39,18.23,12.37,28.89,10.02h0Z"/>
      <path id="path1520" class="cls-5" d="m712.19,714.31c-1.33-.81-2.29-.92-2.47-5.31-.18-4.34.06-13.49.06-32.63,0-32.81-.47-35.2.63-36.26.07-.06.1-.15.16-.22,1.14-1.45,2.69-2.13,4.87-2.13h1.91v77.27h-1.99c-1.29,0-2.41-.26-3.18-.73h0Z"/>
      <path id="path1522" class="cls-5" d="m713.59,312.11c-.51-.1-1.32-.44-1.82-.76-.78-.51-1.54-.77-1.83-2.7-.48-3.23-.17-11.38-.17-35.1,0-19.26-.52-28.35-.38-32.53.09-2.73.78-3.23,1-3.61.93-1.58,2.43-2.29,4.84-2.29h2.12v77.27l-1.42-.05c-.78-.03-1.83-.13-2.34-.22h0Z"/>
      <path id="path1524" class="cls-17" d="m1042.03,126.45c-10.09-20.55-21.9-37.24-38.16-53.89-34.82-35.67-78.67-57.01-129.65-63.08-5.06-.6-13.08-.79-40.92-.97l-34.63-.22v-1.41c0-.98.01-2.97,1.4-3.67l2.12-1.13,30.38.22c16.93.13,33.55.22,37,.48,50.75,3.92,97.06,24.58,133.31,59.47,17.58,16.92,31.48,35.74,42.78,57.91,4.28,8.41,4.88,10.06,4.25,11.78-.42,1.15-2.66,4.17-3.18,4.13-.14-.01-2.25-4.58-4.73-9.63h0Z"/>
      <path id="path1530" class="cls-6" d="m710.79,903.77c-.56-.55-1.71-1.18-1.56-5.04.26-6.7-.22-27.16-.14-79.12l.3-82.56,2.57-6.45,7.9-15.05.1-39.43-.37-39.62-7.11-13.23-2.91-7.69-.38-7.29.09-48.03-.1-22.13.1-34.13.06-10.48v-10.49s-.06-8.6-.06-8.6l.02-25.57v-19.35s-.15-27.48-.15-27.48l.07-21.59-.02-11.01.1-19.61-.05-10.23.55-5.68,1.92-5.79,2.96-5.52,5.29-9.82v-39.48l-.37-39.58-5.28-9.75-2.68-5.33-1.82-5.14-.74-7.6.24-13.32-.12-12.25v-11.08s-.05-10.85-.05-10.85l.03-9.87v-6.54s.03-2.9.03-2.9l.07-17.39.03-21.51v-10.81s-.06-8.44-.06-8.44l.02-5.13-.22-5.94,2.2-3.06,3.16-1.1,3.22.06c1.42.03,2.73.06,3.94.24.86.13,1.84.13,2.59.4.99.36,1.68,1.02,2.04,1.32.21.17,1.21,1.72,1.33,4.75.08,2.06-.02,4.68-.01,8.33.01,4.09.08,9.69.04,16.36-.07,10.01-.02,23.12-.08,40.38-.05,13.18.2,28.67.14,46.99-.18,62.77-.25,157.99-.24,300.98l.03,416.25-1.26,1.82c-1.8,2.6-12.61,2.9-15.35.21h0Z"/>
      <path id="path1532" class="cls-6" d="m729.83,465.09V72.72h8.62v784.74h-8.62v-392.37Z"/>
      <ellipse id="path3879" class="cls-2" cx="835.6" cy="721.07" rx="40.27" ry="40.27"/>
      <ellipse id="path3881" class="cls-3" cx="835.66" cy="721.39" rx="34.06" ry="34.49"/>
      <path id="path96" class="cls-21" d="m835.71,694.3l-26.77,26.42h7.65v22.53h38.52v-22.53h7.24l-26.63-26.42Zm7.79,40.9h-15.16v-14.48h15.16v14.48Z"/>
    </g>
  </g>
</svg>