<?xml version="1.0" encoding="UTF-8" standalone="no"?>
<svg
   xmlns:dc="http://purl.org/dc/elements/1.1/"
   xmlns:cc="http://creativecommons.org/ns#"
   xmlns:rdf="http://www.w3.org/1999/02/22-rdf-syntax-ns#"
   xmlns:svg="http://www.w3.org/2000/svg"
   xmlns="http://www.w3.org/2000/svg"
   xmlns:sodipodi="http://sodipodi.sourceforge.net/DTD/sodipodi-0.dtd"
   xmlns:inkscape="http://www.inkscape.org/namespaces/inkscape"
   version="1.1"
   id="Layer_1"
   x="0px"
   y="0px"
   viewBox="0 0 1000.8 1000"
   style="enable-background:new 0 0 1000.8 1000;"
   xml:space="preserve"
   sodipodi:docname="Controller_JoyConLeft.svg"
   inkscape:version="1.0.1 (3bc2e813f5, 2020-09-07)"><metadata
   id="metadata85"><rdf:RDF><cc:Work
       rdf:about=""><dc:format>image/svg+xml</dc:format><dc:type
         rdf:resource="http://purl.org/dc/dcmitype/StillImage" /><dc:title /></cc:Work></rdf:RDF></metadata><defs
   id="defs83" /><sodipodi:namedview
   pagecolor="#ffffff"
   bordercolor="#666666"
   borderopacity="1"
   objecttolerance="10"
   gridtolerance="10"
   guidetolerance="10"
   inkscape:pageopacity="0"
   inkscape:pageshadow="2"
   inkscape:window-width="960"
   inkscape:window-height="1003"
   id="namedview81"
   showgrid="false"
   inkscape:zoom="0.66711859"
   inkscape:cx="290.89733"
   inkscape:cy="450.89454"
   inkscape:window-x="1400"
   inkscape:window-y="0"
   inkscape:window-maximized="0"
   inkscape:current-layer="Layer_1"
   inkscape:document-rotation="0" />
<style
   type="text/css"
   id="style2">
	.st0{opacity:0.1;}
	.st1{fill:#02C5E5;}
	.st2{fill:#FFFFFF;}
</style>























<style
   type="text/css"
   id="style2-6">
	.st0{opacity:0.1;}
	.st1{fill:#02C5E5;}
	.st2{fill:#FF5F55;}
	.st3{fill:#FFFFFF;}
</style><g
   id="g344"><path
     class="st3"
     d="m 413.1,906.6 h -7.9 c -3.6,0 -6.4,-2.9 -6.5,-6.5 V 71.2 c 0,-3.6 2.9,-6.4 6.5,-6.5 h 7.9 c 3.6,0 6.4,2.9 6.5,6.5 V 207 c 0,4.9 -1.2,9.6 -3.4,14 l -6.7,13 v 79.2 l 6.7,13 c 2.2,4.3 3.4,9.1 3.4,13.9 v 269.7 c 0,4.9 -1.2,9.6 -3.4,14 l -6.7,13 V 716 l 6.7,13 c 2.2,4.3 3.4,9.1 3.4,13.9 v 157.2 c 0,3.6 -2.9,6.5 -6.5,6.5 z M 405.2,65.7 c -3,0 -5.5,2.4 -5.5,5.5 v 828.9 c 0,3 2.4,5.5 5.5,5.5 h 7.9 c 3,0 5.5,-2.4 5.5,-5.5 V 742.9 c 0,-4.7 -1.1,-9.3 -3.3,-13.5 l -6.8,-13.1 c 0,-0.1 -0.1,-0.2 -0.1,-0.2 v -79.5 c 0,-0.1 0,-0.2 0.1,-0.2 l 6.8,-13.1 c 2.2,-4.2 3.3,-8.8 3.3,-13.5 V 340.1 c 0,-4.7 -1.1,-9.3 -3.3,-13.5 l -6.8,-13.1 c 0,-0.1 -0.1,-0.2 -0.1,-0.2 v -79.5 c 0,-0.1 0,-0.2 0.1,-0.2 l 6.8,-13.1 c 2.2,-4.2 3.3,-8.8 3.3,-13.5 V 71.2 c 0,-3 -2.4,-5.5 -5.5,-5.5 z"
     id="path66-7"
     style="fill:#000000" /><path
     class="st3"
     d="m 399.3,858.9 h -11.2 c -0.3,0 -0.5,-0.2 -0.5,-0.5 V 72 c 0,-0.3 0.2,-0.5 0.5,-0.5 h 11.2 c 0.3,0 0.5,0.2 0.5,0.5 v 786.4 c 0,0.3 -0.2,0.5 -0.5,0.5 z m -10.7,-1 h 10.2 V 72.5 h -10.2 z"
     id="path68-5"
     style="fill:#000000" /><path
     class="st3"
     d="M 382.1,1000 H 275.9 C 158.9,1000 64,905.2 64,788.1 c 0,0 0,0 0,0 V 220.9 C 64,104.1 159.1,9.1 275.9,9.1 h 106.2 c 3.6,0 6.5,2.9 6.5,6.5 v 978 c 0,3.5 -2.9,6.4 -6.5,6.4 z M 275.9,10.1 C 159.6,10.1 65,104.7 65,220.9 V 788.1 C 65,904.4 159.6,999 275.9,999 h 106.2 c 3,0 5.5,-2.4 5.5,-5.5 v -978 c 0,-3 -2.4,-5.5 -5.5,-5.5 H 275.9 Z"
     id="path70-3"
     style="fill:#000000" /><path
     class="st1"
     d="m 413.1,717.1 h -4.2 c -0.6,0 -1,-0.4 -1,-1 0,0 0,0 0,0 v -79.5 c 0,-0.6 0.4,-1 1,-1 0,0 0,0 0,0 h 4.2 c 3.8,0 6.9,3.1 7,7 v 67.6 c 0,3.8 -3.1,6.9 -7,6.9 z m -3.2,-2 h 3.2 c 2.7,0 5,-2.2 5,-5 v -67.6 c 0,-2.7 -2.2,-5 -5,-5 h -3.2 z"
     id="path98"
     style="fill:#000000" /><path
     class="st1"
     d="m 413.1,314.3 h -4.2 c -0.6,0 -1,-0.4 -1,-1 v -79.5 c 0,-0.6 0.4,-1 1,-1 h 4.2 c 3.8,0 6.9,3.1 7,7 v 67.6 c 0,3.8 -3.1,6.9 -7,6.9 z m -3.2,-2 h 3.2 c 2.7,0 5,-2.2 5,-5 v -67.6 c 0,-2.7 -2.2,-5 -5,-5 h -3.2 z"
     id="path100"
     style="fill:#000000" /><path
     style="fill:#01c6e6;fill-opacity:0.992157;stroke:#4d4d4d;stroke-width:1"
     d="m 257.47599,997.49473 c -26.30234,-2.3493 -49.90186,-9.17738 -75.04426,-21.71262 C 117.17154,943.24531 74.755874,881.82088 66.727355,808.2243 64.943441,791.87136 64.94041,218.41588 66.724145,200.93415 69.379611,174.90893 75.914592,151.99608 87.247373,128.97592 118.63505,65.218492 179.0982,21.796519 249.3051,12.593199 c 18.18131,-2.383363 133.61873,-2.6919419 135.94726,-0.363405 1.12672,1.12671 1.45478,112.251076 1.45478,492.764216 0,484.50248 -0.0325,491.32681 -2.34493,492.5644 -2.80172,1.49943 -109.98822,1.44564 -126.88622,-0.0636 z"
     id="path1144" /><polygon
     class="st1"
     points="237.9,448.9 225.8,469.9 250,469.9 "
     id="polygon80"
     style="fill:#333333;stroke:#4d4d4d;stroke-width:0.927894"
     transform="matrix(1.1037134,0,0,1.0523169,-24.636066,-24.267048)" /><polygon
     class="st1"
     points="250,605.9 237.9,626.9 225.8,605.9 "
     id="polygon82"
     style="fill:#333333;stroke:#4d4d4d;stroke-width:0.957418"
     transform="matrix(1.0574383,0,0,1.0316716,-13.259456,-19.457378)" /><polygon
     class="st1"
     points="169.9,525.8 148.9,537.9 169.9,550 "
     id="polygon84"
     style="fill:#333333;stroke:#4d4d4d;stroke-width:0.931439"
     transform="matrix(1.0443863,0,0,1.1036462,-7.5389156,-55.555947)" /><polygon
     class="st1"
     points="326.9,537.9 305.9,550 305.9,525.8 "
     id="polygon86"
     style="fill:#333333;stroke:#4d4d4d;stroke-width:0.849928"
     transform="matrix(1.2181479,0,0,1.1364095,-67.797686,-73.39984)" /><path
     class="st1"
     d="m 81.300444,139.3 c -0.3,0 -0.5,-0.1 -0.7,-0.3 l -3.4,-3.4 c -2,-2 -2.6,-5.1 -1.5,-7.8 C 110.50044,50.1 187.70044,0.1 272.90044,0 h 51.2 c 3.8,0 6.9,3.1 7,7 v 2.6 c 0,0.6 -0.4,1 -1,1 h -54.2 c -84.5,-0.1 -160.8,50.4 -193.699996,128.1 -0.1,0.3 -0.4,0.5 -0.7,0.6 -0.1,0 -0.2,0 -0.2,0 z M 272.90044,2 c -84.4,0.1 -160.9,49.7 -195.399996,126.7 -0.8,1.9 -0.4,4.1 1.1,5.5 l 2.4,2.4 C 114.60044,58.8 191.30044,8.5 276.00044,8.6 h 53.2 V 7 c 0,-2.7 -2.2,-5 -5,-5 z"
     id="path102"
     style="fill:#000000" /><path
     class="st1"
     d="m 359.60044,116.1 h -46.9 c -2.2,0 -4,-1.8 -4,-4 v -11.7 c 0,-2.2 1.8,-4 4,-4 h 46.9 c 2.2,0 4,1.8 4,4 v 11.7 c 0,2.2 -1.8,4 -4,4 z m -46.9,-17.6 c -1.1,0 -2,0.9 -2,2 v 11.7 c 0,1.1 0.9,2 2,2 h 46.9 c 1.1,0 2,-0.9 2,-2 v -11.7 c 0,-1.1 -0.9,-2 -2,-2 z"
     id="path104"
     style="fill:#000000" /><path
     class="st1"
     d="m 237.90044,502.9 c -21.2,0 -38.5,-17.2 -38.5,-38.5 0,-21.2 17.2,-38.5 38.5,-38.5 21.2,0 38.5,17.2 38.5,38.5 0,21.3 -17.2,38.5 -38.5,38.5 z m 0,-74.9 c -20.1,0 -36.5,16.3 -36.5,36.5 0,20.1 16.3,36.5 36.5,36.5 20.1,0 36.5,-16.3 36.5,-36.5 0,-20.2 -16.3,-36.5 -36.5,-36.5 z"
     id="path106"
     style="fill:#000000" /><path
     class="st1"
     d="m 237.90044,649.8 c -21.2,0 -38.5,-17.2 -38.5,-38.5 0,-21.3 17.2,-38.5 38.5,-38.5 21.2,0 38.5,17.2 38.5,38.5 0,21.3 -17.2,38.5 -38.5,38.5 z m 0,-74.9 c -20.1,0 -36.5,16.3 -36.5,36.5 0,20.2 16.3,36.5 36.5,36.5 20.2,0 36.5,-16.3 36.5,-36.5 0,0 0,0 0,0 0,-20.2 -16.3,-36.5 -36.5,-36.5 z"
     id="path108"
     style="fill:#000000" /><path
     class="st1"
     d="m 311.40044,576.3 c -21.2,0 -38.5,-17.2 -38.5,-38.5 0,-21.2 17.2,-38.5 38.5,-38.5 21.3,0 38.5,17.2 38.5,38.5 v 0 c -0.1,21.3 -17.3,38.5 -38.5,38.5 z m 0,-74.9 c -20.1,0 -36.5,16.3 -36.5,36.5 0,20.2 16.3,36.5 36.5,36.5 20.1,0 36.5,-16.3 36.5,-36.5 0,0 0,0 0,0 -0.1,-20.2 -16.4,-36.5 -36.5,-36.5 z"
     id="path110"
     style="fill:#000000" /><path
     class="st1"
     d="m 164.50044,576.3 c -21.2,0 -38.5,-17.2 -38.5,-38.5 0,-21.2 17.2,-38.5 38.5,-38.5 21.3,0 38.5,17.2 38.5,38.5 v 0 c -0.1,21.3 -17.3,38.5 -38.5,38.5 z m 0,-74.9 c -20.1,0 -36.5,16.3 -36.5,36.5 0,20.1 16.3,36.5 36.5,36.5 20.1,0 36.5,-16.3 36.5,-36.5 0,0 0,0 0,0 -0.1,-20.2 -16.4,-36.5 -36.5,-36.5 z"
     id="path112"
     style="fill:#000000" /><path
     class="st1"
     d="m 314.10044,753.7 h -45 c -5.5,0 -9.9,-4.4 -9.9,-9.9 v -45 c 0,-5.5 4.4,-9.9 9.9,-9.9 h 45 c 5.5,0 9.9,4.4 9.9,9.9 v 45 c 0,5.5 -4.5,9.9 -9.9,9.9 z m -45,-62.8 c -4.4,0 -7.9,3.6 -7.9,7.9 v 45 c 0,4.4 3.6,7.9 7.9,7.9 h 45 c 4.4,0 7.9,-3.6 7.9,-7.9 v -45 c 0,-4.4 -3.6,-7.9 -7.9,-7.9 z"
     id="path114"
     style="fill:#000000" /><path
     class="st1"
     d="m 291.60044,741.7 c -11.3,0 -20.4,-9.2 -20.4,-20.4 0,-11.3 9.2,-20.4 20.4,-20.4 11.3,0 20.4,9.2 20.4,20.4 0,0 0,0 0,0 0,11.3 -9.1,20.4 -20.4,20.4 z m 0,-38.9 c -10.2,0 -18.4,8.3 -18.4,18.4 0,10.1 8.3,18.4 18.4,18.4 10.2,0 18.4,-8.3 18.4,-18.4 0,-10.1 -8.2,-18.3 -18.4,-18.4 z"
     id="path116"
     style="fill:#000000" /><path
     class="st1"
     d="m 174.80044,260.2 h -12.3 c -0.6,0 -1,-0.4 -1,-1 0,0 0,0 0,0 1.7,-39.6 33.4,-71.3 73,-73 0.3,0 0.5,0.1 0.7,0.3 0.2,0.2 0.3,0.4 0.3,0.7 v 12.3 c 0,3.5 -2.6,6.4 -6,6.9 -24.7,3.7 -44.2,23.1 -47.9,47.9 -0.4,3.3 -3.3,5.9 -6.8,5.9 z m -11.2,-2 h 11.2 c 2.5,0 4.6,-1.8 4.9,-4.3 3.9,-25.6 24,-45.7 49.6,-49.6 2.5,-0.3 4.3,-2.4 4.3,-4.9 v -11.2 c -37.4,2.1 -67.9,32.6 -70,70 z"
     id="path118"
     style="fill:#000000" /><path
     class="st1"
     d="m 234.60044,338.9 v 0 c -39.6,-1.7 -71.3,-33.4 -73,-73 0,-0.6 0.4,-1 1,-1 0,0 0,0 0,0 h 12.3 c 3.5,0 6.4,2.6 6.9,6 3.7,24.7 23.1,44.2 47.9,47.9 3.4,0.5 6,3.4 6,6.9 V 338 c -0.1,0.5 -0.6,0.9 -1.1,0.9 z m -71,-72 c 2.2,37.4 32.6,67.8 70,70 v -11.2 c 0,-2.5 -1.8,-4.6 -4.3,-4.9 -25.6,-3.9 -45.7,-24 -49.6,-49.6 -0.3,-2.5 -2.4,-4.3 -4.9,-4.3 z"
     id="path120"
     style="fill:#000000" /><path
     class="st1"
     d="m 241.30044,338.9 c -0.6,0 -1,-0.4 -1,-1 v -12.3 c 0,-3.5 2.6,-6.4 6,-6.9 24.7,-3.7 44.2,-23.1 47.9,-47.9 0.5,-3.4 3.4,-6 6.9,-6 h 12.3 c 0.6,0 1,0.4 1,1 0,0 0,0 0,0 -1.8,39.7 -33.5,71.4 -73.1,73.1 z m 59.7,-72 c -2.5,0 -4.6,1.8 -4.9,4.3 -3.9,25.6 -24,45.7 -49.6,49.6 -2.5,0.3 -4.3,2.4 -4.3,4.9 v 11.2 c 37.4,-2.2 67.8,-32.6 70,-70 z"
     id="path122"
     style="fill:#000000" /><path
     class="st1"
     d="m 313.30044,260.2 h -12.3 c -3.5,0 -6.4,-2.6 -6.9,-6 -3.7,-24.7 -23.1,-44.2 -47.9,-47.9 -3.4,-0.5 -6,-3.4 -6,-6.9 v -12.3 c 0,-0.3 0.1,-0.5 0.3,-0.7 0.2,-0.2 0.5,-0.3 0.7,-0.3 39.6,1.7 71.3,33.4 73,73 0.1,0.6 -0.3,1.1 -0.9,1.1 0,0 0,0 0,0 z m -71,-72 v 11.2 c 0,2.5 1.8,4.6 4.3,4.9 25.6,3.9 45.7,24 49.6,49.6 0.3,2.5 2.4,4.3 4.9,4.3 h 11.2 c -2.2,-37.4 -32.7,-67.9 -70,-70 z"
     id="path124"
     style="fill:#000000" /><path
     class="st1"
     d="m 237.90044,339 c -1.2,0 -2.3,0 -3.4,-0.1 -0.5,0 -0.9,-0.5 -0.9,-1 v -12.3 c 0,-2.5 -1.8,-4.6 -4.3,-4.9 -25.6,-3.9 -45.7,-24 -49.6,-49.6 -0.3,-2.5 -2.4,-4.3 -4.9,-4.3 h -12.3 c -0.5,0 -1,-0.4 -1,-0.9 -0.1,-1.1 -0.1,-2.2 -0.1,-3.4 0,-1.2 0,-2.3 0.1,-3.4 0,-0.5 0.5,-0.9 1,-0.9 h 12.3 c 2.5,0 4.6,-1.8 4.9,-4.3 3.9,-25.6 24,-45.7 49.6,-49.6 2.5,-0.3 4.3,-2.4 4.3,-4.9 v -12.3 c 0,-0.5 0.4,-1 0.9,-1 2.3,-0.1 4.5,-0.1 6.8,0 0.5,0 0.9,0.5 0.9,1 v 12.3 c 0,2.5 1.8,4.6 4.3,4.9 25.6,3.9 45.7,24 49.6,49.6 0.3,2.5 2.4,4.3 4.9,4.3 h 12.3 c 0.5,0 1,0.4 1,0.9 0.1,1.1 0.1,2.2 0.1,3.4 0,1.2 0,2.3 -0.1,3.4 0,0.5 -0.5,0.9 -1,0.9 h -12.3 c -2.5,0 -4.6,1.8 -4.9,4.3 -3.9,25.6 -24,45.7 -49.6,49.6 -2.5,0.3 -4.3,2.4 -4.3,4.9 v 12.3 c 0,0.5 -0.4,1 -0.9,1 -1.1,0.1 -2.2,0.1 -3.4,0.1 z m -2.3,-2 c 1.5,0.1 3.1,0.1 4.7,0 v -11.3 c 0,-3.5 2.6,-6.4 6,-6.9 24.7,-3.7 44.2,-23.1 47.9,-47.9 0.5,-3.4 3.4,-6 6.9,-6 h 11.3 c 0,-0.8 0,-1.5 0,-2.3 0,-0.8 0,-1.6 0,-2.3 h -11.4 c -3.5,0 -6.4,-2.6 -6.9,-6 -3.7,-24.7 -23.1,-44.2 -47.9,-47.9 -3.4,-0.5 -6,-3.4 -6,-6.9 v -11.3 c -1.5,-0.1 -3.1,-0.1 -4.7,0 v 11.3 c 0,3.5 -2.6,6.4 -6,6.9 -24.7,3.7 -44.2,23.1 -47.9,47.9 -0.5,3.4 -3.4,6 -6.9,6 h -11.3 c 0,0.8 0,1.5 0,2.3 0,0.8 0,1.6 0,2.3 h 11.3 c 3.5,0 6.4,2.6 6.9,6 3.7,24.7 23.1,44.2 47.9,47.9 3.4,0.5 6,3.4 6,6.9 z"
     id="path126"
     style="fill:#000000" /><path
     style="fill:#1a1a1a;fill-opacity:1;stroke:#4d4d4d;stroke-width:0.999997"
     d="m 158.02789,574.27925 c -14.73064,-3.25266 -24.85554,-12.70578 -29.04419,-27.11717 -0.98592,-3.39218 -1.21679,-6.26957 -0.93511,-11.65556 0.33774,-6.4583 0.67944,-7.76803 3.52546,-13.51272 11.35216,-22.91431 40.68588,-27.928 58.61532,-10.01846 19.42229,19.40073 11.99924,51.86436 -13.89781,60.78009 -5.19354,1.788 -13.81105,2.50701 -18.26367,1.52382 z m 12.59864,-36.29462 c 0,-7.35074 -0.18108,-13.36496 -0.40241,-13.36496 -0.89601,0 -23.32454,13.1809 -22.99291,13.51259 0.66445,0.66458 22.24473,13.11359 22.82266,13.1657 0.31497,0.0284 0.57266,-5.96261 0.57266,-13.31333 z"
     id="path179" /><path
     style="fill:#1a1a1a;fill-opacity:1;stroke:#4d4d4d;stroke-width:0.999997"
     d="m 232.50517,500.57091 c -6.91699,-0.86484 -15.04235,-4.99807 -20.4853,-10.42051 -14.58513,-14.53016 -14.55979,-36.85709 0.0584,-51.42015 23.0282,-22.94142 62.26853,-6.95317 62.26853,25.37095 0,10.34881 -3.46897,18.75364 -10.723,25.98031 -8.34032,8.30891 -19.22192,11.97685 -31.1186,10.4894 z m 18.58209,-30.69278 c -0.91811,-2.38357 -12.79282,-22.35099 -13.28879,-22.34521 -0.45143,0.005 -5.88471,9.05299 -11.95805,19.91302 l -2.0157,3.60439 h 13.85703 c 12.18288,0 13.80248,-0.14161 13.40551,-1.1722 z"
     id="path181" /><path
     style="fill:#1a1a1a;fill-opacity:1;stroke:#4d4d4d;stroke-width:0.999997"
     d="m 229.21434,646.98161 c -12.9232,-3.46654 -23.15418,-13.73508 -26.52403,-26.62142 -5.92248,-22.64757 11.58541,-45.21876 35.15949,-45.32763 7.44717,-0.0344 11.29183,0.91312 18.09999,4.46071 16.90217,8.80735 23.84898,30.39169 15.40753,47.87245 -7.54225,15.61868 -25.6403,24.04261 -42.14298,19.61589 z M 245.434,616.92014 c 3.65424,-6.30197 6.48622,-11.61534 6.29329,-11.8075 -0.19293,-0.19216 -6.40658,-0.25572 -13.80812,-0.14123 l -13.45735,0.20814 6.66623,11.58776 c 3.66642,6.37327 6.89025,11.59297 7.16405,11.59935 0.27381,0.006 3.48766,-5.14457 7.1419,-11.44652 z"
     id="path185" /><path
     style="fill:#1a1a1a;fill-opacity:1;stroke:#4d4d4d;stroke-width:1"
     d="m 307.85537,574.24407 c -0.34478,-0.0389 -1.62711,-0.27075 -2.84962,-0.51537 -11.23844,-2.24892 -20.9226,-9.70179 -26.17378,-20.1432 -2.82839,-5.62398 -4.20289,-12.18393 -3.75883,-17.93953 1.14218,-14.80435 11.33006,-27.74217 25.61809,-32.53303 8.75405,-2.93529 18.04495,-2.18507 26.72988,2.15843 8.69225,4.34715 15.48783,12.11097 18.64346,21.29973 5.25881,15.31297 -0.71552,32.17026 -14.73029,41.56334 -5.99457,4.01773 -13.35804,6.28235 -20.18834,6.20884 -1.46502,-0.0157 -2.94577,-0.0604 -3.29057,-0.0993 z m -0.66719,-23.08553 c 0.71175,-0.35815 3.02697,-1.62049 5.14496,-2.80516 8.66766,-4.84825 15.63944,-9.1681 16.21592,-10.0477 0.27948,-0.42642 0.28078,-0.49758 0.0166,-0.90068 -0.86957,-1.32678 -21.50733,-13.52937 -22.8817,-13.52937 -0.25925,0 -0.5656,0.11351 -0.68079,0.25225 -0.41371,0.49837 -0.59707,4.78502 -0.59431,13.89388 0.003,9.06159 0.17803,13.03427 0.59744,13.53951 0.32082,0.38645 0.78324,0.3011 2.18189,-0.40273 z"
     id="path187" /><path
     style="fill:#333333;fill-opacity:1;stroke:#4d4d4d;stroke-width:1"
     d="m 287.96017,739.09726 c -1.01606,-0.21912 -2.9756,-0.9477 -4.35453,-1.61905 -2.09414,-1.01956 -2.88115,-1.59464 -4.77748,-3.49097 -1.89792,-1.89791 -2.4703,-2.68159 -3.48941,-4.77748 -2.66648,-5.48389 -2.66607,-10.55714 10e-4,-16.08572 1.0133,-2.10022 1.56326,-2.85257 3.48092,-4.76199 3.62968,-3.61405 7.72755,-5.3398 12.70198,-5.34921 8.35146,-0.0158 15.68299,5.71579 17.81213,13.92506 0.52326,2.01754 0.54009,6.16569 0.0339,8.34799 -1.47072,6.34008 -6.30854,11.44929 -12.69973,13.41212 -2.44922,0.7522 -6.26202,0.92699 -8.70906,0.39925 z"
     id="path189" /><path
     style="fill:#1a1a1a;fill-opacity:1;stroke:#4d4d4d;stroke-width:1"
     d="m 267.23012,751.2862 c -1.59942,-0.43597 -2.94763,-1.29847 -4.05871,-2.59652 -1.81264,-2.11766 -1.73429,-0.87988 -1.73429,-27.39725 0,-26.73402 -0.0972,-25.30688 1.87658,-27.54923 0.58306,-0.66239 1.71204,-1.51487 2.55332,-1.92799 l 1.5081,-0.74058 h 24.1534 24.15339 l 1.77672,0.87468 c 1.25727,0.61895 2.04823,1.23027 2.70544,2.091 1.78729,2.34073 1.72742,1.33094 1.64816,27.80036 -0.0712,23.78487 -0.0733,23.86757 -0.63865,25.09049 -0.72339,1.56486 -2.26169,3.10316 -3.93043,3.93043 l -1.30842,0.64864 -23.75199,0.0516 c -18.21394,0.0396 -24.03192,-0.0247 -24.95262,-0.27565 z m 27.28995,-9.68076 c 10.60326,-1.53286 18.09097,-10.66806 17.50501,-21.35655 -0.18432,-3.36213 -0.66908,-5.27077 -2.04745,-8.06138 -4.59235,-9.29756 -15.46557,-13.67756 -25.3079,-10.19463 -2.76161,0.97725 -4.68871,2.16763 -7.02836,4.34145 -3.05146,2.83517 -5.11688,6.34636 -6.04249,10.27217 -0.50715,2.151 -0.50715,7.22087 0,9.37186 0.92171,3.90925 2.95421,7.3745 6.0133,10.25221 2.20884,2.07787 4.16469,3.31668 6.72144,4.2573 3.40627,1.25315 6.72782,1.61756 10.18645,1.11757 z"
     id="path191" /><path
     style="fill:#1a1a1a;fill-opacity:1;stroke:#4d4d4d;stroke-width:1"
     d="m 235.77295,330.34531 c 0,-6.0203 -0.0462,-6.51813 -0.73076,-7.87124 -1.06164,-2.09851 -2.95253,-3.39477 -5.65313,-3.87537 -15.06064,-2.68022 -27.49575,-10.15006 -36.51861,-21.93692 -4.96934,-6.49162 -8.83069,-15.11098 -10.3887,-23.18981 -0.83474,-4.3284 -1.3998,-5.65891 -2.97647,-7.00848 -1.7724,-1.51711 -3.30405,-1.79252 -9.96885,-1.79252 h -5.86461 v -2.11107 -2.11107 h 6.26944 c 6.12912,0 6.30805,-0.0192 7.9945,-0.85963 2.44443,-1.21811 3.32179,-2.74063 4.22338,-7.32906 4.56927,-23.25403 22.39532,-40.97679 45.63214,-45.36773 4.16129,-0.78634 5.57438,-1.57205 6.90818,-3.84114 0.9048,-1.53927 0.91186,-1.5954 1.02116,-8.12677 l 0.11006,-6.57679 h 2.0822 2.0822 v 6.27497 c 0,6.20191 0.0104,6.29547 0.89315,8.03629 1.32629,2.61551 2.65075,3.37644 7.56606,4.34684 19.37922,3.82593 35.08856,16.98397 42.28514,35.41774 1.04383,2.67375 1.9437,5.93165 3.31831,12.01372 0.58905,2.60627 1.67368,4.16462 3.60307,5.17675 1.1513,0.60396 1.95144,0.68258 7.85861,0.77219 l 6.57679,0.0998 v 2.0925 2.09249 h -6.26944 c -6.12912,0 -6.30805,0.0192 -7.9945,0.85963 -2.20181,1.09721 -3.39863,2.90223 -3.90849,5.89474 -4.06097,23.83452 -22.22419,42.32715 -45.97159,46.8053 -4.2535,0.8021 -5.71797,1.66037 -6.96502,4.08193 -0.79329,1.54043 -0.83455,1.89301 -0.94026,8.03533 l -0.11057,6.42419 h -2.08169 -2.0817 z"
     id="path1082" /><path
     style="fill:#1a1a1a;fill-opacity:1;stroke:#4d4d4d;stroke-width:1"
     d="m 163.78864,257.28223 c 0.0926,-0.49123 0.26012,-1.9162 0.37218,-3.1666 0.34565,-3.85681 1.73866,-10.12043 3.27937,-14.74553 8.02141,-24.0797 28.10082,-42.70464 52.74332,-48.92282 3.12397,-0.78829 7.58171,-1.54879 11.2861,-1.92544 l 2.02988,-0.20639 v 5.8726 c 0,8.54266 -0.3854,9.15422 -6.53853,10.37563 -18.42711,3.65779 -33.66767,15.25204 -41.92018,31.89074 -2.55007,5.14144 -4.14587,10.08856 -5.47376,16.9691 -0.45828,2.3746 -1.81844,3.9985 -3.71595,4.43649 -0.71452,0.16493 -3.75876,0.30335 -6.76499,0.30761 l -5.46587,0.008 z"
     id="path1084" /><path
     style="fill:#1a1a1a;fill-opacity:1;stroke:#4d4d4d;stroke-width:1"
     d="m 229.76452,336.39384 c -26.99792,-3.04756 -50.79328,-21.35759 -60.92173,-46.87799 -2.38214,-6.00221 -4.22117,-13.35788 -4.67827,-18.71196 -0.11259,-1.31887 -0.27512,-2.73804 -0.36117,-3.1537 l -0.15645,-0.75574 6.32279,0.10618 c 5.78597,0.0972 6.39885,0.16304 7.21874,0.77582 1.58067,1.18137 2.03872,2.1715 2.89278,6.25312 1.21968,5.82894 2.45374,9.35857 5.18759,14.8375 2.85902,5.72977 5.67403,9.77885 9.85937,14.18161 8.62003,9.0678 19.6967,15.16512 31.73111,17.46684 3.63419,0.69508 4.63135,1.16546 5.80819,2.73983 0.6132,0.82034 0.6781,1.4276 0.77012,7.20628 0.0943,5.92221 0.0643,6.30785 -0.48717,6.26798 -0.32321,-0.0233 -1.75687,-0.17446 -3.1859,-0.33577 z"
     id="path1086" /><path
     style="fill:#1a1a1a;fill-opacity:1;stroke:#4d4d4d;stroke-width:1"
     d="m 299.6703,257.71116 c -2.39043,-0.853 -2.81858,-1.58503 -3.81252,-6.51855 -3.66786,-18.20579 -15.40436,-33.45997 -31.99138,-41.57986 -4.81668,-2.35792 -8.58209,-3.67044 -13.47836,-4.69819 -4.72195,-0.99115 -6.17077,-1.58672 -7.05619,-2.9006 -0.70499,-1.04613 -0.73853,-1.38133 -0.73853,-7.38107 0,-3.45685 0.11517,-6.28518 0.25593,-6.28518 0.14076,0 1.93111,0.20926 3.97855,0.46502 11.96867,1.4951 22.85594,5.62979 32.79042,12.45291 4.36974,3.00118 7.416,5.6069 11.57682,9.90259 9.30395,9.60553 15.50823,20.66713 18.77966,33.48224 0.93232,3.65217 2.12151,10.886 2.12151,12.90514 0,0.58643 -0.30132,0.619 -5.60245,0.60551 -3.82949,-0.01 -5.98886,-0.15214 -6.82346,-0.44996 z"
     id="path1088" /><path
     style="fill:#1a1a1a;fill-opacity:1;stroke:#4d4d4d;stroke-width:1"
     d="m 242.3249,330.46177 c 0.097,-5.7735 0.163,-6.38655 0.77566,-7.20629 1.18269,-1.58243 2.17182,-2.02925 6.33209,-2.86041 23.48707,-4.69236 41.89612,-23.31363 46.43689,-46.97223 0.66775,-3.47916 1.14738,-4.47847 2.71006,-5.64639 0.81991,-0.6128 1.43277,-0.67865 7.22079,-0.77584 l 6.32483,-0.10621 -0.19591,1.73011 c -1.19107,10.51857 -3.29919,17.9842 -7.45853,26.41337 -11.17834,22.65366 -32.93361,38.14197 -57.96776,41.26919 -2.04744,0.25577 -3.84896,0.46502 -4.00338,0.46502 -0.15442,0 -0.23305,-2.83964 -0.17474,-6.31032 z"
     id="path1090" /><path
     style="fill:#000000;fill-opacity:1;stroke:#4d4d4d;stroke-width:0.999998"
     d="m 311.60253,113.45766 c -0.55307,-0.55307 -0.67321,-1.83753 -0.67321,-7.19731 0,-4.50308 0.15925,-6.68335 0.51409,-7.03819 0.38766,-0.38766 6.43841,-0.5141 24.60307,-0.5141 21.32785,0 24.16614,0.0772 24.76219,0.67322 0.55166,0.55166 0.67322,1.82364 0.67322,7.0445 0,6.09825 -0.0408,6.39986 -0.95215,7.03819 -0.83385,0.58406 -3.89051,0.66691 -24.60307,0.66691 -20.92962,0 -23.72838,-0.0775 -24.32414,-0.67322 z"
     id="path1092" /><path
     style="fill:#000000;fill-opacity:1;stroke:#4d4d4d;stroke-width:0.999998"
     d="m 78.977784,134.18912 c -2.35328,-2.74929 -2.18932,-3.66269 2.26682,-12.62797 C 92.012734,99.89682 104.871,81.96966 121.771,65.058734 153.11752,33.69194 193.3541,12.833792 237.03838,5.305545 252.10894,2.708387 253.57756,2.630423 291.07604,2.43687 l 34.76922,-0.179466 1.35092,1.207149 c 0.9677,0.864713 1.41875,1.712966 1.59003,2.990242 l 0.23911,1.783092 -33.78877,0.194148 c -36.2509,0.208295 -38.76527,0.335101 -53.2555,2.685802 -38.392,6.2282 -72.8916,22.039868 -103.29303,47.340693 -6.79226,5.652686 -19.46547,18.33117 -25.22484,25.23531 -8.3636,10.02603 -16.479016,21.67655 -22.544486,32.36489 -3.07683,5.42188 -9.61802,18.64996 -9.61802,19.45027 0,0.91062 -0.80534,0.45303 -2.32289,-1.31988 z"
     id="path1094" /><path
     style="fill:#1a1a1a;fill-opacity:1;stroke:#4d4d4d;stroke-width:1"
     d="m 398.20583,464.93186 c 0,-216.02489 0.12146,-304.39871 0.26991,-196.38626 0.14845,108.01244 0.14845,284.76008 0,392.77252 -0.14845,108.01245 -0.26991,19.63863 -0.26991,-196.38626 z"
     id="path1150" /><path
     style="fill:#1a1a1a;fill-opacity:1;stroke:#4d4d4d;stroke-width:1"
     d="m 401.44318,902.40274 c -1.48283,-2.11702 -1.64585,-43.40647 -1.64585,-416.85429 0,-373.44781 0.16302,-414.737261 1.64585,-416.854286 1.37591,-1.964385 2.64173,-2.349769 7.718,-2.349769 3.33969,0 6.64309,0.570921 7.34088,1.268713 0.96181,0.961813 1.26871,18.598983 1.26871,72.911362 0,69.01305 -0.0775,71.84973 -2.1109,77.28456 -1.161,3.10304 -3.53984,7.89508 -5.28631,10.64899 l -3.1754,5.00708 v 40.24031 c 0,37.61687 0.12902,40.42327 1.97893,43.04667 1.08842,1.5435 3.34831,5.42309 5.02199,8.6213 l 3.04306,5.81494 0.27946,141.61892 c 0.30957,156.88126 0.80443,145.17745 -6.6628,157.57802 l -3.66064,6.0791 v 40.51406 c 0,26.52506 0.37415,40.74531 1.08359,41.18376 0.59597,0.36833 2.85586,4.08361 5.02199,8.25617 l 3.9384,7.58648 0.28906,83.91411 c 0.21318,61.88506 -0.029,84.29733 -0.9224,85.37384 -0.77641,0.93553 -3.42147,1.45973 -7.36562,1.45973 -5.161,0 -6.41977,-0.37921 -7.8,-2.34977 z"
     id="path1152" /><path
     style="fill:#1a1a1a;fill-opacity:1;stroke:#4d4d4d;stroke-width:1"
     d="M 389.22472,464.93186 V 72.687962 h 4.22905 4.22904 v 392.243898 392.2439 h -4.22904 -4.22905 z"
     id="path1154" /><path
     style="fill:#00c7e7;fill-opacity:0.992157;stroke:#4d4d4d;stroke-width:1"
     d="m 409.89998,273.33293 v -38.63294 h 3.04188 c 1.74435,0 3.58682,0.88543 4.31941,2.07573 1.73761,2.82321 1.73761,70.29119 0,73.11439 -0.73259,1.19032 -2.57506,2.07573 -4.31941,2.07573 h -3.04188 z"
     id="path1156" /><path
     style="fill:#00c7e7;fill-opacity:0.992157;stroke:#4d4d4d;stroke-width:1"
     d="m 409.89998,676.164 v -38.66403 h 3.04381 c 1.74545,0 3.58909,0.88613 4.32215,2.07741 1.7387,2.82547 1.7387,70.34777 0,73.17325 -0.73306,1.19129 -2.5767,2.0774 -4.32215,2.0774 h -3.04381 z"
     id="path1158" /><path
     style="opacity:1;fill:#1a1a1a;fill-opacity:1;stroke:#4d4d4d;stroke-width:1"
     d=""
     id="path1502" /></g><ellipse
   transform="scale(-1,1)"
   id="path4030"
   style="fill:#2e2f31;fill-opacity:1;stroke:#000000;stroke-width:1;stroke-linecap:round;stroke-linejoin:round;stroke-miterlimit:4;stroke-dasharray:none;stroke-opacity:1"
   cx="-630.03088"
   cy="561.01349"
   rx="15.407233"
   ry="14.105413" /><path
   inkscape:connector-curvature="0"
   id="path4038"
   d="m 531.57205,238.85036 v 45.92786"
   style="fill:none;stroke:#000000;stroke-width:1px;stroke-linecap:butt;stroke-linejoin:miter;stroke-opacity:1" /><path
   sodipodi:nodetypes="cc"
   inkscape:connector-curvature="0"
   id="path4040"
   d="M 538.66113,244.78398 V 281.251"
   style="fill:none;stroke:#000000;stroke-width:1px;stroke-linecap:butt;stroke-linejoin:miter;stroke-opacity:1" /><path
   inkscape:connector-curvature="0"
   id="path4062"
   d="m 618.21618,261.30922 c 0.15897,-2.39247 0.93393,-4.19426 2.34943,-5.4612 1.05382,-0.94329 2.4969,-1.60711 4.18689,-1.92587 0.38638,-0.0728 1.08711,-0.17756 1.09745,-0.16356 0,0.005 0.0932,0.85525 0.2017,1.89259 0.10822,1.03731 0.20533,1.93952 0.21568,2.00495 0.0181,0.10453 0.0103,0.11877 -0.0516,0.11877 -0.12143,0 -0.66218,0.12325 -1.06042,0.24145 -1.89486,0.56317 -2.9076,1.70318 -3.13568,3.52943 -0.0526,0.41968 -0.0234,1.49637 0.0511,1.88719 0.19574,1.0321 0.63779,1.7947 1.33594,2.30611 0.54534,0.39941 0.99057,0.54409 1.6797,0.54565 0.49114,0 0.76493,-0.0566 1.09064,-0.22875 0.22397,-0.11875 0.53421,-0.40001 0.71372,-0.64718 0.4284,-0.59002 0.63827,-1.17637 1.39917,-3.90929 0.47521,-1.70735 0.75977,-2.52129 1.19088,-3.4071 0.58401,-1.19961 1.35632,-2.06979 2.41398,-2.71969 0.58281,-0.35813 1.33375,-0.64229 2.04739,-0.77469 0.33923,-0.0633 0.49023,-0.0718 1.18512,-0.0711 0.6888,7.5e-4 0.84197,0.01 1.1342,0.0705 1.71036,0.34984 3.14515,1.32777 3.98586,2.71644 0.37788,0.62406 0.6928,1.43192 0.8702,2.23216 0.38944,1.75661 0.31125,4.08353 -0.19239,5.72547 -0.23225,0.75754 -0.63066,1.547 -1.06364,2.10803 -0.29761,0.38576 -1.03764,1.06284 -1.46261,1.33836 -0.68025,0.44086 -1.57369,0.7947 -2.41512,0.95642 -0.42538,0.0817 -0.96878,0.14578 -1.23605,0.14578 h -0.15716 l -2.2e-4,-0.18229 c -1.6e-4,-0.10006 -0.0391,-0.97392 -0.0865,-1.94151 -0.0477,-0.9676 -0.0862,-1.8095 -0.0862,-1.87098 l -7e-5,-0.11166 0.30292,-0.0566 c 0.67911,-0.12659 1.35798,-0.40277 1.77019,-0.71964 0.80274,-0.61701 1.14716,-1.52869 1.14668,-3.03564 -2.4e-4,-0.99245 -0.14604,-1.67342 -0.50038,-2.33609 -0.41109,-0.7689 -0.85522,-1.08267 -1.58139,-1.11747 -0.54033,-0.0264 -0.91443,0.0922 -1.29169,0.40791 -0.60357,0.50503 -1.00281,1.43211 -1.68447,3.91108 -0.53065,1.92992 -0.76968,2.66375 -1.17698,3.61359 -0.7236,1.68735 -1.72295,2.76788 -3.1653,3.42218 -0.86271,0.39132 -1.65737,0.56338 -2.80448,0.60727 -1.3619,0.0524 -2.61283,-0.24592 -3.80829,-0.90695 -1.3364,-0.73899 -2.29253,-1.88343 -2.83806,-3.39691 -0.47562,-1.31947 -0.68418,-3.07542 -0.56986,-4.79727 v 0 z"
   style="fill:#000000;stroke:#000000;stroke-width:0.0133722;stroke-linecap:round;stroke-linejoin:round;stroke-miterlimit:4;stroke-dasharray:none;stroke-opacity:1" /><path
   inkscape:connector-curvature="0"
   id="path4064"
   d="m 630.09646,671.66625 h 11.20079 l -7.7e-4,4.47736 c -3.9e-4,2.46263 -0.0181,4.8542 -0.0344,5.31477 -0.12014,3.00951 -0.56807,4.32259 -1.86223,5.4598 -1.43936,1.26481 -3.65136,1.78958 -5.84831,1.38753 -1.22398,-0.224 -2.30114,-0.78622 -3.1233,-1.63027 -0.75525,-0.77541 -1.34589,-2.02193 -1.58341,-3.3415 -0.0526,-0.2928 -0.0649,-0.32336 -0.10591,-0.26949 -0.0258,0.0337 -0.20067,0.27472 -0.38963,0.53623 -0.79262,1.09807 -1.46856,1.72397 -2.8174,2.60895 -0.78277,0.51353 -1.17221,0.74339 -4.12365,2.43453 l -2.49548,1.4299 -0.008,-2.44288 c -0.005,-1.92858 2.7e-4,-2.45065 0.0344,-2.47945 0.0234,-0.0215 1.34449,-0.8352 2.93457,-1.81113 4.5931,-2.81923 5.11319,-3.17081 5.65776,-3.8248 0.54019,-0.64863 0.67406,-1.16979 0.70337,-2.7382 l 0.0181,-0.99053 h -4.67857 -4.67867 v -2.06046 -2.06036 h 11.20079 z m 1.74946,9.28763 c 0.0409,0.67298 0.11392,1.26781 0.18719,1.52499 0.22165,0.77651 0.88153,1.38438 1.75173,1.61386 0.32467,0.0855 1.148,0.12136 1.50829,0.0653 0.87376,-0.13534 1.48211,-0.5375 1.85019,-1.22332 0.35302,-0.65774 0.37769,-0.95998 0.37905,-4.65174 l 7.5e-4,-2.49624 h -2.85643 -2.85653 l 7e-5,2.29025 c 0,1.25954 0.0181,2.55403 0.0356,2.87661 z"
   style="fill:#000000;stroke:#000000;stroke-width:0.0133722;stroke-linecap:round;stroke-linejoin:round;stroke-miterlimit:4;stroke-dasharray:none;stroke-opacity:1" /><path
   inkscape:connector-curvature="0"
   id="path4066"
   d="m 618.48834,660.72379 c 0.26992,-3.13481 1.47063,-5.14907 3.82731,-6.42085 0.94544,-0.51008 2.47246,-0.96116 3.66673,-1.08314 l 0.21439,-0.0214 0.0207,0.10785 c 0.0372,0.19794 0.41957,3.90855 0.40445,3.92234 -0.008,0.007 -0.17193,0.0441 -0.3639,0.0822 -0.19212,0.0376 -0.53821,0.12634 -0.76937,0.19651 -1.79072,0.54475 -2.7801,1.57117 -3.10355,3.21988 -0.0989,0.50413 -0.10744,1.60822 -0.0155,2.14051 0.12169,0.71048 0.32194,1.25035 0.6218,1.6747 0.41144,0.58234 0.98794,1.0195 1.60624,1.21829 0.34978,0.11236 1.05168,0.14484 1.3996,0.0645 0.68302,-0.15762 1.12961,-0.53488 1.53764,-1.29896 0.28622,-0.53585 0.48608,-1.14697 1.12493,-3.44026 0.58179,-2.0886 0.89522,-2.93441 1.4688,-3.96444 0.54763,-0.9834 1.29532,-1.75609 2.25091,-2.32632 1.0162,-0.60643 2.16997,-0.88864 3.44103,-0.84174 1.09522,0.0405 2.1108,0.34696 3.03462,0.9161 0.67952,0.41875 1.15791,0.85897 1.62314,1.49397 0.94821,1.29426 1.41875,3.00624 1.41828,5.1604 -5.4e-4,2.4013 -0.5283,4.2219 -1.61346,5.56569 -0.28052,0.34751 -0.87705,0.89358 -1.25657,1.15047 -1.02517,0.69385 -2.17752,1.07827 -3.55571,1.18615 -0.21154,0.0168 -0.38907,0.0262 -0.39448,0.0215 -0.0155,-0.0141 -0.21309,-4.13646 -0.20041,-4.14922 0.008,-0.007 0.14966,-0.0386 0.32003,-0.0726 0.96084,-0.19177 1.73387,-0.57719 2.16612,-1.08024 0.33457,-0.38922 0.56064,-0.89429 0.68786,-1.53658 0.1015,-0.51332 0.11134,-1.67163 0.0181,-2.21419 -0.14526,-0.84985 -0.46593,-1.54361 -0.92193,-1.99457 -0.48336,-0.47793 -1.31478,-0.61609 -1.9837,-0.32951 -0.30417,0.13037 -0.66295,0.44566 -0.87729,0.7711 -0.39693,0.60258 -0.7762,1.64298 -1.28809,3.53321 -0.61793,2.28163 -1.08691,3.57856 -1.64611,4.55253 -0.90497,1.57616 -2.40653,2.63296 -4.21401,2.96573 -0.65494,0.12066 -1.14141,0.15526 -1.88939,0.13511 -0.52546,-0.0141 -0.75937,-0.0355 -1.08943,-0.0994 -1.82284,-0.35238 -3.39382,-1.33729 -4.32844,-2.71383 -0.65796,-0.969 -1.07881,-2.20396 -1.27779,-3.74995 -0.0534,-0.41339 -0.0974,-2.3393 -0.0626,-2.74128 v 0 z"
   style="fill:#000000;stroke:#000000;stroke-width:0.0135255;stroke-linecap:round;stroke-linejoin:round;stroke-miterlimit:4;stroke-dasharray:none;stroke-opacity:1" /><path
   inkscape:connector-curvature="0"
   id="path4068"
   d="m 629.79165,275.85376 h 11.24168 v 2.084 2.08398 h -9.3506 -9.35057 v 5.21008 5.21002 h -1.89113 -1.89113 v -7.29401 -7.29407 z"
   style="fill:#000000;stroke:#000000;stroke-width:0.0135255;stroke-linecap:round;stroke-linejoin:round;stroke-miterlimit:4;stroke-dasharray:none;stroke-opacity:1" /><path
   style="fill:none;stroke:#000000;stroke-width:1px;stroke-linecap:butt;stroke-linejoin:miter;stroke-opacity:1"
   d="m 564.81854,20.07351 2.80254,-2.94783 2.10843,-1.80063 3.89781,-2.62722 4.93974,-2.563 3.81131,-1.26428 3.8729,-0.82566 1.38974,-0.20307 2.88842,-0.16699 h 57.79227 l 1.57144,0.1495 1.7697,0.23946 1.77484,0.23845 2.72964,0.54365 2.31281,0.60657 2.44326,0.75609 2.94394,0.94407 2.12886,0.90455 3.8498,1.71936 2.75741,1.53909 2.10581,1.19691 3.23498,2.16487 2.4201,1.63817 1.43595,1.20589 1.89607,1.45278 3.21175,2.60881 2.42278,2.54722 4.25902,4.70095 2.59949,3.25688 1.67743,2.63026 1.27103,2.18885 1.91183,3.73696 0.72706,1.65104 1.16131,2.96921 0.66224,2.6045 0.78479,3.27949 0.33987,2.68699 0.0483,2.38913 v 4.00596 2.85158 877.28854 l -0.16384,2.49834 -0.34524,3.40161 -1.29885,4.78086 -1.23966,3.78403 -3.60497,7.27285 -2.57375,4.06631 -2.46855,3.20693 -1.48186,1.9802 -2.66944,2.86996 -3.06989,3.02982 -2.17649,1.93027 -4.01872,3.12609 -4.11447,2.86107 -2.30753,1.27645 -3.52352,1.85025 -3.6903,1.68409 -4.15406,1.45756 -3.72593,1.17046 -3.68244,0.74604 -3.28501,0.4427 -3.07889,0.2681 h -56.72802 l -2.27377,-0.2166 -3.66214,-0.647 -2.13716,-0.51009 -2.60358,-0.90223 -3.70761,-1.51574 -3.72085,-1.89586 -3.11883,-1.96485 -2.49439,-2.06444 -3.08564,-2.8864 -3.11412,-3.83896 -2.38795,-3.92556 -1.37928,-3.24221 -1.06978,-2.90884 -0.81446,-3.36045 -0.4154,-3.6114 -0.024,-2.14795 V 43.23256 l 0.28062,-2.94096 0.63887,-3.85473 1.31769,-4.26752 1.53215,-3.69272 2.5337,-4.4686 1.96993,-2.5833 z"
   id="path249" /><path
   style="fill:none;stroke:#000000;stroke-width:1px;stroke-linecap:butt;stroke-linejoin:miter;stroke-opacity:1"
   d="m 579.27749,882.28216 v 6.08181 l 0.22389,1.59606 0.29307,1.46502 0.91397,1.98237 1.44009,1.86865 1.82861,1.50111 2.13131,1.08416 1.90386,0.52809 1.60183,0.14393 h 79.78134 l 1.99513,-0.41023 2.21804,-0.85373 1.54376,-0.8962 1.32399,-1.05092 0.83391,-0.99896 0.92964,-1.46811 0.57111,-1.09753 0.33104,-0.85448 0.22137,-1.44871 V 888.48188 70.1441 l -0.15238,-0.79056 -0.1354,-0.6193 -0.22389,-0.77781 -0.26288,-0.76223 -0.52852,-1.02426 -0.77178,-1.10824 -0.95072,-1.05154 -1.51879,-1.19787 -1.14976,-0.70296 -1.35137,-0.55135 -1.76277,-0.48498 -1.56696,-0.17247 h -79.09266 l -1.09907,0.0992 -1.38913,0.27743 -2.22071,0.74685 -1.19049,0.67671 -1.4954,1.14781 -0.89381,0.85379 -1.12889,1.65318 -0.74104,1.64338 -0.38604,1.57801 -0.05,1.06516 z"
   id="path251" /><path
   style="fill:none;stroke:#000000;stroke-width:1px;stroke-linecap:butt;stroke-linejoin:miter;stroke-opacity:1"
   d="m 694.62149,34.10362 2.87464,2.17056 1.39448,1.27449 1.10633,1.19174 1.33926,1.50114 1.38209,1.74045 1.13752,1.55135 1.14707,1.6191 1.76331,2.78539 1.13353,1.9937 0.91903,1.69462 1.33241,2.59815 1.11209,2.33 1.56583,3.39111 0.63568,1.22029 0.77282,1.85718 0.72486,1.75471 0.98903,2.11635 1.04466,2.26736 0.86003,1.7056 0.74871,1.46183 0.77843,1.50459 1.16158,2.03635 0.69941,1.16948 1.32156,2.115908 1.16136,1.588798 0.91829,1.1277 1.46722,1.699491 1.41993,1.421433 1.99344,1.729358 2.2557,1.727415 2.15114,1.207651 1.3718,0.686911 3.115,1.233926 4.1538,1.063845 3.08686,0.468704 3.22131,0.302913 h 28.48289 l 0.94647,0.05237 0.97841,0.357991 1.16352,0.475122 0.9822,0.701542 1.01456,1.07822 0.92826,1.358378 0.65022,1.72693 0.1277,1.595664 -0.29606,1.44502 -0.74147,1.59474 -1.99052,3.45657 -2.4225,4.16279 -2.33536,3.53915 -1.37414,1.9664 -1.24262,1.70801 -1.41326,1.83088 -1.34109,1.74508 -2.14664,2.66591 -1.97231,2.31029 -1.08591,1.37517 -2.41419,2.77055 -1.30886,1.52879 -3.03361,3.40228 -1.58159,1.80779 -1.34438,1.31431 -2.46317,2.6295 -1.04614,1.0908 -4.84623,5.03258 -3.60112,3.77568 -1.74314,1.82893 -2.10543,2.2459 -6.06161,6.49298 -2.39368,2.59389 -2.01406,2.20329 -1.6282,1.85603 -1.14047,1.25547 -1.6465,1.98517 -1.72596,2.18615 -1.52881,1.91959 -1.25534,1.48184 -1.12938,1.52402 -1.65189,2.2517 -1.15137,1.60225 -1.31306,1.81213 -1.08907,1.73832 -1.86192,2.96443 -1.97162,3.32339 -1.21492,2.47246 -1.36959,2.68936 -0.95325,2.42774 -1.07073,2.91455 -0.76263,2.02052 h -0.62464"
   id="path253" /><path
   style="font-variation-settings:normal;opacity:1;vector-effect:none;fill:#1a1a1a;fill-opacity:1;stroke:#000000;stroke-width:1px;stroke-linecap:butt;stroke-linejoin:miter;stroke-miterlimit:4;stroke-dasharray:none;stroke-dashoffset:0;stroke-opacity:1;stop-color:#000000;stop-opacity:1"
   d="m 554.98557,506.60461 h -3.31475 l -1.21084,0.19637 -1.41973,0.53148 -1.57035,0.97257 -0.93192,0.98281 -0.8244,1.30431 -0.46075,1.2916 -0.0637,0.91287 -0.15809,2.36292 -0.25772,3.06459 -0.2171,3.23629 -0.2039,3.99231 -0.12562,3.06084 -0.14526,4.35384 -0.0857,5.46574 v 13.91733 l 0.15624,2.15982 0.0695,2.19857 0.20282,3.01372 0.22689,2.9539 0.16898,2.8368 0.32646,4.37395 0.12161,1.93446 0.12107,1.18541 0.30831,1.25065 0.75377,1.13471 1.01957,0.99641 1.54585,0.8017 1.28043,0.2251 h 4.57179 0.17232 z"
   id="path255" /><path
   style="font-variation-settings:normal;opacity:1;vector-effect:none;fill:#1a1a1a;fill-opacity:1;stroke:#000000;stroke-width:1px;stroke-linecap:butt;stroke-linejoin:miter;stroke-miterlimit:4;stroke-dasharray:none;stroke-dashoffset:0;stroke-opacity:1;stop-color:#000000;stop-opacity:1"
   d="m 554.91046,580.77518 h -3.31475 l -1.21084,0.19637 -1.41973,0.53148 -1.57035,0.97256 -0.93192,0.98282 -0.8244,1.3043 -0.46075,1.29161 -0.0637,0.91286 -0.15809,2.36293 -0.25772,3.06459 -0.2171,3.23628 -0.2039,3.99231 -0.12562,3.06085 -0.14526,4.35383 -0.0857,5.46574 v 13.91733 l 0.15624,2.15982 0.0695,2.19857 0.20282,3.01372 0.22689,2.9539 0.16898,2.8368 0.32646,4.37396 0.12161,1.93446 0.12107,1.18541 0.30831,1.25065 0.75377,1.1347 1.01957,0.99641 1.54585,0.8017 1.28043,0.2251 h 4.57179 0.17232 z"
   id="path298" /><path
   style="fill:none;stroke:#000000;stroke-width:1px;stroke-linecap:butt;stroke-linejoin:miter;stroke-opacity:1"
   d="m 555.35214,700.90733 -0.70664,0.006 -1.15041,0.31287 -0.94439,0.9042 -0.33283,0.84033 v 55.38359 l 0.35102,0.98794 1.16661,1.06396 0.76614,0.21051 0.79763,-0.0429 z"
   id="path300"
   sodipodi:nodetypes="ccccccccccc" /><path
   style="fill:none;stroke:#000000;stroke-width:1px;stroke-linecap:butt;stroke-linejoin:miter;stroke-opacity:1"
   d="m 682.87139,21.88825 2.41837,0.2707 3.52048,0.79736 3.29989,0.79341 3.35684,0.85712 10.58481,3.05757 8.24268,2.61795 6.98289,2.30801 8.19137,2.72032 6.85494,2.1232 7.56186,2.22326 3.02344,0.89258 3.01485,0.78292 2.59184,0.6545 4.39682,1.01106 3.44978,0.73216 4.14889,0.73189 5.67397,0.74901 2.26019,0.25821 2.51619,0.19404 1.51308,0.53857 1.71443,0.82574 1.15366,0.80631 0.81926,0.61787 1.09348,1.17223 1.28918,1.66295 1.03628,2.03633 0.40058,1.60306 0.18894,1.03784 v 22.44381 l -0.19091,1.308997 -0.49575,1.412494 -0.82966,1.653999 -0.83314,1.220679 -1.26559,1.521716 -1.47306,1.679506 -1.74719,1.810649 -1.52584,1.671168 -1.0269,1.429929 -0.51569,0.924939"
   id="path302" /><path
   style="fill:none;stroke:#000000;stroke-width:1px;stroke-linecap:butt;stroke-linejoin:miter;stroke-opacity:1"
   d="m 555.11995,218.09615 -1.01033,0.39258 -1.22841,0.93655 -1.2742,1.02924 -1.33354,1.35102 -1.34981,1.59351 -1.40742,1.80058 -1.06793,1.49244 -0.85098,1.20282 -0.89272,1.39504 -0.99731,1.62995 -0.60208,1.24653 -0.8025,1.69239 -0.93246,1.96822 -0.91473,2.23059 -0.62621,1.91229 -0.57345,2.01006 -0.59474,2.80402 -0.14894,0.35985 -1.18136,-0.13793 -0.97443,-0.18501 -1.29147,-0.54083 -1.00174,-0.69084 -1.15445,-0.99791 -0.60398,-0.85223 -0.49335,-1.12318 -0.37025,-1.37685 v -45.45096 l -0.20339,-1.17956 -0.74794,-1.09777 -0.87864,-0.84867 -1.1084,-0.66091 -1.62768,-0.61457 -1.99954,-0.31262 -2.41898,-0.0433 -3.34195,0.51108 -2.789,1.02869 -1.75751,0.92812 -1.48061,0.99716 -2.10544,1.93079 -1.35698,1.79438 -0.77464,1.80822 -0.53822,2.14889 -0.17548,1.82929 v 15.40503 l -0.74254,2.33437 -0.81509,3.04978 -0.66374,2.10772 -1.44608,5.41074 -0.10817,0.54556 -0.36239,1.62223 -0.43835,2.01252 -0.52816,2.59666 -0.51106,2.94424 -0.53199,3.41725 -0.52183,3.69125 -0.27377,2.56523 -0.17416,1.97814 -0.12505,1.76866 -0.16865,2.53094 -0.0926,2.51807 -0.10085,2.96479 -0.0322,3.59841 0.1372,3.62771 0.15883,3.46399"
   id="path304" /><path
   style="fill:none;stroke:#000000;stroke-width:1px;stroke-linecap:butt;stroke-linejoin:miter;stroke-opacity:1"
   d="m 555.11995,307.38224 -1.01033,-0.39258 -1.22841,-0.93654 -1.2742,-1.02925 -1.33354,-1.35102 -1.34981,-1.5935 -1.40742,-1.80059 -1.06793,-1.49243 -0.85098,-1.20282 -0.89272,-1.39505 -0.99731,-1.62995 -0.60208,-1.24653 -0.8025,-1.69239 -0.93246,-1.96821 -0.91473,-2.23059 -0.62621,-1.9123 -0.57345,-2.01006 -0.59474,-2.80402 -0.14894,-0.35985 -1.18136,0.13793 -0.97443,0.18501 -1.29147,0.54083 -1.00174,0.69084 -1.15445,0.99792 -0.60398,0.85223 -0.49335,1.12317 -0.37025,1.37685 v 45.45097 l -0.20339,1.17956 -0.74794,1.09777 -0.87864,0.84866 -1.1084,0.66092 -1.62768,0.61456 -1.99954,0.31262 -2.41898,0.0433 -3.34195,-0.51107 -2.789,-1.0287 -1.75751,-0.92812 -1.48061,-0.99715 -2.10544,-1.93079 -1.35698,-1.79438 -0.77464,-1.80823 -0.53822,-2.14889 -0.17548,-1.82929 v -15.40503 l -0.74254,-2.33437 -0.81509,-3.04977 -0.66374,-2.10773 -1.44608,-5.41074 -0.10817,-0.54555 -0.36239,-1.62224 -0.43835,-2.01252 -0.52816,-2.59665 -0.51106,-2.94425 -0.53199,-3.41725 -0.52183,-3.69125 -0.27377,-2.56522 -0.17416,-1.97815 -0.12505,-1.76866 -0.16865,-2.53094 -0.0926,-2.51807 -0.10085,-2.96479 -0.0322,-3.5984 0.1372,-3.62772 0.15883,-3.46399"
   id="path306" /><path
   style="fill:none;stroke:#000000;stroke-width:1px;stroke-linecap:butt;stroke-linejoin:miter;stroke-opacity:1"
   d="m 629.00102,230.34514 h 6.14653 l 2.04067,0.16215 1.12524,0.1958 1.57485,0.44983 1.37911,0.54025 1.49645,0.7516 1.16369,0.77595 1.20645,0.95903 1.07493,1.06678 1.10141,1.41858 0.59407,1.15017 0.53577,1.29562 0.50772,1.37166 0.10921,1.53404 0.0194,1.06304 v 58.84882 l -0.13659,1.11926 -0.20644,0.99352 -0.32745,0.91705 -0.29571,0.89047 -0.50231,0.98861 -0.70348,1.07299 -0.72708,0.83286 -1.14245,1.23233 -0.95483,0.85066 -1.12308,0.73997 -1.3029,0.76381 -1.57811,0.62016 -1.75304,0.42102 -1.62477,0.25271 -1.92906,0.0356 h -12.21387 l -1.24442,-0.14383 -1.4416,-0.26549 -1.20902,-0.35471 -1.34067,-0.59104 -1.25475,-0.64623 -0.90721,-0.54019 -1.03832,-0.82205 -0.71078,-0.73973 -0.67126,-0.637 -1.26722,-1.78936 -1.08212,-2.39712 -0.42262,-1.73523 -0.0315,-1.7747 v -59.09125 l 0.14146,-0.91133 0.21007,-0.66319 0.29836,-1.07418 0.44186,-1.07962 0.47325,-1.02037 0.3698,-0.61649 0.99623,-1.3542 0.95716,-1.00285 0.94225,-0.85279 0.88252,-0.60543 1.18795,-0.67902 1.33894,-0.6658 0.87252,-0.36273 0.97938,-0.32262 0.90474,-0.18457 1.43288,-0.23808 0.46681,-0.0585 1.01236,-0.055 z"
   id="path308" /><path
   style="fill:none;stroke:#000000;stroke-width:1px;stroke-linecap:butt;stroke-linejoin:miter;stroke-opacity:1"
   d="m 629.00102,630.67137 h 6.14653 l 2.04067,0.16215 1.12524,0.1958 1.57485,0.44983 1.37911,0.54025 1.49645,0.7516 1.16369,0.77595 1.20645,0.95903 1.07493,1.06679 1.10141,1.41857 0.59407,1.15018 0.53577,1.29561 0.50772,1.37166 0.10921,1.53404 0.0194,1.06304 v 58.84882 l -0.13659,1.11926 -0.20644,0.99352 -0.32745,0.91705 -0.29571,0.89047 -0.50231,0.98861 -0.70348,1.07299 -0.72708,0.83286 -1.14245,1.23234 -0.95483,0.85065 -1.12308,0.73997 -1.3029,0.76381 -1.57811,0.62016 -1.75304,0.42102 -1.62477,0.25271 -1.92906,0.0356 h -12.21387 l -1.24442,-0.14383 -1.4416,-0.26549 -1.20902,-0.35471 -1.34067,-0.59104 -1.25475,-0.64623 -0.90721,-0.54019 -1.03832,-0.82205 -0.71078,-0.73973 -0.67126,-0.637 -1.26722,-1.78936 -1.08212,-2.39711 -0.42262,-1.73524 -0.0315,-1.7747 v -59.09124 l 0.14146,-0.91134 0.21007,-0.66319 0.29836,-1.07418 0.44186,-1.07962 0.47325,-1.02037 0.3698,-0.61649 0.99623,-1.3542 0.95716,-1.00285 0.94225,-0.85279 0.88252,-0.60543 1.18795,-0.67902 1.33894,-0.6658 0.87252,-0.36273 0.97938,-0.32262 0.90474,-0.18457 1.43288,-0.23808 0.46681,-0.0584 1.01236,-0.055 z"
   id="path310" /><path
   style="fill:none;stroke:#000000;stroke-width:1px;stroke-linecap:butt;stroke-linejoin:miter;stroke-opacity:1"
   d="m 621.438,378.1497 0.70818,-0.63464 1.18544,-0.67822 1.49308,-0.35016 h 9.88039 l 0.9459,0.22251 1.22042,0.49905 0.95096,0.6222 0.98765,1.03877 0.49251,1.27283 0.1353,0.89311 v 8.26333 l -0.29531,1.45698 -0.52572,0.96402 -0.8249,0.79784 -1.00431,0.74944 -0.79414,0.33325 -1.10162,0.0725 h -10.97976 l -1.03352,-0.40823 -0.90412,-0.58196 -0.5953,-0.47107 -0.67061,-0.93824 -0.45713,-1.10739 v -9.55694 l 0.26228,-1.05821 z"
   id="path312" /><path
   style="fill:none;stroke:#000000;stroke-width:1px;stroke-linecap:butt;stroke-linejoin:miter;stroke-opacity:1"
   d="m 621.438,416.91793 0.70818,-0.63464 1.18544,-0.67822 1.49308,-0.35016 h 9.88039 l 0.9459,0.22251 1.22042,0.49905 0.95096,0.6222 0.98765,1.03877 0.49251,1.27283 0.1353,0.8931 v 8.26333 l -0.29531,1.45699 -0.52572,0.96401 -0.8249,0.79784 -1.00431,0.74945 -0.79414,0.33325 -1.10162,0.0725 h -10.97976 l -1.03352,-0.40823 -0.90412,-0.58195 -0.5953,-0.47107 -0.67061,-0.93824 -0.45713,-1.1074 v -9.55693 l 0.26228,-1.05821 z"
   id="path314" /><path
   style="fill:none;stroke:#000000;stroke-width:1px;stroke-linecap:butt;stroke-linejoin:miter;stroke-opacity:1"
   d="m 621.438,456.62294 0.70818,-0.63464 1.18544,-0.67822 1.49308,-0.35016 h 9.88039 l 0.9459,0.22251 1.22042,0.49905 0.95096,0.6222 0.98765,1.03877 0.49251,1.27283 0.1353,0.89311 v 8.26333 l -0.29531,1.45698 -0.52572,0.96402 -0.8249,0.79784 -1.00431,0.74944 -0.79414,0.33325 -1.10162,0.0725 h -10.97976 l -1.03352,-0.40823 -0.90412,-0.58196 -0.5953,-0.47107 -0.67061,-0.93824 -0.45713,-1.10739 v -9.55694 l 0.26228,-1.05821 z"
   id="path316" /><path
   style="fill:none;stroke:#000000;stroke-width:1px;stroke-linecap:butt;stroke-linejoin:miter;stroke-opacity:1"
   d="m 621.438,495.43967 0.70818,-0.63464 1.18544,-0.67822 1.49308,-0.35016 h 9.88039 l 0.9459,0.22251 1.22042,0.49906 0.95096,0.62219 0.98765,1.03877 0.49251,1.27283 0.1353,0.89311 v 8.26333 l -0.29531,1.45698 -0.52572,0.96402 -0.8249,0.79784 -1.00431,0.74944 -0.79414,0.33325 -1.10162,0.0725 h -10.97976 l -1.03352,-0.40823 -0.90412,-0.58196 -0.5953,-0.47107 -0.67061,-0.93824 -0.45713,-1.10739 v -9.55694 l 0.26228,-1.05821 z"
   id="path318" /><path
   style="fill:none;stroke:#000000;stroke-width:1px;stroke-linecap:butt;stroke-linejoin:miter;stroke-opacity:1"
   d="m 705.29946,104.37113 h 4.94953 l 1.01129,0.19824 1.02198,0.65847 0.7694,0.84434 0.62305,1.2788 0.41165,1.37503 0.60375,2.17711 0.53032,2.14857 0.38266,1.97177 0.31418,1.95565 0.25283,2.01634 0.22113,2.18648 0.14186,2.361 0.0464,2.06343 -0.0339,2.90094 -0.18666,2.93049 -0.2597,3.12611 -0.3257,2.7483 -0.47254,2.43606 -0.38375,2.06954 -0.62275,2.43127 -0.48757,1.70574 -0.56732,1.13614 -0.65604,0.75733 -0.78933,0.54765 -0.77997,0.31884 -0.82705,0.0912 h -5.1673 -0.22961 V 104.3608 Z"
   id="path320" /><path
   style="fill:none;stroke:#000000;stroke-width:1px;stroke-linecap:butt;stroke-linejoin:miter;stroke-opacity:1"
   d="m 555.36415,96.79743 h -3.36229 l -0.95244,0.257903 -0.88685,0.751973 -0.3797,1.096 v 10.805304 l 0.39974,1.00083 0.47383,0.71418 0.63631,0.44263 0.50741,0.16001 h 3.36617 0.21167 z"
   id="path322" /><path
   style="fill:none;stroke:#000000;stroke-width:1px;stroke-linecap:butt;stroke-linejoin:miter;stroke-opacity:1"
   d="m 606.45914,754.88281 h 46.6816 l -23.3408,37.01157 z"
   id="path324" /><path
   style="fill:none;stroke:#000000;stroke-width:1px;stroke-linecap:butt;stroke-linejoin:miter;stroke-opacity:1"
   d="m 606.45914,799.15425 h 46.6816 l -23.3408,37.01158 z"
   id="path326" /><path
   style="fill:none;stroke:#000000;stroke-width:1px;stroke-linecap:butt;stroke-linejoin:miter;stroke-opacity:1"
   d="m 606.45914,843.45307 h 46.6816 l -23.3408,37.01157 z"
   id="path328" /><path
   style="fill:none;stroke:#000000;stroke-width:1px;stroke-linecap:butt;stroke-linejoin:miter;stroke-opacity:1"
   d="m 631.08566,744.09088 h 27.01297 l 1.86984,0.28056 1.34197,0.35953 1.60607,0.66442 1.16604,0.75231 1.14122,0.87807 0.78333,0.82564 0.70342,0.79681 0.63184,1.1132 0.47977,0.98925 0.34526,1.02821 0.24865,1.1979 0.0693,0.83215 V 879.2657 l -0.0521,0.87246 -0.16665,1.05093 -0.4222,1.19798 -0.73285,1.49568 -0.85365,1.15139 -1.41766,1.35545 -1.17786,0.91919 -1.59645,0.85969 -1.9127,0.61604 -1.74431,0.19552 h -57.29204 l -1.482,-0.11727 -1.53793,-0.37996 -1.02579,-0.42 -1.04703,-0.55634 -0.79838,-0.48636 -1.0868,-0.81742 -1.17978,-1.27967 -0.68706,-0.9209 -0.43671,-0.77673 -0.39717,-0.767 -0.36431,-1.03771 -0.17137,-0.7968 -0.0855,-1.22177 V 753.93716 l 0.0755,-1.10125 0.20402,-0.95266 0.22661,-0.79994 0.34294,-0.76508 0.79684,-1.47328 0.86432,-1.14459 1.36362,-1.22506 1.4025,-0.94965 0.76822,-0.40272 1.66903,-0.59365 1.31204,-0.25027 1.48443,-0.18258 1.15796,0.007 z"
   id="path330" /><path
   style="fill:none;stroke:#000000;stroke-width:1px;stroke-linecap:butt;stroke-linejoin:miter;stroke-opacity:1"
   d="M 584.21811,7.65169 V 4.49517 l 0.37148,-1.45881 0.75589,-1.0701 1.18763,-0.98136 1.7025,-0.4849 h 45.22792 l 1.58355,0.18907 1.21322,0.58954 0.86017,0.63523 0.62083,0.6164 0.7767,1.22224 0.27256,1.40251 v 2.49159 z"
   id="path332" /><path
   style="font-variation-settings:normal;opacity:1;vector-effect:none;fill:#1a1a1a;fill-opacity:1;stroke:#000000;stroke-width:1px;stroke-linecap:butt;stroke-linejoin:miter;stroke-miterlimit:4;stroke-dasharray:none;stroke-dashoffset:0;stroke-opacity:1;stop-color:#000000;stop-opacity:1"
   d="m 554.98557,432.43405 h -3.31475 l -1.21084,0.19637 -1.41973,0.53148 -1.57035,0.97256 -0.93192,0.98282 -0.8244,1.3043 -0.46075,1.29161 -0.0637,0.91286 -0.15809,2.36293 -0.25772,3.06459 -0.2171,3.23628 -0.2039,3.99231 -0.12562,3.06085 -0.14526,4.35383 -0.0857,5.46574 v 13.91733 l 0.15624,2.15982 0.0695,2.19857 0.20282,3.01372 0.22689,2.9539 0.16898,2.8368 0.32646,4.37396 0.12161,1.93446 0.12107,1.1854 0.30831,1.25066 0.75377,1.1347 1.01957,0.99641 1.54585,0.8017 1.28043,0.2251 h 4.57179 0.17232 z"
   id="path334" /><path
   style="font-variation-settings:normal;opacity:1;vector-effect:none;fill:#333333;fill-opacity:1;stroke:#000000;stroke-width:1px;stroke-linecap:butt;stroke-linejoin:miter;stroke-miterlimit:4;stroke-dasharray:none;stroke-dashoffset:0;stroke-opacity:1;stop-color:#000000;stop-opacity:1"
   d="m 623.16399,509.7252 c -1.86536,-1.02291 -2.1028,-1.82183 -2.1028,-7.07526 0,-2.80207 0.2272,-5.52031 0.5049,-6.04053 0.84751,-1.58768 3.29928,-2.27201 8.13996,-2.27201 5.00157,0 7.20063,0.65862 8.41787,2.52116 0.6351,0.97179 0.75055,2.11999 0.62046,6.17096 -0.15361,4.78335 -0.21085,5.02101 -1.47093,6.10684 -1.23902,1.0677 -1.63727,1.12904 -7.24299,1.11557 -3.38454,-0.008 -6.33323,-0.23432 -6.86647,-0.52673 z"
   id="path450" /><path
   style="font-variation-settings:normal;opacity:1;vector-effect:none;fill:#333333;fill-opacity:1;stroke:#000000;stroke-width:1px;stroke-linecap:butt;stroke-linejoin:miter;stroke-miterlimit:4;stroke-dasharray:none;stroke-dashoffset:0;stroke-opacity:1;stop-color:#000000;stop-opacity:1"
   d="m 622.20817,470.23129 c -1.07977,-1.08255 -1.14698,-1.45415 -1.14698,-6.34115 0,-5.98583 0.48956,-7.20245 3.20225,-7.95786 2.54373,-0.70837 9.63702,-0.59497 11.49604,0.18378 2.71316,1.13655 3.16702,2.35731 2.9849,8.02851 -0.15361,4.78335 -0.21085,5.021 -1.47093,6.10685 -1.24552,1.07329 -1.62647,1.1298 -7.6147,1.1298 -6.06965,0 -6.34616,-0.0427 -7.45058,-1.14993 z"
   id="path452" /><path
   style="font-variation-settings:normal;opacity:1;vector-effect:none;fill:#333333;fill-opacity:1;stroke:#000000;stroke-width:1px;stroke-linecap:butt;stroke-linejoin:miter;stroke-miterlimit:4;stroke-dasharray:none;stroke-dashoffset:0;stroke-opacity:1;stop-color:#000000;stop-opacity:1"
   d="m 622.20817,430.40935 c -1.0843,-1.08709 -1.14698,-1.44329 -1.14698,-6.51726 v -5.36733 l 1.43772,-1.21288 c 1.37474,-1.15974 1.68693,-1.2128 7.12617,-1.21113 8.70798,0.003 9.47229,0.76311 9.12497,9.07864 -0.14285,3.42031 -0.32051,4.12788 -1.29836,5.1712 -1.11213,1.18659 -1.25141,1.2087 -7.61469,1.2087 -6.25891,0 -6.5213,-0.0395 -7.62883,-1.14994 z"
   id="path454" /><path
   style="font-variation-settings:normal;opacity:1;vector-effect:none;fill:#333333;fill-opacity:1;stroke:#000000;stroke-width:1px;stroke-linecap:butt;stroke-linejoin:miter;stroke-miterlimit:4;stroke-dasharray:none;stroke-dashoffset:0;stroke-opacity:1;stop-color:#000000;stop-opacity:1"
   d="m 622.49891,391.92995 -1.43772,-1.21289 V 385.335 c 0,-5.32394 0.0147,-5.39685 1.36592,-6.75151 1.35952,-1.36302 1.39249,-1.36944 7.03255,-1.36944 8.60514,0 9.35854,0.64549 9.35854,8.01815 0,7.14495 -0.90326,7.91062 -9.33193,7.91062 -5.28868,0 -5.61725,-0.057 -6.98736,-1.21287 z"
   id="path456" /><path
   style="font-variation-settings:normal;opacity:1;vector-effect:none;fill:#00c7e7;fill-opacity:0.992157;stroke:#000000;stroke-width:1px;stroke-linecap:butt;stroke-linejoin:miter;stroke-miterlimit:4;stroke-dasharray:none;stroke-dashoffset:0;stroke-opacity:1;stop-color:#000000;stop-opacity:1"
   d="m 578.39048,992.84964 c -8.70232,-4.03943 -16.68083,-12.02535 -19.50726,-19.52538 -1.38559,-3.67672 -1.97563,-146.2211 -1.94702,-470.36738 0.0395,-447.17165 0.17326,-465.38378 3.47234,-472.66539 4.14474,-9.14813 12.89582,-16.88919 22.27909,-19.70773 4.35355,-1.30772 19.44565,-1.84747 40.56997,-1.45096 30.22651,0.56738 34.57017,1.06216 42.83445,4.87923 13.20933,6.10107 24.6743,16.18962 31.03575,27.30978 l 5.52666,9.66092 0.0175,450.79122 0.0175,450.7912 -4.81942,9.69624 c -6.17534,12.42422 -20.57654,25.38503 -33.65886,30.29237 -8.98936,3.37201 -14.47623,3.84358 -44.30212,3.80752 -29.14015,-0.0352 -35.11862,-0.54089 -41.51866,-3.51164 z m 94.98269,-94.17437 c 2.2455,-1.18498 4.70069,-3.08239 5.45597,-4.21644 0.75529,-1.13408 1.38613,-188.16996 1.40187,-415.63536 l 0.0286,-413.57341 -4.15422,-2.91723 c -3.47105,-2.43748 -11.30938,-2.91722 -47.66355,-2.91722 -41.01713,0 -43.72347,0.21468 -47.24765,3.74795 -3.71562,3.72519 -3.73832,6.24658 -3.73832,415.20835 0,287.55489 0.59966,412.58379 1.99135,415.19087 1.09524,2.05175 3.82888,4.47274 6.07476,5.37995 6.30469,2.54676 82.96056,2.31338 87.85116,-0.26746 z"
   id="path460" /><path
   style="font-variation-settings:normal;opacity:1;vector-effect:none;fill:#1a1a1a;fill-opacity:1;stroke:#000000;stroke-width:1px;stroke-linecap:butt;stroke-linejoin:miter;stroke-miterlimit:4;stroke-dasharray:none;stroke-dashoffset:0;stroke-opacity:1;stop-color:#000000;stop-opacity:1"
   d="m 518.18635,334.34636 c -2.0133,-0.74316 -4.7444,-2.43786 -6.06913,-3.766 -2.24227,-2.24804 -2.45006,-3.20634 -3.00903,-13.87724 -0.37592,-7.17651 -1.34402,-14.09008 -2.5891,-18.48986 -4.49032,-15.86754 -5.9821,-36.98433 -3.75165,-53.1062 0.55771,-4.0312 2.23996,-12.10143 3.73832,-17.93387 2.04085,-7.94409 2.72517,-12.76287 2.72779,-19.20823 0.003,-6.76442 0.37876,-9.22079 1.75882,-11.48976 3.34452,-5.49877 13.94314,-8.16727 17.96065,-4.52211 1.70953,1.55109 1.77236,4.0545 1.77236,70.62081 0,53.82758 -0.25772,69.36608 -1.17129,70.61868 -1.62169,2.2235 -6.99289,2.76866 -11.36774,1.15378 z"
   id="path462" /><path
   style="font-variation-settings:normal;opacity:1;vector-effect:none;fill:#1a1a1a;fill-opacity:1;stroke:#000000;stroke-width:1px;stroke-linecap:butt;stroke-linejoin:miter;stroke-miterlimit:4;stroke-dasharray:none;stroke-dashoffset:0;stroke-opacity:1;stop-color:#000000;stop-opacity:1"
   d="m 532.33814,262.77279 v -19.58771 l 0.74345,0.53648 c 1.46593,1.05782 3.20996,1.86326 4.03453,1.86326 h 0.83922 v 17.02133 17.02133 l -1.42098,0.35872 c -0.78154,0.19731 -2.04541,0.81224 -2.8086,1.36651 l -1.38762,1.00777 z"
   id="path466" /><path
   style="font-variation-settings:normal;opacity:1;vector-effect:none;fill:#1a1a1a;fill-opacity:1;stroke:#000000;stroke-width:1px;stroke-linecap:butt;stroke-linejoin:miter;stroke-miterlimit:4;stroke-dasharray:none;stroke-dashoffset:0;stroke-opacity:1;stop-color:#000000;stop-opacity:1"
   d="m 552.92579,305.12795 c -4.61024,-3.77319 -9.57996,-11.63826 -12.26532,-19.41107 l -1.21822,-3.52618 -0.0956,-18.65027 -0.0956,-18.65026 0.82611,-3.11181 c 2.00396,-7.54852 7.57379,-16.9297 12.61547,-21.24804 0.99001,-0.84797 1.87129,-1.47031 1.9584,-1.38298 0.0871,0.0873 0.12066,19.78469 0.0746,43.7719 l -0.0838,43.61311 z"
   id="path468" /><path
   style="font-variation-settings:normal;opacity:1;vector-effect:none;fill:#1a1a1a;fill-opacity:1;stroke:#000000;stroke-width:1px;stroke-linecap:butt;stroke-linejoin:miter;stroke-miterlimit:4;stroke-dasharray:none;stroke-dashoffset:0;stroke-opacity:1;stop-color:#000000;stop-opacity:1"
   d="m 554.24531,759.98113 c -0.38562,-0.0754 -1.29674,-1.11586 -1.37849,-1.57424 -0.0387,-0.21672 -0.0553,-12.84316 -0.037,-28.05878 l 0.0333,-27.66475 0.4632,-0.47558 c 0.38607,-0.39639 0.98445,-0.70336 1.37675,-0.70627 0.0482,-3.7e-4 0.0876,13.17572 0.0876,29.28017 0,23.3551 -0.0295,29.27762 -0.14603,29.26489 -0.0803,-0.009 -0.26001,-0.0382 -0.39932,-0.0655 z"
   id="path470" /><path
   style="font-variation-settings:normal;opacity:1;vector-effect:none;fill:#00c8e8;fill-opacity:0.992157;stroke:#000000;stroke-width:1px;stroke-linecap:butt;stroke-linejoin:miter;stroke-miterlimit:4;stroke-dasharray:none;stroke-dashoffset:0;stroke-opacity:1;stop-color:#000000;stop-opacity:1"
   d="m 620.705,712.79661 c -3.57448,-0.87245 -6.25382,-2.68494 -8.0982,-5.4782 l -1.81451,-2.74802 -0.19044,-30.36192 c -0.12533,-19.98337 0.05,-31.25722 0.51302,-32.98107 0.89622,-3.33689 3.39689,-6.31469 6.86466,-8.17447 2.42416,-1.3001 3.71175,-1.46168 11.64691,-1.46168 7.87316,0 9.23204,0.16758 11.56483,1.42625 3.17156,1.71124 5.27941,3.87583 6.23403,6.40184 1.14299,3.02444 0.95659,63.4971 -0.2043,66.28267 -1.21207,2.90836 -5.1952,6.10445 -8.71509,6.99306 -3.15384,0.79619 -14.68536,0.86196 -17.80091,0.10154 z m 0.52845,-23.65672 c 1.16322,-0.59784 3.35864,-1.93991 4.87872,-2.98238 2.69355,-1.84722 2.77475,-1.86073 3.1955,-0.53165 0.63441,2.00401 4.29991,3.54468 7.15552,3.00758 4.05952,-0.76353 5.0585,-2.82168 5.0585,-10.42179 v -6.53615 h -11.56483 -11.56483 v 2.31892 2.31893 h 4.6719 c 4.46693,0 4.66263,0.0654 4.46072,1.49074 -0.14172,1.00046 -1.67822,2.44451 -4.6719,4.3908 -4.24127,2.7574 -4.46072,3.0263 -4.46072,5.46603 0,2.93489 0.004,2.93714 2.84142,1.47897 z m 8.72451,-20.28022 c 0.99255,-0.85681 2.35557,-3.3221 3.20525,-5.79732 1.14206,-3.32696 1.77229,-4.30657 2.77065,-4.30657 1.01595,0 1.33614,0.53052 1.4972,2.48065 0.17554,2.12547 -0.041,2.59297 -1.51244,3.26512 -1.04809,0.47877 -1.5786,1.1469 -1.36136,1.71448 0.19578,0.5115 0.35596,1.50192 0.35596,2.20091 0,2.45771 4.7924,0.83849 6.32761,-2.13792 1.93784,-3.75702 0.66824,-10.20362 -2.32592,-11.81016 -2.08149,-1.11685 -5.66885,-0.79036 -7.54137,0.68637 -1.06893,0.84298 -2.12481,2.71159 -2.7494,4.86564 -1.30345,4.49527 -2.32205,5.8966 -3.8569,5.30611 -2.96077,-1.13908 -2.46214,-6.53156 0.67699,-7.32146 1.60085,-0.40282 2.05547,-2.37553 0.95041,-4.12404 -0.8873,-1.40395 -4.41318,-0.29463 -6.33262,1.99237 -1.36577,1.62731 -1.66572,2.67452 -1.64657,5.7486 0.0129,2.06736 0.41734,4.47138 0.8988,5.34228 1.94785,3.52339 7.593,4.52842 10.64371,1.89494 z"
   id="path472" /><path
   style="font-variation-settings:normal;opacity:1;vector-effect:none;fill:#00c8e8;fill-opacity:0.992157;stroke:#000000;stroke-width:1px;stroke-linecap:butt;stroke-linejoin:miter;stroke-miterlimit:4;stroke-dasharray:none;stroke-dashoffset:0;stroke-opacity:1;stop-color:#000000;stop-opacity:1"
   d="m 632.81036,683.17958 c -0.63556,-0.67826 -0.71845,-1.13691 -0.71845,-3.9753 v -3.20858 h 2.64339 2.64339 v 3.10243 c 0,2.63704 -0.10273,3.23338 -0.68483,3.97531 -0.91474,1.16589 -2.84114,1.21855 -3.8835,0.10614 z"
   id="path474" /><path
   style="font-variation-settings:normal;opacity:1;vector-effect:none;fill:#00c8e8;fill-opacity:0.992157;stroke:#000000;stroke-width:1px;stroke-linecap:butt;stroke-linejoin:miter;stroke-miterlimit:4;stroke-dasharray:none;stroke-dashoffset:0;stroke-opacity:1;stop-color:#000000;stop-opacity:1"
   d="m 616.46204,310.39434 c -5.47818,-3.70126 -5.49714,-3.83259 -5.50839,-38.15409 -0.01,-29.83751 0.0829,-31.54228 1.87469,-34.48874 2.73782,-4.50213 8.24462,-6.69753 16.79963,-6.69753 8.55502,0 14.06181,2.1954 16.79963,6.69753 1.78955,2.94276 1.88515,4.66575 1.88847,34.03487 0.003,28.17503 -0.14888,31.22002 -1.70423,34.12762 -2.76995,5.17816 -6.58155,6.61668 -17.53201,6.61668 -8.29531,0 -9.84388,-0.26218 -12.61779,-2.13634 z m 6.62388,-24.56778 v -5.15343 h 9.34579 9.34579 v -2.81096 -2.81096 h -11.68224 -11.68224 v 7.96439 c 0,7.87069 0.0275,7.96439 2.33645,7.96439 2.209,0 2.33645,-0.2811 2.33645,-5.15343 z m 7.19177,-16.60471 c 0.61435,-0.48058 1.8118,-2.97101 2.661,-5.53429 1.56982,-4.73845 3.45098,-5.63759 3.99782,-1.91083 0.17631,1.20159 -0.30348,2.27088 -1.16822,2.60357 -1.97767,0.76085 -1.99781,5.98598 -0.0231,5.98598 2.81061,0 6.03228,-4.36968 6.03228,-8.18181 0,-5.20798 -2.11398,-7.74697 -6.4502,-7.74697 -4.07241,0 -5.86517,1.61669 -7.51851,6.7801 -1.35947,4.24563 -2.57682,5.14292 -4.44132,3.27361 -1.76893,-1.77348 -0.85011,-5.06157 1.63541,-5.85248 1.94089,-0.6176 2.48166,-3.68149 0.83037,-4.70467 -0.54505,-0.33773 -2.20902,-0.10823 -3.69771,0.51 -4.7382,1.96768 -5.99329,10.80551 -2.03404,14.32285 2.68539,2.38565 7.43647,2.59805 10.17619,0.45494 z"
   id="path476" /><path
   style="font-variation-settings:normal;opacity:1;vector-effect:none;fill:#1a1a1a;fill-opacity:1;stroke:#000000;stroke-width:1px;stroke-linecap:butt;stroke-linejoin:miter;stroke-miterlimit:4;stroke-dasharray:none;stroke-dashoffset:0;stroke-opacity:1;stop-color:#000000;stop-opacity:1"
   d="m 583.49685,894.32132 c -2.63205,-2.63883 -2.64339,-4.41699 -2.64339,-414.70451 V 67.56249 l 2.89261,-2.70182 c 2.78687,-2.60305 4.44849,-2.70182 45.45206,-2.70182 39.9348,0 42.75186,0.15622 45.67967,2.53317 l 3.12024,2.53318 v 412.34008 412.34008 l -3.12024,2.53308 c -2.9286,2.37751 -5.74931,2.53308 -45.92889,2.53308 -41.04641,0 -42.91748,-0.1091 -45.45206,-2.6502 z m 81.84368,-7.40583 4.06649,-3.43056 v -66.85996 -66.85996 l -3.24416,-3.25251 -3.24416,-3.25253 h -33.16252 -33.16253 l -3.24416,3.25253 -3.24416,3.25251 v 66.7245 c 0,51.38889 0.37971,67.20166 1.65212,68.80066 3.62406,4.55426 6.83181,4.97512 38.22774,5.01556 l 31.28885,0.0403 z M 641.36699,714.00865 c 7.9414,-2.77551 8.21461,-4.18098 8.21461,-42.25742 0,-32.95752 -0.12049,-34.62 -2.69617,-37.20231 -1.48289,-1.48673 -4.19804,-3.27561 -6.03367,-3.97531 -4.95757,-1.88972 -18.47158,-1.53989 -23.60635,0.61107 -8.08162,3.38542 -8.63635,6.0746 -8.63635,41.86634 0,20.04755 0.52394,32.93682 1.40605,34.58929 2.69585,5.05023 9.20455,7.78232 18.55257,7.78763 4.79831,0.003 10.55801,-0.63596 12.79931,-1.41929 z M 639.14301,573.2665 c 8.81024,-5.946 9.94161,-15.66869 2.63944,-22.68264 -6.97318,-6.69795 -19.41213,-5.93193 -25.28802,1.55732 -3.21578,4.09873 -3.44654,13.07715 -0.44647,17.37137 4.76762,6.82428 15.87146,8.62913 23.09505,3.75395 z m -1.36978,-61.94554 c 2.03057,-1.08953 2.55651,-2.80695 2.55651,-8.34813 0,-3.83703 -0.71372,-7.69196 -1.58604,-8.56653 -0.87232,-0.87457 -4.9167,-1.59012 -8.98752,-1.59012 -4.07082,0 -8.11521,0.71555 -8.98753,1.59012 -2.57798,2.58462 -2.032,15.24407 0.72693,16.85513 3.02779,1.76807 13.02528,1.80463 16.27765,0.0595 z m 0.46587,-39.18559 c 3.0003,-1.1543 3.0003,-15.78846 0,-16.94275 -3.66595,-1.41039 -15.82543,-0.86346 -17.47045,0.7858 -0.87232,0.87456 -1.58603,4.33307 -1.58603,7.68557 0,3.35251 0.71371,6.81101 1.58603,7.68558 1.64502,1.64926 13.8045,2.19618 17.47045,0.7858 z m 0,-39.75299 c 3.0003,-1.15429 3.0003,-15.78845 0,-16.94275 -3.66595,-1.41038 -15.82543,-0.86346 -17.47045,0.7858 -0.87232,0.87457 -1.58603,4.33307 -1.58603,7.68558 0,3.3525 0.71371,6.81101 1.58603,7.68557 1.64502,1.64926 13.8045,2.19619 17.47045,0.7858 z m 0.5046,-39.21368 c 0.87232,-0.87457 1.58604,-4.72951 1.58604,-8.56653 0,-8.09257 -1.7702,-9.71984 -10.57356,-9.71984 -8.80337,0 -10.57356,1.62727 -10.57356,9.71984 0,3.83702 0.71371,7.69196 1.58603,8.56653 0.87232,0.87457 4.91671,1.59012 8.98753,1.59012 4.07082,0 8.1152,-0.71555 8.98752,-1.59012 z m 6.9047,-82.58433 3.9332,-3.77795 v -34.29178 c 0,-22.03018 -0.51063,-35.24838 -1.42808,-36.96705 -2.15439,-4.03588 -9.35774,-6.42677 -19.34616,-6.42125 -10.21122,0.005 -16.75549,3.01486 -18.90955,8.69506 -0.70882,1.86912 -1.28875,17.83614 -1.28875,35.48223 0,27.49791 0.30761,32.52415 2.15212,35.16432 3.58912,5.1374 9.29638,6.89527 20.679,6.36923 9.16778,-0.42368 10.69887,-0.88197 14.20822,-4.25281 z"
   id="path480" /><path
   style="font-variation-settings:normal;opacity:1;vector-effect:none;fill:#000000;fill-opacity:1;stroke:#000000;stroke-width:1px;stroke-linecap:butt;stroke-linejoin:miter;stroke-miterlimit:4;stroke-dasharray:none;stroke-dashoffset:0;stroke-opacity:1;stop-color:#000000;stop-opacity:1"
   d="m 597.02445,886.69316 c -1.02804,-0.56681 -2.59579,-1.92434 -3.48389,-3.01672 -1.49488,-1.83874 -1.61628,-6.80681 -1.63552,-66.93409 -0.0137,-42.79314 0.30747,-65.56286 0.94151,-66.75061 2.32691,-4.35909 4.50276,-4.63303 36.79779,-4.63303 19.85047,0 31.1476,0.35234 32.60224,1.01683 1.22428,0.55926 2.92631,2.20548 3.78229,3.65827 1.41138,2.39542 1.55633,8.63626 1.55633,67.00841 v 64.36697 l -3.17757,3.18575 -3.17757,3.18576 -31.16823,-0.0285 c -20.85793,-0.019 -31.78653,-0.36941 -33.03738,-1.05906 z m 45.72532,-24.67959 11.80651,-18.73974 -12.70029,-0.26105 c -6.98517,-0.14358 -18.12085,-0.14358 -24.74598,0 l -12.04567,0.26105 12.2729,19.45808 c 6.7501,10.70195 12.57285,19.13483 12.93946,18.73974 0.3666,-0.3951 5.97949,-9.15123 12.47307,-19.45808 z m -0.16457,-43.9508 c 6.55374,-10.47489 11.91589,-19.31245 11.91589,-19.63902 0,-0.32658 -11.14486,-0.59378 -24.76636,-0.59378 -13.62149,0 -24.76635,0.21875 -24.76635,0.48611 0,0.51867 22.04168,35.72291 23.60185,37.6961 0.50934,0.64418 1.19,1.15427 1.51258,1.13353 0.32257,-0.0208 5.94865,-8.60805 12.50239,-19.08294 z m 0.59368,-45.27958 c 6.22721,-9.91067 11.32221,-18.23813 11.32221,-18.5055 0,-0.26735 -11.14486,-0.48611 -24.76636,-0.48611 -13.62149,0 -24.76635,0.17632 -24.76635,0.3918 0,0.3071 12.11792,19.71746 23.07525,36.96168 1.17961,1.85643 1.6037,2.00864 2.61072,0.93699 0.66128,-0.70372 6.29732,-9.38821 12.52453,-19.29886 z"
   id="path486" /><path
   style="font-variation-settings:normal;opacity:1;vector-effect:none;fill:#1a1a1a;fill-opacity:1;stroke:#000000;stroke-width:1px;stroke-linecap:butt;stroke-linejoin:miter;stroke-miterlimit:4;stroke-dasharray:none;stroke-dashoffset:0;stroke-opacity:1;stop-color:#000000;stop-opacity:1"
   d="m 627.22564,786.2996 c -1.36595,-2.15648 -6.28035,-9.93268 -10.92087,-17.28047 l -8.43732,-13.35962 21.71147,-0.1218 c 11.9413,-0.067 21.793,-0.0401 21.89266,0.0598 0.16849,0.16893 -20.53294,33.2929 -21.37902,34.20818 -0.21085,0.22809 -1.50096,-1.34967 -2.86692,-3.50614 z"
   id="path488" /><path
   style="font-variation-settings:normal;opacity:1;vector-effect:none;fill:#1a1a1a;fill-opacity:1;stroke:#000000;stroke-width:1px;stroke-linecap:butt;stroke-linejoin:miter;stroke-miterlimit:4;stroke-dasharray:none;stroke-dashoffset:0;stroke-opacity:1;stop-color:#000000;stop-opacity:1"
   d="m 618.93991,817.4616 c -5.9568,-9.4452 -10.74845,-17.25539 -10.6481,-17.35599 0.10035,-0.10061 9.87754,-0.12809 21.7271,-0.0611 l 21.54464,0.12185 -10.771,17.10002 c -5.92405,9.405 -10.82749,17.16037 -10.89655,17.23414 -0.069,0.0738 -4.99929,-7.59375 -10.95609,-17.03894 z"
   id="path490" /><path
   style="font-variation-settings:normal;opacity:1;vector-effect:none;fill:#1a1a1a;fill-opacity:1;stroke:#000000;stroke-width:1px;stroke-linecap:butt;stroke-linejoin:miter;stroke-miterlimit:4;stroke-dasharray:none;stroke-dashoffset:0;stroke-opacity:1;stop-color:#000000;stop-opacity:1"
   d="m 627.34816,875.07832 c -1.29113,-2.03552 -6.20112,-9.81477 -10.91108,-17.28724 l -8.56357,-13.58632 21.70844,-0.1218 c 11.93964,-0.067 21.79184,-0.0382 21.89378,0.0641 0.17521,0.17566 -20.53797,33.31574 -21.38241,34.2108 -0.2266,0.24018 -1.40744,-1.1705 -2.74516,-3.27946 z"
   id="path492" /><path
   style="font-variation-settings:normal;opacity:1;vector-effect:none;fill:#00c8e8;fill-opacity:0.992157;stroke:#000000;stroke-width:1px;stroke-linecap:butt;stroke-linejoin:miter;stroke-miterlimit:4;stroke-dasharray:none;stroke-dashoffset:0;stroke-opacity:1;stop-color:#000000;stop-opacity:1"
   d="m 705.94902,175.40947 -0.0303,-25.67381 h 2.58935 c 1.42413,0 3.07073,-0.1852 3.6591,-0.41156 6.23384,-2.39832 6.66628,-39.81075 0.51622,-44.66085 -0.98323,-0.7754 -2.66889,-1.30607 -4.14873,-1.30607 h -2.4926 L 705.74233,79.008477 C 705.43237,53.828 705.28527,52.36562 702.36663,45.44799 c -0.60015,-1.42246 -0.95981,-2.71801 -0.79924,-2.87899 0.73296,-0.73484 6.77569,9.79438 11.3051,19.6987 8.03987,17.580512 12.92059,24.16575 20.92458,28.232123 5.97386,3.034979 10.12842,3.561307 28.19456,3.571868 l 16.75248,0.0098 2.24689,2.252664 c 1.28725,1.290561 2.24478,2.917651 2.24196,3.809665 -0.006,1.78302 -4.60673,10.12411 -8.86443,16.06984 -5.1397,7.17741 -13.21804,16.43802 -27.76099,31.82387 -25.38008,26.85109 -32.85153,36.30476 -38.78153,49.07044 l -1.84663,3.9753 z"
   id="path494" /><path
   style="font-variation-settings:normal;opacity:1;vector-effect:none;fill:#000000;fill-opacity:1;stroke:#000000;stroke-width:1px;stroke-linecap:butt;stroke-linejoin:miter;stroke-miterlimit:4;stroke-dasharray:none;stroke-dashoffset:0;stroke-opacity:1;stop-color:#000000;stop-opacity:1"
   d="m 551.50149,111.19136 c -0.98602,-0.57578 -1.10996,-1.3398 -1.10661,-6.82131 0.002,-2.873 0.0677,-5.465024 0.14652,-5.760064 0.20727,-0.77576 1.25515,-1.22041 2.87607,-1.22041 h 1.41347 v 7.027404 7.02739 l -1.46028,-0.007 c -0.80316,-0.004 -1.64428,-0.11456 -1.86917,-0.24589 z"
   id="path496" /><path
   style="font-variation-settings:normal;opacity:1;vector-effect:none;fill:#000000;fill-opacity:1;stroke:#000000;stroke-width:1px;stroke-linecap:butt;stroke-linejoin:miter;stroke-miterlimit:4;stroke-dasharray:none;stroke-dashoffset:0;stroke-opacity:1;stop-color:#000000;stop-opacity:1"
   d="m 705.29823,126.52862 v -21.6925 l 2.74532,0.0832 c 3.12768,0.0948 3.89424,0.4293 4.72483,2.06157 0.61397,1.20659 1.76821,5.63906 2.33099,8.95136 1.27555,7.50746 1.05966,16.78021 -0.57067,24.51085 -1.52786,7.24475 -1.97566,7.77797 -6.53195,7.77797 h -2.69852 z"
   id="path498" /><path
   style="font-variation-settings:normal;opacity:1;vector-effect:none;fill:#000000;fill-opacity:1;stroke:#000000;stroke-width:1px;stroke-linecap:butt;stroke-linejoin:miter;stroke-miterlimit:4;stroke-dasharray:none;stroke-dashoffset:0;stroke-opacity:1;stop-color:#000000;stop-opacity:1"
   d="m 584.73878,5.9748 c 0.003,-2.26451 1.14147,-4.16777 2.76325,-4.61938 1.23234,-0.34316 46.09771,-0.32639 47.35227,0.0177 0.6001,0.16459 1.31857,0.65313 2.00748,1.36501 1.06534,1.10085 1.37105,1.89697 1.3778,3.58804 l 0.003,0.64418 h -26.75233 -26.75234 l 10e-4,-0.99555 z"
   id="path500" /><path
   style="font-variation-settings:normal;opacity:1;vector-effect:none;fill:#000000;fill-opacity:1;stroke:#000000;stroke-width:1px;stroke-linecap:butt;stroke-linejoin:miter;stroke-miterlimit:4;stroke-dasharray:none;stroke-dashoffset:0;stroke-opacity:1;stop-color:#000000;stop-opacity:1"
   d="m 744.76749,92.346242 c -7.37403,-1.152562 -12.25912,-3.513158 -17.18139,-8.302491 -4.19,-4.076836 -7.92529,-10.187531 -12.10322,-19.800091 -6.80877,-15.6656 -12.44096,-24.51212 -18.59587,-29.20863 -0.83528,-0.63737 -2.71179,-2.49552 -4.17003,-4.12922 -3.50425,-3.92592 -5.49316,-5.94965 -6.99245,-7.1149 -0.67792,-0.52688 -1.19018,-1.00046 -1.13836,-1.05242 0.1682,-0.16863 9.71376,2.18337 14.87094,3.66416 6.54031,1.87794 9.83649,2.91531 21.26168,6.69147 24.21778,8.00427 37.13651,11.3397 48.9486,12.63781 1.92757,0.21183 4.08294,0.48465 4.78972,0.60624 4.01962,0.69158 8.00385,4.57809 8.87032,8.65275 0.19483,0.9162 0.25245,4.67159 0.19948,13.00069 l -0.0745,11.712337 -0.63074,1.349367 c -0.80435,1.720755 -2.07559,3.366455 -5.20034,6.732145 -1.37555,1.481609 -2.82564,3.194539 -3.22244,3.806509 l -0.72144,1.112672 -13.45364,-0.0227 c -9.97413,-0.01682 -13.9716,-0.103643 -15.45634,-0.335708 z"
   id="path502" /></svg>
