<?xml version="1.0" encoding="UTF-8" standalone="no"?>
<svg
   xmlns:dc="http://purl.org/dc/elements/1.1/"
   xmlns:cc="http://creativecommons.org/ns#"
   xmlns:rdf="http://www.w3.org/1999/02/22-rdf-syntax-ns#"
   xmlns:svg="http://www.w3.org/2000/svg"
   xmlns="http://www.w3.org/2000/svg"
   xmlns:sodipodi="http://sodipodi.sourceforge.net/DTD/sodipodi-0.dtd"
   xmlns:inkscape="http://www.inkscape.org/namespaces/inkscape"
   version="1.1"
   id="Layer_1"
   x="0px"
   y="0px"
   viewBox="0 0 1000.8 1000"
   style="enable-background:new 0 0 1000.8 1000;"
   xml:space="preserve"
   sodipodi:docname="Controller_JoyConRight.svg"
   inkscape:version="1.0.1 (3bc2e813f5, 2020-09-07)"><metadata
   id="metadata85"><rdf:RDF><cc:Work
       rdf:about=""><dc:format>image/svg+xml</dc:format><dc:type
         rdf:resource="http://purl.org/dc/dcmitype/StillImage" /><dc:title /></cc:Work></rdf:RDF></metadata><defs
   id="defs83" /><sodipodi:namedview
   pagecolor="#ffffff"
   bordercolor="#666666"
   borderopacity="1"
   objecttolerance="10"
   gridtolerance="10"
   guidetolerance="10"
   inkscape:pageopacity="0"
   inkscape:pageshadow="2"
   inkscape:window-width="1920"
   inkscape:window-height="1003"
   id="namedview81"
   showgrid="false"
   inkscape:zoom="0.715"
   inkscape:cx="500.39999"
   inkscape:cy="504.8442"
   inkscape:window-x="1400"
   inkscape:window-y="0"
   inkscape:window-maximized="1"
   inkscape:current-layer="Layer_1"
   inkscape:document-rotation="0" />
<style
   type="text/css"
   id="style2">
	.st0{opacity:0.1;}
	.st1{fill:#FF5F55;}
	.st2{fill:#FFFFFF;}
</style>
























<style
   type="text/css"
   id="style2-6">
	.st0{opacity:0.1;}
	.st1{fill:#02C5E5;}
	.st2{fill:#FF5F55;}
	.st3{fill:#FFFFFF;}
</style><g
   id="g315"><g
     class="st0"
     id="g64">
	<path
   class="st2"
   d="m 597.9,233.9 v 79.5 h -4.2 c -3.3,0 -6,-2.7 -6,-6 v -67.6 c 0,-3.3 2.7,-6 6,-6 h 4.2 z"
   id="path36" />
	<path
   class="st2"
   d="m 597.9,636.6 v 79.5 h -4.2 c -3.3,0 -6,-2.7 -6,-6 v -67.6 c 0,-3.3 2.7,-6 6,-6 h 4.2 z"
   id="path38" />
	<path
   class="st2"
   d="m 929,134.9 -3.4,3.4 C 892.4,60.3 815.8,9.6 730.9,9.6 H 676.7 V 7 c 0,-3.3 2.7,-6 6,-6 0,0 0,0 0,0 h 51.2 c 84.8,0 161.7,49.8 196.4,127.2 1,2.3 0.5,4.9 -1.3,6.7 z"
   id="path40" />
	<path
   class="st2"
   d="M 679.5,94.5 V 82.8 c 0,-1.6 -1.3,-3 -3,-3 v 0 h -11.7 c -1.6,0 -3,1.3 -3,3 0,0 0,0 0,0 v 11.7 c 0,1.6 -1.3,3 -3,3 v 0 h -11.7 c -1.6,0 -3,1.3 -3,3 0,0 0,0 0,0 v 11.7 c 0,1.6 1.3,3 3,3 v 0 h 11.7 c 1.6,0 3,1.3 3,3 0,0 0,0 0,0 v 11.7 c 0,1.6 1.3,3 3,3 v 0 h 11.7 c 1.6,0 3,-1.3 3,-3 v 0 -11.7 c 0,-1.6 1.3,-3 3,-3 v 0 h 11.7 c 1.6,0 3,-1.3 3,-3 0,0 0,0 0,0 v -11.7 c 0,-1.6 -1.3,-3 -3,-3 v 0 h -11.7 c -1.7,0 -3,-1.4 -3,-3 0,0 0,0 0,0 z"
   id="path42" />
	<circle
   class="st2"
   cx="768.90002"
   cy="333.89999"
   r="37.5"
   id="circle44" />
	<circle
   class="st2"
   cx="768.90002"
   cy="187.10001"
   r="37.5"
   id="circle46" />
	<circle
   class="st2"
   cx="842.29999"
   cy="260.5"
   r="37.5"
   id="circle48" />
	<circle
   class="st2"
   cx="695.5"
   cy="260.5"
   r="37.5"
   id="circle50" />
	<circle
   class="st2"
   cx="715"
   cy="721.29999"
   r="27.9"
   id="circle52" />
	<path
   class="st2"
   d="m 765.6,460.3 v 12.3 c 0,3 -2.2,5.5 -5.2,5.9 -25.2,3.7 -45,23.5 -48.7,48.7 -0.4,2.9 -2.9,5.1 -5.9,5.2 h -12.3 c 1.7,-39.1 33,-70.4 72.1,-72.1 z"
   id="path54" />
	<path
   class="st2"
   d="m 765.6,598.8 v 12.3 c -39.1,-1.7 -70.3,-33 -72.1,-72 h 12.3 c 3,0 5.5,2.2 5.9,5.2 3.7,25.2 23.5,45 48.7,48.7 3,0.3 5.2,2.8 5.2,5.8 z"
   id="path56" />
	<path
   class="st2"
   d="m 844.3,539 c -1.7,39.1 -33,70.3 -72.1,72 v -12.3 c 0,-3 2.2,-5.5 5.2,-5.9 25.2,-3.7 45,-23.5 48.7,-48.7 0.4,-2.9 2.9,-5.1 5.9,-5.2 z"
   id="path58" />
	<path
   class="st2"
   d="M 844.3,532.4 H 832 c -3,0 -5.5,-2.2 -5.9,-5.2 -3.7,-25.2 -23.5,-45 -48.7,-48.7 -2.9,-0.4 -5.1,-2.9 -5.2,-5.9 v -12.3 c 39.1,1.7 70.4,33 72.1,72.1 z"
   id="path60" />
	<path
   class="st2"
   d="m 844.4,535.7 c 0,1.1 0,2.2 -0.1,3.3 H 832 c -3,0 -5.5,2.2 -5.9,5.2 -3.7,25.2 -23.5,45 -48.7,48.7 -2.9,0.4 -5.1,2.9 -5.2,5.9 v 12.3 c -1.1,0.1 -2.2,0.1 -3.3,0.1 -1.1,0 -2.2,0 -3.3,-0.1 v -12.3 c 0,-3 -2.2,-5.5 -5.2,-5.9 -25.2,-3.7 -45,-23.5 -48.7,-48.7 -0.4,-2.9 -2.9,-5.1 -5.9,-5.2 h -12.3 c -0.1,-1.1 -0.1,-2.2 -0.1,-3.3 0,-1.1 0,-2.2 0.1,-3.3 h 12.3 c 3,0 5.5,-2.2 5.9,-5.2 3.7,-25.2 23.5,-45 48.7,-48.7 2.9,-0.4 5.1,-2.9 5.2,-5.9 v -12.3 c 1.1,-0.1 2.2,-0.1 3.3,-0.1 1.1,0 2.2,0 3.3,0.1 v 12.3 c 0,3 2.2,5.5 5.2,5.9 25.2,3.7 45,23.5 48.7,48.7 0.4,2.9 2.9,5.1 5.9,5.2 h 12.3 c 0,1.1 0.1,2.2 0.1,3.3 z"
   id="path62" />
</g><path
     class="st3"
     d="m 601.6,906.6 h -7.9 c -3.6,0 -6.4,-2.9 -6.5,-6.5 V 742.9 c 0,-4.9 1.2,-9.6 3.4,-13.9 l 6.7,-13 v -79.2 l -6.7,-13 c -2.2,-4.3 -3.4,-9.1 -3.4,-14 V 340.1 c 0,-4.9 1.2,-9.6 3.4,-13.9 l 6.7,-13 V 234 l -6.7,-13 c -2.2,-4.3 -3.4,-9.1 -3.4,-14 V 71.2 c 0,-3.6 2.9,-6.4 6.5,-6.5 h 7.9 c 3.6,0 6.4,2.9 6.5,6.5 v 828.9 c -0.1,3.6 -3,6.5 -6.5,6.5 z M 593.7,65.7 c -3,0 -5.5,2.4 -5.5,5.5 V 207 c 0,4.7 1.1,9.3 3.3,13.5 l 6.8,13.1 c 0,0.1 0.1,0.1 0.1,0.2 v 79.5 c 0,0.1 0,0.2 -0.1,0.2 l -6.8,13.1 c -2.2,4.2 -3.3,8.8 -3.3,13.5 v 269.7 c 0,4.7 1.1,9.3 3.3,13.5 l 6.8,13.1 c 0,0.1 0.1,0.1 0.1,0.2 v 79.5 c 0,0.1 0,0.2 -0.1,0.2 l -6.8,13.1 c -2.2,4.2 -3.3,8.8 -3.3,13.5 v 157.2 c 0,3 2.4,5.5 5.5,5.5 h 7.9 c 3,0 5.5,-2.4 5.5,-5.5 V 71.2 c 0,-3 -2.4,-5.5 -5.5,-5.5 z"
     id="path72"
     style="fill:#000000" /><path
     class="st3"
     d="m 618.8,858.9 h -11.3 c -0.3,0 -0.5,-0.2 -0.5,-0.5 0,0 0,0 0,0 V 72 c 0,-0.3 0.2,-0.5 0.5,-0.5 h 11.3 c 0.3,0 0.5,0.2 0.5,0.5 v 786.4 c 0,0.3 -0.2,0.5 -0.5,0.5 0,0 0,0 0,0 z m -10.8,-1 h 10.3 V 72.5 H 608 Z"
     id="path74"
     style="fill:#000000" /><path
     class="st3"
     d="M 730.9,1000 H 624.7 c -3.6,0 -6.5,-2.9 -6.5,-6.5 v -978 c 0,-3.6 2.9,-6.5 6.5,-6.5 h 106.2 c 116.8,0 211.9,95.1 211.9,211.9 v 567.2 c 0,117 -94.8,211.9 -211.9,211.9 0,0 0,0 0,0 z M 624.7,10.1 c -3,0 -5.5,2.4 -5.5,5.5 v 978 c 0,3 2.4,5.5 5.5,5.5 h 106.2 c 116.3,0 210.9,-94.6 210.9,-210.9 V 220.9 C 941.8,104.6 847.2,10 730.9,10 Z"
     id="path76"
     style="fill:#000000" /><path
     class="st2"
     d="m 597.9,314.3 h -4.2 c -3.8,0 -6.9,-3.1 -7,-7 v -67.6 c 0,-3.8 3.1,-6.9 7,-7 h 4.2 c 0.6,0 1,0.4 1,1 0,0 0,0 0,0 v 79.5 c 0,0.7 -0.5,1.1 -1,1.1 0,0 0,0 0,0 z m -4.2,-79.5 c -2.7,0 -5,2.2 -5,5 v 67.6 c 0,2.7 2.2,5 5,5 h 3.2 v -77.5 h -3.2 z"
     id="path128"
     style="fill:#000000" /><path
     class="st2"
     d="m 597.9,717.1 h -4.2 c -3.8,0 -6.9,-3.1 -7,-7 v -67.6 c 0,-3.8 3.1,-6.9 7,-7 h 4.2 c 0.6,0 1,0.4 1,1 0,0 0,0 0,0 V 716 c 0,0.6 -0.5,1.1 -1,1.1 0,0 0,0 0,0 z m -4.2,-79.5 c -2.7,0 -5,2.2 -5,5 v 67.6 c 0,2.7 2.2,5 5,5 h 3.2 v -77.5 h -3.2 z"
     id="path130"
     style="fill:#000000" /><path
     style="fill:#ff5f55;fill-opacity:0.956863;stroke:#4d4d4d;stroke-width:1"
     d="m 748.93436,998.67954 c 26.59545,-2.35471 50.45796,-9.1985 75.88056,-21.7626 65.98743,-32.61168 108.87577,-94.17749 116.99375,-167.94346 1.80381,-16.39057 1.80686,-591.16592 0.003,-608.68789 -2.68506,-26.08512 -9.29287,-49.0507 -20.75194,-72.12385 C 889.32253,64.257568 828.18558,20.735655 757.19631,11.511152 738.81239,9.1223039 622.08856,8.8130147 619.73408,11.146911 c -1.13928,1.129303 -1.47099,112.509439 -1.47099,493.898369 0,485.61761 0.0328,492.45765 2.37105,493.69808 2.83295,1.50294 111.21392,1.44894 128.30022,-0.0637 z"
     id="path1240" /><path
     class="st3"
     d="m 715,763.2 c -23.1,0 -41.9,-18.7 -41.9,-41.9 0,-23.2 18.7,-41.9 41.9,-41.9 23.2,0 41.9,18.7 41.9,41.9 v 0 c -0.1,23.1 -18.8,41.8 -41.9,41.9 z m 0,-82.8 c -22.6,0 -40.9,18.3 -40.9,40.9 0,22.6 18.3,40.9 40.9,40.9 22.6,0 40.9,-18.3 40.9,-40.9 v 0 C 755.8,698.7 737.6,680.4 715,680.4 Z"
     id="path78"
     style="fill:#000000" /><path
     class="st2"
     d="m 782.2,203.2 h -5.5 l -7.8,-12.9 -7.8,12.9 h -5.4 l 10.6,-16.3 -9.8,-15.6 h 5.2 l 7.3,12 7.4,-12 h 5 l -9.8,15.4 z"
     id="path88"
     style="fill:#b3b3b3;fill-opacity:1" /><path
     class="st2"
     d="m 709.2,244.5 -11.6,20.6 v 11.4 h -4.4 V 265 l -11.6,-20.5 h 5.3 l 6.4,11.7 2.3,4.7 2.2,-4.3 6.4,-12.1 z"
     id="path90"
     style="fill:#b3b3b3" /><path
     class="st2"
     d="m 855.9,276.5 h -4.7 l -2.2,-7 h -13.3 l -2.3,7 h -4.5 l 10.6,-32 h 6 z m -8.2,-10.9 -5.4,-17.1 -5.4,17.1 z"
     id="path92"
     style="fill:#b3b3b3" /><path
     class="st2"
     d="m 779.4,340.4 c 0,1.4 -0.3,2.8 -0.9,4.1 -0.6,1.2 -1.5,2.2 -2.5,3 -1.2,0.9 -2.6,1.5 -4,1.9 -1.7,0.4 -3.4,0.7 -5.2,0.6 h -8.4 v -32 h 9.2 c 7.1,0 10.7,2.6 10.7,7.8 0,1.6 -0.4,3.1 -1.2,4.5 -1,1.4 -2.4,2.3 -4,2.8 0.9,0.2 1.7,0.4 2.5,0.8 0.8,0.4 1.5,0.9 2,1.5 0.6,0.6 1.1,1.4 1.4,2.2 0.2,0.8 0.4,1.8 0.4,2.8 z m -5.7,-14.1 c 0,-0.6 -0.1,-1.3 -0.3,-1.8 -0.2,-0.6 -0.6,-1.1 -1,-1.5 -0.6,-0.5 -1.3,-0.8 -2,-1 -1,-0.3 -2.1,-0.4 -3.2,-0.4 h -4.5 v 10 h 4.4 c 0.9,0 1.8,-0.1 2.7,-0.3 0.8,-0.2 1.5,-0.5 2.1,-1 0.6,-0.4 1,-1 1.3,-1.7 0.4,-0.7 0.5,-1.5 0.5,-2.3 z m 1.1,14.2 c 0,-0.8 -0.2,-1.5 -0.5,-2.2 -0.4,-0.7 -0.9,-1.2 -1.5,-1.7 -0.7,-0.5 -1.5,-0.8 -2.4,-1 -1,-0.3 -2.1,-0.4 -3.2,-0.4 h -4.5 v 11 h 4.6 c 2.5,0 4.4,-0.5 5.6,-1.4 1.3,-1 2,-2.6 1.9,-4.3 z"
     id="path94"
     style="fill:#b3b3b3" /><path
     class="st2"
     d="M 715,701.3 695.4,721 h 5.6 v 16.8 h 28.2 V 721 h 5.3 z m 5.7,30.5 H 709.6 V 721 h 11.1 z"
     id="path96"
     style="fill:#333333" /><path
     class="st2"
     d="m 925.6,139.3 c -0.1,0 -0.1,0 -0.2,0 -0.3,-0.1 -0.6,-0.3 -0.7,-0.6 C 891.7,61 815.4,10.5 730.9,10.6 h -54.2 c -0.6,0 -1,-0.4 -1,-1 0,0 0,0 0,0 V 7 c 0,-3.8 3.1,-6.9 7,-7 h 51.2 c 85.2,0.1 162.4,50.1 197.3,127.8 1.2,2.6 0.6,5.7 -1.5,7.8 l -3.4,3.4 c -0.2,0.2 -0.5,0.3 -0.7,0.3 z M 677.7,8.6 h 53.2 c 84.7,-0.1 161.3,50.2 195,128 l 2.4,-2.4 v 0 c 1.5,-1.4 1.9,-3.6 1.1,-5.5 C 894.8,51.7 818.3,2.1 733.9,2 h -51.2 c -2.7,0 -5,2.2 -5,5 z"
     id="path132"
     style="fill:#000000" /><path
     class="st2"
     d="m 676.5,133.7 h -11.7 c -2.2,0 -4,-1.8 -4,-4 V 118 c 0,-1.1 -0.9,-2 -2,-2 h -11.7 c -2.2,0 -4,-1.8 -4,-4 v -11.7 c 0,-2.2 1.8,-4 4,-4 h 11.7 c 1.1,0 2,-0.9 2,-2 V 82.8 c 0,-2.2 1.8,-4 4,-4 h 11.7 c 2.2,0 4,1.8 4,4 v 11.7 c 0,1.1 0.9,2 2,2 h 11.7 c 2.2,0 4,1.8 4,4 v 11.7 c 0,2.2 -1.8,4 -4,4 h -11.7 c -1.1,0 -2,0.9 -2,2 v 11.7 c 0,2 -1.8,3.8 -4,3.8 z M 647.2,98.5 c -1.1,0 -2,0.9 -2,2 v 11.7 c 0,1.1 0.9,2 2,2 h 11.7 c 2.2,0 4,1.8 4,4 v 11.7 c 0,1.1 0.9,2 2,2 h 11.7 c 1.1,0 2,-0.9 2,-2 v -11.7 c 0,-2.2 1.8,-4 4,-4 h 11.7 c 1.1,0 2,-0.9 2,-2 v -11.7 c 0,-1.1 -0.9,-2 -2,-2 h -11.7 c -2.2,0 -4,-1.8 -4,-4 V 82.8 c 0,-1.1 -0.9,-2 -2,-2 h -11.7 c -1.1,0 -2,0.9 -2,2 v 11.7 c 0,2.2 -1.8,4 -4,4 z"
     id="path134"
     style="fill:#000000" /><path
     class="st2"
     d="m 768.9,372.4 c -21.2,0 -38.5,-17.2 -38.5,-38.5 0,-21.2 17.2,-38.5 38.5,-38.5 21.2,0 38.5,17.2 38.5,38.5 -0.1,21.3 -17.3,38.5 -38.5,38.5 z m 0,-74.9 c -20.1,0 -36.5,16.3 -36.5,36.5 0,20.1 16.3,36.5 36.5,36.5 20.1,0 36.5,-16.3 36.5,-36.5 -0.1,-20.2 -16.4,-36.5 -36.5,-36.5 z"
     id="path136"
     style="fill:#000000" /><path
     class="st2"
     d="m 768.9,225.5 c -21.2,0 -38.5,-17.2 -38.5,-38.5 0,-21.2 17.2,-38.5 38.5,-38.5 21.2,0 38.5,17.2 38.5,38.5 -0.1,21.3 -17.3,38.5 -38.5,38.5 z m 0,-74.9 c -20.1,0 -36.5,16.3 -36.5,36.5 0,20.1 16.3,36.5 36.5,36.5 20.1,0 36.5,-16.3 36.5,-36.5 -0.1,-20.2 -16.4,-36.5 -36.5,-36.5 z"
     id="path138"
     style="fill:#000000" /><path
     class="st2"
     d="m 842.3,299 c -21.2,0 -38.5,-17.2 -38.5,-38.5 0,-21.2 17.2,-38.5 38.5,-38.5 21.2,0 38.5,17.2 38.5,38.5 0,21.2 -17.2,38.4 -38.5,38.5 z m 0,-75 c -20.1,0 -36.5,16.3 -36.5,36.5 0,20.1 16.3,36.5 36.5,36.5 20.1,0 36.5,-16.3 36.5,-36.5 0,-20.1 -16.3,-36.5 -36.5,-36.5 z"
     id="path140"
     style="fill:#000000" /><path
     class="st2"
     d="m 695.5,299 c -21.2,0 -38.5,-17.2 -38.5,-38.5 0,-21.2 17.2,-38.5 38.5,-38.5 21.2,0 38.5,17.2 38.5,38.5 -0.1,21.2 -17.3,38.4 -38.5,38.5 z m 0,-75 c -20.1,0 -36.5,16.3 -36.5,36.5 0,20.1 16.3,36.5 36.5,36.5 20.1,0 36.5,-16.3 36.5,-36.5 C 731.9,240.4 715.6,224 695.5,224 Z"
     id="path142"
     style="fill:#000000" /><path
     class="st2"
     d="m 715,750.2 c -16,0 -28.9,-13 -28.9,-28.9 0,-15.9 13,-28.9 28.9,-28.9 16,0 28.9,13 28.9,28.9 0,0 0,0 0,0 0,16 -12.9,28.9 -28.9,28.9 z m 0,-55.9 c -14.9,0 -26.9,12.1 -26.9,26.9 0,14.8 12.1,26.9 26.9,26.9 14.9,0 26.9,-12.1 26.9,-26.9 0,-14.8 -12,-26.8 -26.9,-26.9 z"
     id="path144"
     style="fill:#000000" /><path
     class="st2"
     d="m 705.8,533.4 h -12.3 c -0.6,0 -1,-0.4 -1,-1 0,0 0,0 0,0 1.7,-39.6 33.4,-71.3 73,-73 0.3,0 0.5,0.1 0.7,0.3 0.2,0.2 0.3,0.4 0.3,0.7 v 12.3 c 0,3.5 -2.6,6.4 -6,6.9 -24.7,3.7 -44.2,23.1 -47.9,47.9 -0.4,3.3 -3.3,5.9 -6.8,5.9 z m -11.2,-2 h 11.2 c 2.5,0 4.6,-1.8 4.9,-4.3 3.9,-25.6 24,-45.7 49.6,-49.6 2.5,-0.3 4.3,-2.4 4.3,-4.9 v -11.2 c -37.4,2.1 -67.9,32.6 -70,70 z"
     id="path146"
     style="fill:#000000" /><path
     class="st2"
     d="m 765.6,612.1 c 0,0 -0.1,0 0,0 -39.6,-1.7 -71.3,-33.4 -73,-73 0,-0.6 0.4,-1 1,-1 0,0 0,0 0,0 h 12.3 c 3.5,0 6.4,2.6 6.9,6 3.7,24.7 23.1,44.2 47.9,47.9 3.4,0.5 6,3.4 6,6.9 v 12.3 c -0.1,0.4 -0.6,0.9 -1.1,0.9 0,0 0,0 0,0 z m -71,-72.1 c 2.2,37.4 32.6,67.8 70,70 v -11.2 c 0,-2.5 -1.8,-4.6 -4.3,-4.9 -25.6,-3.9 -45.7,-24 -49.6,-49.6 -0.3,-2.5 -2.4,-4.3 -4.9,-4.3 z"
     id="path148"
     style="fill:#000000" /><path
     class="st2"
     d="m 772.2,612.1 c -0.6,0 -1,-0.4 -1,-1 0,0 0,0 0,0 v -12.3 c 0,-3.5 2.6,-6.4 6,-6.9 24.7,-3.7 44.2,-23.1 47.9,-47.9 0.5,-3.4 3.4,-6 6.9,-6 h 12.3 c 0.6,0 1,0.4 1,1 0,0 0,0 0,0 -1.8,39.7 -33.4,71.3 -73.1,73.1 0.1,0 0.1,0 0,0 z M 832,540 c -2.5,0 -4.6,1.8 -4.9,4.3 -3.9,25.6 -24,45.7 -49.6,49.6 -2.5,0.3 -4.3,2.4 -4.3,4.9 V 610 c 37.4,-2.2 67.8,-32.6 70,-70 z"
     id="path150"
     style="fill:#000000" /><path
     class="st2"
     d="M 844.3,533.4 H 832 c -3.5,0 -6.4,-2.6 -6.9,-6 -3.7,-24.7 -23.1,-44.2 -47.9,-47.9 -3.4,-0.5 -6,-3.4 -6,-6.9 v -12.3 c 0,-0.3 0.1,-0.5 0.3,-0.7 0.2,-0.2 0.5,-0.3 0.7,-0.3 39.6,1.7 71.3,33.4 73,73 0.1,0.6 -0.3,1 -0.9,1.1 0,0 0,0 0,0 z m -71.1,-72 v 11.2 c 0,2.5 1.8,4.6 4.3,4.9 25.6,3.9 45.7,24 49.6,49.6 0.3,2.5 2.4,4.3 4.9,4.3 h 11.2 c -2.1,-37.4 -32.6,-67.9 -70,-70 z"
     id="path152"
     style="fill:#000000" /><path
     class="st2"
     d="m 768.9,612.2 c -1.2,0 -2.3,0 -3.4,-0.1 -0.5,0 -0.9,-0.5 -0.9,-1 v -12.3 c 0,-2.5 -1.8,-4.6 -4.3,-4.9 -25.6,-3.9 -45.7,-24 -49.6,-49.6 -0.3,-2.5 -2.4,-4.3 -4.9,-4.3 h -12.3 c -0.5,0 -1,-0.4 -1,-0.9 -0.1,-1.1 -0.1,-2.2 -0.1,-3.4 0,-1.2 0,-2.3 0.1,-3.4 0,-0.5 0.5,-0.9 1,-0.9 h 12.3 c 2.5,0 4.6,-1.8 4.9,-4.3 3.9,-25.6 24,-45.7 49.6,-49.6 2.5,-0.3 4.3,-2.4 4.3,-4.9 v -12.3 c 0,-0.5 0.4,-1 0.9,-1 2.3,-0.1 4.5,-0.1 6.8,0 0.5,0 0.9,0.5 0.9,1 v 12.3 c 0,2.5 1.8,4.6 4.3,4.9 25.6,3.9 45.7,24 49.6,49.6 0.3,2.5 2.4,4.3 4.9,4.3 h 12.3 c 0.5,0 1,0.4 1,0.9 0.1,1.1 0.1,2.2 0.1,3.4 0,1.2 0,2.3 -0.1,3.4 0,0.5 -0.5,0.9 -1,0.9 H 832 c -2.5,0 -4.6,1.8 -4.9,4.3 -3.9,25.6 -24,45.7 -49.6,49.6 -2.5,0.3 -4.3,2.4 -4.3,4.9 v 12.3 c 0,0.5 -0.4,1 -0.9,1 -1.1,0 -2.2,0.1 -3.4,0.1 z m -2.3,-2.1 c 1.5,0.1 3.1,0.1 4.7,0 v -11.3 c 0,-3.5 2.6,-6.4 6,-6.9 24.7,-3.7 44.2,-23.1 47.9,-47.9 0.5,-3.4 3.4,-6 6.9,-6 h 11.3 c 0,-0.8 0,-1.5 0,-2.3 0,-0.8 0,-1.6 0,-2.3 H 832 c -3.5,0 -6.4,-2.6 -6.9,-6 -3.7,-24.7 -23.1,-44.2 -47.9,-47.9 -3.4,-0.5 -6,-3.4 -6,-6.9 v -11.3 c -1.5,-0.1 -3.1,-0.1 -4.7,0 v 11.3 c 0,3.5 -2.6,6.4 -6,6.9 -24.7,3.7 -44.2,23.1 -47.9,47.9 -0.5,3.4 -3.4,6 -6.9,6 h -11.3 c 0,0.8 0,1.5 0,2.3 0,0.8 0,1.6 0,2.3 h 11.3 c 3.5,0 6.4,2.6 6.9,6 3.7,24.7 23.1,44.2 47.9,47.9 3.4,0.5 6,3.4 6,6.9 v 11.3 z"
     id="path154"
     style="fill:#000000" /><path
     style="opacity:1;fill:#1a1a1a;fill-opacity:1;stroke:#4d4d4d;stroke-width:1"
     d="m 686.27756,295.45757 c -6.3268,-1.65761 -11.02024,-4.44224 -16.19729,-9.60987 -7.7249,-7.71084 -11.00252,-16.02709 -10.55426,-26.7792 0.56274,-13.49806 7.94054,-24.90282 19.94518,-30.83167 10.51307,-5.1922 21.47279,-5.27638 31.58153,-0.24258 7.93543,3.95157 13.41304,9.50319 17.2109,17.44344 5.18792,10.84649 4.24806,24.40322 -2.39714,34.5766 -4.99743,7.65076 -13.48676,13.69608 -22.04004,15.69491 -4.81862,1.12607 -12.72306,1.01273 -17.54888,-0.25163 z m 11.6608,-24.5355 v -5.81067 l 5.62044,-9.96942 c 3.09124,-5.48319 5.62044,-10.21511 5.62044,-10.51538 0,-0.30027 -1.15454,-0.54595 -2.56564,-0.54595 h -2.56564 l -4.20029,8.09641 c -2.67942,5.1648 -4.33588,7.8298 -4.57474,7.3601 -0.20594,-0.40496 -2.13104,-4.04835 -4.27799,-8.0964 l -3.90356,-7.36011 h -2.87335 c -1.58035,0 -2.87336,0.12781 -2.87336,0.28402 0,0.1562 2.64964,4.96636 5.88808,10.68923 l 5.88809,10.40522 v 5.63681 5.63682 h 2.40876 2.40876 z"
     id="path1462" /><path
     style="opacity:1;fill:#1a1a1a;fill-opacity:1;stroke:#4d4d4d;stroke-width:1"
     d="m 762.70726,222.86949 c -4.07666,-0.78537 -10.17009,-3.29429 -13.6441,-5.61785 -6.91015,-4.6218 -11.71459,-10.88088 -14.5402,-18.94258 -1.34575,-3.83954 -1.49911,-4.98899 -1.49911,-11.23574 0,-6.24676 0.15336,-7.39621 1.49911,-11.23575 3.87774,-11.0635 11.80142,-19.0577 22.76847,-22.97107 4.25097,-1.51687 5.15889,-1.64602 11.57155,-1.64602 6.41266,0 7.32058,0.12915 11.57155,1.64602 14.51853,5.18065 23.77179,17.63258 24.42528,32.86862 0.45428,10.5913 -2.84072,19.07821 -10.28709,26.49636 -7.55957,7.53093 -14.1652,10.43737 -24.37154,10.72334 -3.38565,0.0949 -6.75791,0.0565 -7.49392,-0.0853 z m 2.38607,-25.68467 c 4.25443,-7.14961 3.37755,-7.25493 8.20926,0.98595 l 3.05431,5.20938 3.12152,0.01 3.12152,0.01 -1.22963,-2.0073 c -0.6763,-1.10401 -3.07664,-4.86619 -5.3341,-8.36039 l -4.10446,-6.35309 4.75516,-7.43514 c 2.61533,-4.08932 4.75516,-7.56602 4.75516,-7.72599 0,-0.15996 -1.24936,-0.21804 -2.77636,-0.12905 l -2.77635,0.16179 -3.10726,5.05393 c -1.70899,2.77966 -3.29562,5.24229 -3.52585,5.47251 -0.23022,0.23022 -1.93136,-2.10426 -3.78031,-5.18775 l -3.36174,-5.60633 h -2.95881 -2.95881 l 1.22685,2.0073 c 0.67476,1.10402 2.8714,4.62127 4.88142,7.81612 l 3.65457,5.80881 -4.85255,7.43415 c -2.66891,4.08878 -4.99211,7.79781 -5.16268,8.24229 -0.25287,0.65897 0.2216,0.80814 2.57051,0.80814 h 2.88063 z"
     id="path1464" /><path
     style="opacity:1;fill:#1a1a1a;fill-opacity:1;stroke:#4d4d4d;stroke-width:1"
     d="m 833.85476,295.72323 c -6.83119,-1.65863 -13.77734,-5.88165 -18.67395,-11.35311 -3.40208,-3.80148 -7.27107,-11.46438 -8.31543,-16.4695 -2.76322,-13.24277 2.63571,-27.85526 13.26894,-35.91309 19.99373,-15.15118 48.09433,-6.6877 56.44101,16.99918 1.86188,5.28381 2.27747,13.55775 0.97503,19.41195 -1.50813,6.77877 -4.55198,12.15816 -9.87968,17.46031 -5.26572,5.24048 -9.89475,7.95133 -16.43315,9.62357 -4.85615,1.24199 -12.80551,1.35206 -17.38277,0.24069 z m 0.90791,-22.33599 1.06927,-3.3455 6.50377,-0.1501 6.50377,-0.1501 0.98735,3.36178 0.98735,3.36179 2.51591,0.16314 c 1.8243,0.1183 2.51592,-0.0335 2.51592,-0.55237 0,-0.39353 -2.29576,-7.75345 -5.10169,-16.35537 l -5.10169,-15.63986 h -3.1506 -3.1506 l -5.20854,15.65695 c -2.86469,8.61132 -5.31927,15.95804 -5.45462,16.32605 -0.17576,0.47789 0.50564,0.6691 2.38452,0.6691 h 2.6306 z"
     id="path1466" /><path
     style="opacity:1;fill:#1a1a1a;fill-opacity:1;stroke:#4d4d4d;stroke-width:1"
     d="m 763.70798,369.86416 c -8.12397,-1.27622 -14.00129,-4.35733 -20.33165,-10.65861 -3.76197,-3.74468 -5.02094,-5.43974 -6.83916,-9.20812 -7.60051,-15.75262 -3.54817,-33.43875 10.18745,-44.46231 6.3567,-5.10159 13.61954,-7.5924 22.13836,-7.5924 29.9337,0 46.67981,33.83863 28.70945,58.01278 -7.44586,10.01634 -21.60997,15.83377 -33.86445,13.90866 z m 11.20335,-21.38348 c 3.07353,-1.75995 4.52918,-4.20847 4.57675,-7.69846 0.0443,-3.24643 -1.27165,-5.85301 -3.49954,-6.93201 l -1.49389,-0.72351 1.60877,-1.54129 c 1.87307,-1.79453 2.80455,-4.70189 2.3305,-7.27407 -0.92747,-5.03237 -3.68485,-6.33408 -13.45172,-6.35026 l -7.09246,-0.0118 v 16.10974 16.10973 l 7.3601,-0.18515 c 6.6513,-0.16732 7.58173,-0.31206 9.66149,-1.50296 z"
     id="path1468" /><path
     style="opacity:1;fill:#1a1a1a;fill-opacity:1;stroke:#4d4d4d;stroke-width:1"
     d="m 762.70726,326.44188 v -4.88945 l 3.72999,0.26688 c 4.16057,0.29769 6.24901,1.33706 6.7575,3.36306 0.94714,3.77369 -1.80659,6.14376 -7.14199,6.14695 l -3.3455,0.002 z"
     id="path1470" /><path
     style="opacity:1;fill:#1a1a1a;fill-opacity:1;stroke:#4d4d4d;stroke-width:0.999998"
     d="m 837.54718,264.82028 c 0,-0.76372 4.25204,-14.10124 4.62716,-14.51418 0.17889,-0.19692 1.32644,2.82483 2.55012,6.715 1.22368,3.89017 2.33144,7.35074 2.46168,7.69016 0.18748,0.48856 -0.7918,0.61711 -4.70107,0.61711 -3.25732,0 -4.93789,-0.17292 -4.93789,-0.50809 z"
     id="path1496" /><path
     style="opacity:1;fill:#1a1a1a;fill-opacity:1;stroke:#4d4d4d;stroke-width:0.999998"
     d="m 763.06218,340.74443 v -5.12084 h 3.61513 c 4.59667,0 6.58099,0.93645 7.49973,3.5393 0.55274,1.56594 0.54465,2.04231 -0.0591,3.47983 -0.97646,2.32493 -3.07062,3.22256 -7.51823,3.22256 h -3.53752 z"
     id="path1498" /><path
     style="opacity:1;fill:#1a1a1a;fill-opacity:1;stroke:#4d4d4d;stroke-width:1"
     d="m 766.92321,602.64753 c -0.29048,-8.92659 -0.85756,-9.59054 -10.1321,-11.86299 -21.45382,-5.25664 -37.29198,-20.85776 -42.70074,-42.06165 -0.55002,-2.15622 -1.00003,-4.47981 -1.00003,-5.16353 0,-0.68371 -1.0064,-2.24952 -2.23643,-3.47956 l -2.23643,-2.23643 h -6.9724 -6.97241 v -1.97332 -1.97332 h 5.94109 c 6.60342,0 9.93688,-1.00153 11.20212,-3.36564 0.44261,-0.82703 1.34271,-3.96544 2.00022,-6.97425 3.49259,-15.98235 14.91214,-30.68661 29.48362,-37.96428 4.71573,-2.35525 11.36654,-4.65443 15.50589,-5.36038 6.61875,-1.12879 8.22218,-3.61509 8.22218,-12.74947 v -5.94109 h 1.97332 1.97332 v 6.89625 c 0,6.61611 0.0735,6.97475 1.80888,8.82901 1.46262,1.5628 3.13096,2.25493 8.7155,3.61572 20.40883,4.97306 36.06052,19.9102 41.49254,39.59826 0.78813,2.85653 1.76467,6.36883 2.17007,7.80511 1.22789,4.35011 3.85392,5.61076 11.68766,5.61076 h 6.48046 v 1.97332 1.97332 h -6.6104 c -6.95598,0 -9.89025,0.84134 -10.81193,3.1001 -0.2638,0.64649 -1.18554,3.97814 -2.0483,7.40367 -5.38972,21.39923 -21.36363,37.35004 -42.22246,42.16138 -9.94989,2.29507 -10.66202,3.14671 -10.66202,12.75068 v 6.28151 h -1.91345 -1.91345 z"
     id="path1500" /><path
     style="opacity:1;fill:#1a1a1a;fill-opacity:1;stroke:#4d4d4d;stroke-width:1"
     d=""
     id="path1502" /><path
     style="opacity:1;fill:#1a1a1a;fill-opacity:1;stroke:#4d4d4d;stroke-width:1"
     d="m 695.45795,526.49678 c 1.75282,-15.26781 9.42349,-30.89435 20.92126,-42.62035 11.95352,-12.1908 27.0212,-19.51188 45.22194,-21.97243 l 2.79554,-0.37793 v 6.18375 c 0,7.93282 -0.51936,8.65269 -7.23551,10.02904 -22.30129,4.57023 -40.70977,22.45408 -45.7072,44.40457 -2.01248,8.8395 -2.35691,9.12221 -11.11415,9.12221 h -5.42936 z"
     id="path1504" /><path
     style="opacity:1;fill:#1a1a1a;fill-opacity:1;stroke:#4d4d4d;stroke-width:1"
     d="M 754.53008,608.24817 C 722.31091,601.3332 698.78801,575.33696 695.1389,542.61223 l -0.23838,-2.13776 h 6.36187 c 5.30645,0 6.54081,0.19773 7.44049,1.19187 0.59325,0.65553 1.8242,4.13099 2.73545,7.72325 5.73315,22.60074 22.81787,39.26947 45.21411,44.1132 6.89875,1.49203 7.74425,2.60069 7.74425,10.15464 v 5.88328 l -2.13776,-0.0463 c -1.17577,-0.0255 -4.65375,-0.58628 -7.72885,-1.24626 z"
     id="path1506" /><path
     style="opacity:1;fill:#1a1a1a;fill-opacity:1;stroke:#4d4d4d;stroke-width:1"
     d="m 773.60552,603.37682 c 0,-7.26315 0.7124,-8.57514 5.06106,-9.32073 4.85038,-0.83162 11.1113,-2.92244 16.31659,-5.44891 15.80304,-7.67023 27.12455,-21.98721 31.55746,-39.907 0.97744,-3.95125 2.07685,-6.90365 2.75558,-7.39995 0.71733,-0.52453 3.39605,-0.82576 7.34299,-0.82576 h 6.21369 l -0.43161,3.7822 c -3.78834,33.19719 -31.7798,61.26383 -64.82878,65.00289 l -3.98698,0.45108 z"
     id="path1508" /><path
     style="opacity:1;fill:#1a1a1a;fill-opacity:1;stroke:#4d4d4d;stroke-width:1"
     d="m 829.28285,529.78565 c -1.17591,-1.07273 -1.92806,-2.90835 -2.7333,-6.67061 -4.37909,-20.45999 -18.95972,-36.61709 -39.28934,-43.53733 -2.43875,-0.83016 -5.8241,-1.71782 -7.52299,-1.97259 -1.88233,-0.28227 -3.68318,-1.05749 -4.6103,-1.9846 -1.37609,-1.3761 -1.5214,-2.11712 -1.5214,-7.7588 v -6.23739 l 2.46665,0.33127 c 18.99503,2.55107 32.67768,9.21103 45.44487,22.12006 10.43139,10.54728 17.44069,23.80984 20.16018,38.14583 0.547,2.88355 0.99455,6.09813 0.99455,7.14349 v 1.90066 h -5.88329 c -5.18197,0 -6.07667,-0.17643 -7.50563,-1.47999 z"
     id="path1510" /><path
     style="opacity:1;fill:#000000;fill-opacity:1;stroke:#4d4d4d;stroke-width:0.999999"
     d="m 663.62068,131.03319 c -0.53326,-0.58925 -0.625,-1.69704 -0.625,-7.54707 v -6.85645 l -1.10115,-1.23333 -1.10115,-1.23332 -7.11278,-0.10646 c -9.08871,-0.13604 -8.43455,0.46843 -8.43455,-7.79389 0,-4.68262 0.12554,-6.289149 0.5353,-6.850301 0.49015,-0.671243 1.10329,-0.741434 7.26979,-0.832236 3.70397,-0.05454 7.12214,-0.18656 7.59593,-0.293374 0.47378,-0.106815 1.19541,-0.741963 1.60361,-1.411441 0.66219,-1.086052 0.74232,-1.921972 0.74358,-7.756551 8.2e-4,-3.782617 0.16622,-6.847257 0.39235,-7.269795 0.3648,-0.681634 0.8563,-0.730476 7.35092,-0.730476 6.49462,0 6.98613,0.04884 7.35092,0.730476 0.22614,0.422538 0.39154,3.487178 0.39236,7.269795 10e-4,5.834579 0.0814,6.670499 0.74358,7.756551 0.4082,0.669478 1.12983,1.304626 1.60361,1.411441 0.47379,0.106814 3.89196,0.238833 7.59593,0.293374 6.1665,0.0908 6.77964,0.160993 7.26979,0.832236 0.40976,0.561152 0.5353,2.167681 0.5353,6.850301 0,8.26232 0.65416,7.65785 -8.43455,7.79389 l -7.11278,0.10646 -1.10115,1.23332 -1.10115,1.23333 v 6.92207 c 0,6.22636 -0.0694,6.98488 -0.69062,7.54707 -0.58568,0.53003 -1.66715,0.62501 -7.11685,0.62501 -5.74601,0 -6.49238,-0.0731 -7.05124,-0.69063 z"
     id="path1512" /><path
     style="opacity:1;fill:#1a1a1a;fill-opacity:1;stroke:#4d4d4d;stroke-width:1"
     d="m 709.89826,726.4428 v -5.25775 h 5.25776 5.25775 v 5.25775 5.25776 h -5.25775 -5.25776 z"
     id="path1514" /><path
     style="opacity:1;fill:#1a1a1a;fill-opacity:1;stroke:#4d4d4d;stroke-width:1"
     d="m 708.88715,747.11324 c -7.7953,-1.94254 -14.19265,-7.02605 -17.61469,-13.99713 -2.11167,-4.3017 -2.80967,-7.2657 -2.80967,-11.93106 0,-4.6603 0.69677,-7.62382 2.80517,-11.93107 2.98868,-6.10556 8.92756,-11.23718 15.51022,-13.40195 4.61637,-1.51813 11.17625,-1.60821 15.65781,-0.215 15.04474,4.67704 23.00917,20.70184 17.43246,35.07495 -4.8049,12.38391 -18.34269,19.55071 -30.9813,16.40126 z m 20.42437,-17.43489 v -8.4933 h 2.62887 c 1.44589,0 2.62888,-0.13514 2.62888,-0.3003 0,-0.16516 -4.4121,-4.71516 -9.80467,-10.1111 l -9.80467,-9.8108 -9.81081,9.80467 c -5.39594,5.39257 -9.8108,9.94257 -9.8108,10.1111 0,0.16854 1.27399,0.30643 2.8311,0.30643 h 2.8311 v 8.4933 8.4933 h 14.1555 14.1555 z"
     id="path1516" /><path
     style="opacity:1;fill:#1a1a1a;fill-opacity:1;stroke:#4d4d4d;stroke-width:1"
     d="m 709.32587,761.61376 c -14.84534,-2.33618 -27.22151,-12.34303 -32.43644,-26.22673 -7.52289,-20.0282 2.33277,-43.0312 22.02756,-51.41208 6.07171,-2.58375 8.49788,-3.03235 16.23903,-3.00264 6.50926,0.025 7.37011,0.11595 10.71773,1.13248 14.44352,4.38591 24.64194,14.87492 28.58676,29.40132 0.78714,2.89856 0.92468,4.38074 0.9169,9.88116 -0.008,5.44704 -0.15534,7.01511 -0.93296,9.90885 -4.75273,17.68623 -20.04274,29.95104 -38.0751,30.54176 -2.55811,0.0838 -5.72767,-0.0171 -7.04348,-0.22412 z m 12.01917,-11.94961 c 11.93985,-2.6283 21.26602,-13.04595 22.49006,-25.12213 2.18282,-21.53536 -18.13115,-37.7028 -38.52104,-30.65805 -4.17709,1.44319 -6.99053,3.28712 -10.81791,7.09005 -2.821,2.80297 -3.81838,4.14269 -5.32568,7.15366 -2.55937,5.1126 -3.29841,8.68914 -3.02322,14.63061 0.31524,6.80606 2.15585,11.73401 6.30752,16.88741 6.75846,8.38917 18.22621,12.36591 28.89027,10.01845 z"
     id="path1518" /><path
     style="opacity:1;fill:#ff5f55;fill-opacity:0.956863;stroke:#4d4d4d;stroke-width:1"
     d="m 591.47251,714.31134 c -2.59326,-1.58129 -2.41164,1.27628 -2.41164,-37.94303 0,-35.39705 0.002,-35.47278 0.79102,-36.47631 1.14169,-1.45141 2.68891,-2.12685 4.87199,-2.12685 h 1.91275 v 38.63637 38.63636 l -1.98864,-0.002 c -1.28887,-7.5e-4 -2.40626,-0.25607 -3.17548,-0.72512 z"
     id="path1520" /><path
     style="opacity:1;fill:#ff5f55;fill-opacity:0.956863;stroke:#4d4d4d;stroke-width:1"
     d="m 592.87653,312.11027 c -0.50555,-0.0951 -1.32393,-0.43811 -1.8186,-0.76224 -2.07696,-1.36087 -1.99706,0.15175 -1.99706,-37.80487 0,-31.80626 0.058,-35.19116 0.61953,-36.14171 0.93372,-1.58066 2.4287,-2.28781 4.83664,-2.28781 h 2.11959 V 273.75 312.38636 l -1.42045,-0.0516 c -0.78125,-0.0284 -1.83409,-0.1294 -2.33965,-0.22451 z"
     id="path1522" /><path
     style="opacity:1;fill:#000000;fill-opacity:0.956863;stroke:#4d4d4d;stroke-width:1"
     d="M 921.31509,126.45258 C 911.22775,105.90097 899.41123,89.210741 883.15837,72.558198 848.342,36.885643 804.48862,15.547979 753.51164,9.4762173 748.44895,8.8732107 740.43487,8.6841876 712.59008,8.5110262 L 677.96414,8.2956939 V 6.8885761 c 0,-0.9784616 0.48302,-1.8901352 1.58557,-2.9926826 l 1.58556,-1.5855648 h 30.73203 c 16.92783,0 33.54939,0.2176979 37.00428,0.4846569 50.75274,3.9216602 97.06468,24.5817024 133.31418,59.4722764 17.58138,16.922285 31.48259,35.738975 42.78184,57.909488 4.28368,8.40514 4.87972,10.05538 4.25358,11.77682 -0.41652,1.14511 -2.61821,3.7514 -3.13345,3.70927 -0.14438,-0.0118 -2.29207,-4.15642 -4.77264,-9.21026 z"
     id="path1524" /><path
     style="opacity:1;fill:#1a1a1a;fill-opacity:1;stroke:#4d4d4d;stroke-width:1"
     d="m 591.56604,904.17079 c -2.01964,-1.17632 -2.15587,-6.52992 -2.15587,-84.72244 v -83.46676 l 4.9277,-10.18986 4.92769,-10.18984 v -39.48272 -39.48272 l -4.92769,-9.84523 -4.9277,-9.84523 V 475.04429 333.1426 l 4.9277,-10.18986 4.92769,-10.18984 v -39.48272 -39.48272 l -4.93732,-9.86447 -4.93732,-9.86446 0.31761,-73.44555 0.31761,-73.44554 6.5676,-0.375829 c 3.78331,-0.216499 7.3086,0.239148 8.31548,1.074785 1.50292,1.24731 1.74788,59.776984 1.74788,417.620064 v 416.16945 l -2.73795,1.91775 c -3.10138,2.17229 -9.13889,2.45924 -12.35311,0.58713 z"
     id="path1530" /><path
     style="opacity:1;fill:#1a1a1a;fill-opacity:1;stroke:#4d4d4d;stroke-width:1"
     d="M 609.12095,465.08874 V 72.721096 h 4.31173 4.31173 V 465.08874 857.45638 h -4.31173 -4.31173 z"
     id="path1532" /></g><ellipse
   id="ellipse382"
   style="fill:#2e2f31;fill-opacity:1;stroke:#000000;stroke-width:1;stroke-linecap:round;stroke-linejoin:round;stroke-miterlimit:4;stroke-dasharray:none;stroke-opacity:1"
   cx="344.63858"
   cy="559.57324"
   rx="15.407233"
   ry="14.069173" /><path
   inkscape:connector-curvature="0"
   id="path384"
   d="m 443.0983,509.79536 v 45.80985"
   style="fill:none;stroke:#000000;stroke-width:1px;stroke-linecap:butt;stroke-linejoin:miter;stroke-opacity:1" /><path
   sodipodi:nodetypes="cc"
   inkscape:connector-curvature="0"
   id="path386"
   d="m 436.0092,515.71373 v 36.37333"
   style="fill:none;stroke:#000000;stroke-width:1px;stroke-linecap:butt;stroke-linejoin:miter;stroke-opacity:1" /><path
   inkscape:connector-curvature="0"
   id="path388"
   d="m 332.8041,659.05347 c 0.159,-2.38632 0.9339,-4.18348 2.3494,-5.44717 1.0538,-0.94086 2.4969,-1.60298 4.1869,-1.92092 0.3864,-0.0726 1.0871,-0.1771 1.0975,-0.16314 0,0.005 0.093,0.85306 0.2017,1.88773 0.1082,1.03464 0.2053,1.93454 0.2156,1.9998 0.018,0.10426 0.01,0.11846 -0.052,0.11846 -0.1214,0 -0.6621,0.12294 -1.0604,0.24083 -1.8948,0.56173 -2.9076,1.69881 -3.1357,3.52037 -0.053,0.4186 -0.023,1.49252 0.051,1.88234 0.1958,1.02944 0.6378,1.79009 1.336,2.30018 0.5453,0.39839 0.9906,0.54269 1.6797,0.54425 0.4911,0 0.7649,-0.0565 1.0906,-0.22816 0.224,-0.11845 0.5342,-0.39899 0.7138,-0.64552 0.4284,-0.5885 0.6382,-1.17335 1.3991,-3.89925 0.4752,-1.70296 0.7598,-2.51481 1.1909,-3.39834 0.584,-1.19653 1.3563,-2.06447 2.414,-2.7127 0.5828,-0.35721 1.3337,-0.64064 2.0474,-0.7727 0.3392,-0.0631 0.4902,-0.0716 1.1851,-0.0709 0.6888,7.5e-4 0.842,0.01 1.1342,0.0703 1.7103,0.34894 3.1451,1.32436 3.9859,2.70946 0.3778,0.62245 0.6928,1.42824 0.8702,2.22642 0.3894,1.7521 0.3112,4.07304 -0.1924,5.71076 -0.2323,0.7556 -0.6307,1.54303 -1.0637,2.10262 -0.2976,0.38477 -1.0376,1.06011 -1.4626,1.33492 -0.6802,0.43973 -1.5737,0.79266 -2.4151,0.95396 -0.4254,0.0815 -0.9688,0.14541 -1.2361,0.14541 h -0.1571 l -2e-4,-0.18183 c -2e-4,-0.0998 -0.039,-0.97141 -0.087,-1.93652 -0.048,-0.96511 -0.086,-1.80485 -0.086,-1.86617 l -10e-5,-0.11137 0.3029,-0.0565 c 0.6791,-0.12626 1.358,-0.40173 1.7702,-0.71779 0.8027,-0.61542 1.1472,-1.52476 1.1467,-3.02784 -3e-4,-0.9899 -0.1461,-1.66912 -0.5004,-2.33009 -0.4111,-0.76692 -0.8552,-1.07989 -1.5814,-1.1146 -0.5403,-0.0263 -0.9144,0.092 -1.2917,0.40687 -0.6036,0.50373 -1.0028,1.42843 -1.6845,3.90103 -0.5306,1.92496 -0.7696,2.6569 -1.1769,3.6043 -0.7236,1.68302 -1.723,2.76077 -3.1653,3.41339 -0.8627,0.39031 -1.6574,0.56193 -2.8045,0.60571 -1.3619,0.0523 -2.6128,-0.24529 -3.8083,-0.90462 -1.3364,-0.73709 -2.2925,-1.87859 -2.8381,-3.38818 -0.4756,-1.31608 -0.6841,-3.06752 -0.5698,-4.78495 v 0 z"
   style="fill:#000000;stroke:#000000;stroke-width:0.0133722;stroke-linecap:round;stroke-linejoin:round;stroke-miterlimit:4;stroke-dasharray:none;stroke-opacity:1" /><path
   inkscape:connector-curvature="0"
   id="path390"
   d="m 344.68422,270.89549 h 11.20062 l -8e-4,4.49766 c -4e-4,2.39875 -0.018,4.79751 -0.034,5.29725 -0.1201,2.99844 -0.56809,4.29776 -1.86217,5.39719 -1.43938,1.29933 -3.65135,1.79907 -5.84821,1.39928 -1.22398,-0.1999 -2.30116,-0.79959 -3.12325,-1.59917 -0.75529,-0.79959 -1.34588,-1.99896 -1.58337,-3.29829 -0.053,-0.29984 -0.065,-0.39979 -0.106,-0.29984 -0.026,0 -0.2006,0.29984 -0.3896,0.49974 -0.79258,1.09943 -1.46847,1.79906 -2.81735,2.59865 -0.78279,0.49974 -1.17218,0.79958 -4.12353,2.4987 l -2.49546,1.39927 -0.01,-2.39875 c 0,-1.99896 2e-4,-2.4987 0.034,-2.4987 0.023,0 1.34447,-0.89954 2.93445,-1.79907 4.59312,-2.79854 5.11312,-3.19834 5.65771,-3.79802 0.54019,-0.69964 0.67409,-1.19938 0.70339,-2.79855 l 0.018,-0.99948 h -4.67853 -4.67862 v -1.99896 -2.09891 h 11.20062 z m 1.74937,9.29517 c 0.041,0.69963 0.114,1.29932 0.18719,1.49922 0.2217,0.79958 0.88159,1.39927 1.75178,1.59917 0.32459,0.1 1.14798,0.1 1.50817,0.1 0.87379,-0.1 1.48218,-0.49974 1.85017,-1.19938 0.3531,-0.69964 0.3777,-0.99948 0.3791,-4.69756 l 7e-4,-2.4987 h -2.85636 -2.85645 v 2.2988 c 0,1.29933 0.018,2.59865 0.036,2.8985 z"
   style="fill:#000000;stroke:#000000;stroke-width:0.0133722;stroke-linecap:round;stroke-linejoin:round;stroke-miterlimit:4;stroke-dasharray:none;stroke-opacity:1" /><path
   inkscape:connector-curvature="0"
   id="path392"
   d="m 333.0763,260.00115 c 0.2699,-3.09839 1.47058,-5.09735 3.82724,-6.39667 0.94539,-0.49974 2.47236,-0.99948 3.66664,-1.09943 h 0.2144 l 0.021,0.1 c 0.037,0.19989 0.41959,3.89797 0.40439,3.89797 -0.01,0 -0.17189,0.1 -0.36389,0.1 -0.1921,0 -0.53819,0.0999 -0.76929,0.1999 -1.79067,0.49974 -2.78005,1.59916 -3.10355,3.19833 -0.099,0.49974 -0.1074,1.59917 -0.015,2.19886 0.1217,0.69964 0.322,1.19938 0.62179,1.59917 0.41149,0.59969 0.98798,0.99948 1.60627,1.19938 0.3497,0.0999 1.05159,0.19989 1.39958,0.0999 0.68299,-0.19989 1.12958,-0.49974 1.53758,-1.29932 0.28619,-0.49974 0.48609,-1.09943 1.12488,-3.39823 0.58179,-2.09891 0.89518,-2.99845 1.46878,-3.99793 0.54769,-0.99948 1.29527,-1.69911 2.25086,-2.2988 1.01618,-0.59969 2.16996,-0.89953 3.44104,-0.79959 1.09519,0 2.11077,0.29985 3.03455,0.89954 0.67949,0.39979 1.15789,0.79958 1.62308,1.49922 0.94818,1.29932 1.41878,2.99844 1.41828,5.09735 -5e-4,2.39875 -0.5283,4.19782 -1.61348,5.59709 -0.28049,0.29984 -0.87698,0.89953 -1.25648,1.09943 -1.02518,0.69963 -2.17746,1.09942 -3.55564,1.19937 -0.2116,0 -0.38909,0 -0.39449,0 -0.015,0 -0.2131,-4.09787 -0.2004,-4.09787 0.01,0 0.1496,-0.0999 0.31999,-0.0999 0.96079,-0.1999 1.73388,-0.59969 2.16607,-1.09943 0.33459,-0.3998 0.56069,-0.89954 0.68789,-1.49922 0.1015,-0.49974 0.1113,-1.69912 0.018,-2.19886 -0.1453,-0.89953 -0.46589,-1.59917 -0.92189,-1.99896 -0.48339,-0.49974 -1.31478,-0.59969 -1.98367,-0.29985 -0.30419,0.0999 -0.66298,0.3998 -0.87728,0.69964 -0.397,0.59969 -0.77619,1.69912 -1.28808,3.59813 -0.61799,2.19886 -1.08688,3.49818 -1.64607,4.49766 -0.90499,1.59917 -2.40657,2.59865 -4.21394,2.99844 -0.65499,0.1 -1.14148,0.1 -1.88937,0.1 -0.52549,0 -0.75938,0 -1.08948,-0.1 -1.82277,-0.39979 -3.39374,-1.29932 -4.32833,-2.69859 -0.65799,-0.99948 -1.07878,-2.19886 -1.27778,-3.79803 -0.053,-0.39979 -0.097,-2.2988 -0.063,-2.6986 v 0 z"
   style="fill:#000000;stroke:#000000;stroke-width:0.0135255;stroke-linecap:round;stroke-linejoin:round;stroke-miterlimit:4;stroke-dasharray:none;stroke-opacity:1" /><path
   inkscape:connector-curvature="0"
   id="path394"
   d="m 344.3796,673.56064 h 11.2417 v 2.07865 2.07863 h -9.3507 -9.3505 v 5.19669 5.19663 h -1.8911 -1.8912 v -7.27527 -7.27533 z"
   style="fill:#000000;stroke:#000000;stroke-width:0.0135255;stroke-linecap:round;stroke-linejoin:round;stroke-miterlimit:4;stroke-dasharray:none;stroke-opacity:1" /><path
   style="fill:none;stroke:#000000;stroke-width:1px;stroke-linecap:butt;stroke-linejoin:miter;stroke-opacity:1"
   d="m 409.8518,20.023226 -2.8025,-2.940258 -2.1084,-1.796007 -3.8978,-2.620465 -4.9398,-2.55642 L 392.292,8.84905 388.4191,8.025507 387.0294,7.822961 384.141,7.656397 h -57.7923 l -1.5715,0.149122 -1.7697,0.238843 -1.7748,0.237838 -2.7296,0.542254 -2.3129,0.605012 -2.4432,0.754145 -2.944,0.941639 -2.1288,0.902231 -3.8498,1.714942 -2.7574,1.535138 -2.1058,1.193828 -3.235,2.159307 -2.4201,1.633969 -1.436,1.202784 -1.896,1.449056 -3.2118,2.602099 -2.4228,2.54068 -4.259,4.68887 -2.5995,3.248512 -1.6774,2.623499 -1.271,2.183231 -1.9119,3.727354 -0.727,1.646801 -1.1613,2.961579 -0.6623,2.597813 -0.7848,3.271062 -0.3398,2.680091 -0.048,2.382986 v 3.995674 2.844254 875.03454 l 0.1638,2.49192 0.3452,3.39287 1.2989,4.76857 1.2397,3.77431 3.6049,7.25417 2.5738,4.05586 2.4685,3.19869 1.4819,1.97511 2.6694,2.86259 3.0699,3.02203 2.1765,1.92531 4.0187,3.11806 4.1145,2.85376 2.3075,1.2731 3.5235,1.8455 3.6903,1.6798 4.1541,1.4538 3.7259,1.1675 3.6825,0.7441 3.285,0.4416 3.0789,0.2674 h 56.728 l 2.2738,-0.2161 3.6621,-0.6453 2.1372,-0.5088 2.6035,-0.8999 3.7077,-1.5118 3.7208,-1.891 3.1188,-1.9598 2.4944,-2.0592 3.0857,-2.87897 3.1141,-3.8291 2.3879,-3.91547 1.3793,-3.23388 1.0698,-2.90137 0.8145,-3.35182 0.4154,-3.60212 0.024,-2.14243 V 43.122776 l -0.2807,-2.933409 -0.6388,-3.84483 -1.3177,-4.256553 -1.5322,-3.683235 -2.5337,-4.457112 -1.9699,-2.576663 z"
   id="path396" /><path
   style="fill:none;stroke:#000000;stroke-width:1px;stroke-linecap:butt;stroke-linejoin:miter;stroke-opacity:1"
   d="m 395.3929,880.01662 v 6.06618 l -0.2239,1.59196 -0.2931,1.46126 -0.9139,1.97727 -1.4401,1.86385 -1.8286,1.49726 -2.1313,1.08137 -1.9039,0.52673 -1.6018,0.14356 h -79.7814 l -1.9951,-0.40917 -2.2181,-0.85154 -1.5437,-0.8939 -1.324,-1.04822 -0.8339,-0.99639 -0.9297,-1.46434 -0.5711,-1.09471 -0.331,-0.85228 -0.2214,-1.44499 V 886.20041 69.965173 l 0.1524,-0.788531 0.1354,-0.617714 0.2239,-0.775811 0.2629,-0.760274 0.5285,-1.021619 0.7718,-1.105401 0.9507,-1.04883 1.5188,-1.194798 1.1498,-0.701154 1.3513,-0.549935 1.7628,-0.483736 1.567,-0.172026 h 79.0926 l 1.0991,0.09891 1.3891,0.276725 2.2207,0.74493 1.1905,0.674972 1.4954,1.144854 0.8938,0.851599 1.1289,1.648931 0.7411,1.63916 0.386,1.573958 0.05,1.062421 z"
   id="path398" /><path
   style="fill:none;stroke:#000000;stroke-width:1px;stroke-linecap:butt;stroke-linejoin:miter;stroke-opacity:1"
   d="m 280.0489,34.017286 -2.8746,2.164983 -1.3945,1.271218 -1.1064,1.188679 -1.3392,1.497285 -1.3821,1.735969 -1.1375,1.547371 -1.1471,1.614934 -1.7633,2.778241 -1.1335,1.988572 -0.9191,1.690273 -1.3324,2.591465 -1.1121,2.324017 -1.5658,3.382398 -0.6357,1.217159 -0.7728,1.852403 -0.7249,1.7502 -0.989,2.110917 -1.0447,2.261536 -0.86,1.70122 -0.7487,1.458071 -0.7784,1.500722 -1.1616,2.031119 -0.6994,1.166473 -1.3216,2.110474 -1.1613,1.584716 -0.9183,1.124803 -1.4672,1.695124 -1.42,1.417784 -1.9934,1.724908 -2.2557,1.72298 -2.1512,1.20455 -1.3718,0.68514 -3.115,1.23076 -4.1538,1.06111 -3.0868,0.4675 -3.2213,0.30214 h -28.4829 l -0.9465,0.0522 -0.9784,0.35707 -1.1635,0.4739 -0.9822,0.69974 -1.0146,1.07545 -0.9282,1.35489 -0.6502,1.7225 -0.1277,1.59156 0.296,1.44131 0.7415,1.59064 1.9905,3.44769 2.4225,4.15209 2.3354,3.53006 1.3741,1.96135 1.2426,1.70362 1.4133,1.82618 1.3411,1.74059 2.1466,2.65906 1.9723,2.30436 1.0859,1.37163 2.4142,2.76344 1.3089,1.52486 3.0336,3.39354 1.5816,1.80314 1.3444,1.31094 2.4631,2.62274 1.0462,1.088 4.8462,5.01965 3.6011,3.76598 1.7432,1.82423 2.1054,2.24013 6.0616,6.47629 2.3937,2.58723 2.014,2.19763 1.6282,1.85126 1.1405,1.25224 1.6465,1.98007 1.726,2.18054 1.5288,1.91466 1.2553,1.47803 1.1294,1.5201 1.6519,2.24592 1.1514,1.59813 1.313,1.80747 1.0891,1.73386 1.8619,2.95681 1.9716,3.31485 1.215,2.46611 1.3695,2.68245 0.9533,2.4215 1.0707,2.90707 0.7627,2.01532 h 0.6246"
   id="path400" /><path
   style="fill:none;stroke:#000000;stroke-width:1px;stroke-linecap:butt;stroke-linejoin:miter;stroke-opacity:1"
   d="m 419.6848,225.24529 h 3.3148 l 1.2108,0.19587 1.4197,0.53011 1.5704,0.97007 0.9319,0.98029 0.8244,1.30095 0.4607,1.28829 0.064,0.91052 0.1581,2.35685 0.2578,3.05672 0.2171,3.22797 0.2039,3.98205 0.1256,3.05298 0.1452,4.34265 0.086,5.4517 v 13.88157 l -0.1562,2.15427 -0.069,2.19292 -0.2028,3.00598 -0.2269,2.94631 -0.169,2.82951 -0.3265,4.36272 -0.1216,1.92949 -0.121,1.18236 -0.3083,1.24744 -0.7538,1.13179 -1.0196,0.99385 -1.5458,0.79964 -1.2805,0.22452 h -4.5718 -0.1723 z"
   id="path402" /><path
   style="fill:none;stroke:#000000;stroke-width:1px;stroke-linecap:butt;stroke-linejoin:miter;stroke-opacity:1"
   d="m 419.7599,146.68429 h 3.3148 l 1.2108,0.19587 1.4197,0.53011 1.5704,0.97007 0.9319,0.98029 0.8244,1.30095 0.4608,1.28829 0.064,0.91052 0.158,2.35685 0.2578,3.05672 0.2171,3.22797 0.2039,3.98205 0.1256,3.05298 0.1452,4.34265 0.086,5.4517 v 13.88157 l -0.1562,2.15427 -0.07,2.19292 -0.2028,3.00598 -0.2269,2.94631 -0.169,2.82951 -0.3264,4.36272 -0.1217,1.92949 -0.121,1.18236 -0.3083,1.24744 -0.7538,1.13179 -1.0196,0.99385 -1.5458,0.79964 -1.2805,0.22452 h -4.5717 -0.1724 z"
   id="path404" /><path
   style="fill:none;stroke:#000000;stroke-width:1px;stroke-linecap:butt;stroke-linejoin:miter;stroke-opacity:1"
   d="m 419.3182,691.18384 0.7067,0.005 1.1504,0.26365 0.9444,0.76195 0.3328,0.70813 v 46.67098 l -0.351,0.83252 -1.1666,0.89657 -0.7662,0.1774 -0.7976,-0.0361 z"
   id="path406"
   sodipodi:nodetypes="ccccccccccc" /><path
   style="fill:none;stroke:#000000;stroke-width:1px;stroke-linecap:butt;stroke-linejoin:miter;stroke-opacity:1"
   d="m 291.799,21.833301 -2.4184,0.270008 -3.5205,0.795311 -3.2999,0.791368 -3.3568,0.854919 -10.5848,3.049718 -8.2427,2.611219 -6.9829,2.302083 -8.1913,2.713328 -6.855,2.117746 -7.5618,2.217551 -3.0235,0.890281 -3.0148,0.780909 -2.5919,0.652816 -4.3968,1.008464 -3.4498,0.730281 -4.1489,0.730008 -5.6739,0.747082 -2.2602,0.257554 -2.5162,0.193538 -1.5131,0.53719 -1.7144,0.823615 -1.1537,0.804241 -0.8192,0.616278 -1.0935,1.169221 -1.2892,1.658677 -1.0363,2.0311 -0.4006,1.598941 -0.1889,1.035167 v 22.386153 l 0.1909,1.305632 0.4958,1.408865 0.8296,1.649749 0.8332,1.217543 1.2656,1.517803 1.473,1.67519 1.7472,1.806 1.5258,1.66687 1.0269,1.42626 0.5157,0.92256"
   id="path408" /><path
   style="fill:none;stroke:#000000;stroke-width:1px;stroke-linecap:butt;stroke-linejoin:miter;stroke-opacity:1"
   d="m 419.5504,489.09447 1.0104,0.39157 1.2284,0.93414 1.2742,1.0266 1.3335,1.34755 1.3498,1.58941 1.4074,1.79596 1.068,1.4886 0.8509,1.19973 0.8928,1.39146 0.9973,1.62576 0.6021,1.24333 0.8025,1.68804 0.9324,1.96316 0.9148,2.22486 0.6262,1.90738 0.5734,2.0049 0.5948,2.79681 0.1489,0.35893 1.1814,-0.13758 0.9744,-0.18453 1.2915,-0.53944 1.0017,-0.68907 1.1544,-0.99535 0.604,-0.85004 0.4934,-1.12029 0.3702,-1.37331 v -45.33419 l 0.2034,-1.17653 0.748,-1.09495 0.8786,-0.84648 1.1084,-0.65922 1.6277,-0.61299 1.9995,-0.31181 2.419,-0.0432 3.3419,0.50976 2.789,1.02605 1.7576,0.92574 1.4806,0.99459 2.1054,1.92583 1.357,1.78977 0.7746,1.80358 0.5382,2.14337 0.1755,1.82459 v 15.36545 l 0.7426,2.32837 0.8151,3.04194 0.6637,2.10231 1.4461,5.39684 0.1081,0.54415 0.3624,1.61807 0.4384,2.00735 0.5281,2.58998 0.5111,2.93668 0.532,3.40847 0.5218,3.68177 0.2738,2.55863 0.1742,1.97306 0.125,1.76412 0.1687,2.52444 0.093,2.5116 0.1008,2.95717 0.032,3.58916 -0.1372,3.61839 -0.1588,3.45509"
   id="path410" /><path
   style="fill:none;stroke:#000000;stroke-width:1px;stroke-linecap:butt;stroke-linejoin:miter;stroke-opacity:1"
   d="m 419.5504,578.15116 1.0104,-0.39157 1.2284,-0.93414 1.2742,-1.0266 1.3335,-1.34755 1.3498,-1.58941 1.4074,-1.79596 1.068,-1.4886 0.8509,-1.19973 0.8928,-1.39146 0.9973,-1.62576 0.6021,-1.24333 0.8025,-1.68804 0.9324,-1.96316 0.9148,-2.22486 0.6262,-1.90738 0.5734,-2.0049 0.5948,-2.79681 0.1489,-0.35893 1.1814,0.13758 0.9744,0.18453 1.2915,0.53944 1.0017,0.68907 1.1544,0.99535 0.604,0.85004 0.4934,1.12029 0.3702,1.37331 v 45.33419 l 0.2034,1.17653 0.748,1.09495 0.8786,0.84648 1.1084,0.65922 1.6277,0.61299 1.9995,0.31181 2.419,0.0432 3.3419,-0.50976 2.789,-1.02605 1.7576,-0.92574 1.4806,-0.99459 2.1054,-1.92583 1.357,-1.78977 0.7746,-1.80358 0.5382,-2.14337 0.1755,-1.82459 v -15.36545 l 0.7426,-2.32837 0.8151,-3.04194 0.6637,-2.10231 1.4461,-5.39684 0.1081,-0.54415 0.3624,-1.61807 0.4384,-2.00735 0.5281,-2.58998 0.5111,-2.93668 0.532,-3.40847 0.5218,-3.68177 0.2738,-2.55863 0.1742,-1.97306 0.125,-1.76412 0.1687,-2.52444 0.093,-2.5116 0.1008,-2.95717 0.032,-3.58916 -0.1372,-3.61839 -0.1588,-3.45509"
   id="path412" /><path
   style="fill:none;stroke:#000000;stroke-width:1px;stroke-linecap:butt;stroke-linejoin:miter;stroke-opacity:1"
   d="m 345.6694,229.75461 h -6.1466 l -2.0406,0.16173 -1.1253,0.1953 -1.5748,0.44867 -1.3791,0.53886 -1.4965,0.74967 -1.1637,0.77396 -1.2064,0.95657 -1.075,1.06404 -1.1014,1.41493 -0.594,1.14722 -0.5358,1.29229 -0.5077,1.36813 -0.1092,1.5301 -0.019,1.06031 v 58.69762 l 0.1365,1.11638 0.2065,0.99097 0.3274,0.9147 0.2958,0.88818 0.5023,0.98607 0.7034,1.07023 0.7271,0.83072 1.1425,1.22917 0.9548,0.84847 1.1231,0.73807 1.3029,0.76185 1.5781,0.61856 1.753,0.41994 1.6248,0.25206 1.9291,0.0355 h 12.2138 l 1.2445,-0.14346 1.4416,-0.26481 1.209,-0.3538 1.3406,-0.58952 1.2548,-0.64457 0.9072,-0.5388 1.0383,-0.81994 0.7108,-0.73783 0.6713,-0.63536 1.2672,-1.78476 1.0821,-2.39096 0.4226,-1.73078 0.032,-1.77014 v -58.93942 l -0.1414,-0.90899 -0.2101,-0.66149 -0.2984,-1.07142 -0.4418,-1.07685 -0.4733,-1.01774 -0.3698,-0.61491 -0.9962,-1.35072 -0.9572,-1.00027 -0.9422,-0.8506 -0.8825,-0.60388 -1.188,-0.67727 -1.3389,-0.66409 -0.8725,-0.3618 -0.9794,-0.32179 -0.9048,-0.1841 -1.4328,-0.23747 -0.4669,-0.0583 -1.0123,-0.0549 z"
   id="path414" /><path
   style="fill:none;stroke:#000000;stroke-width:1px;stroke-linecap:butt;stroke-linejoin:miter;stroke-opacity:1"
   d="m 345.6694,629.05229 h -6.1466 l -2.0406,0.16173 -1.1253,0.1953 -1.5748,0.44867 -1.3791,0.53886 -1.4965,0.74967 -1.1637,0.77396 -1.2064,0.95657 -1.075,1.06404 -1.1014,1.41493 -0.594,1.14722 -0.5358,1.29229 -0.5077,1.36813 -0.1092,1.5301 -0.019,1.06031 v 58.69762 l 0.1365,1.11638 0.2065,0.99097 0.3274,0.9147 0.2958,0.88818 0.5023,0.98607 0.7034,1.07023 0.7271,0.83072 1.1425,1.22917 0.9548,0.84847 1.1231,0.73807 1.3029,0.76185 1.5781,0.61856 1.753,0.41994 1.6248,0.25206 1.9291,0.0355 h 12.2138 l 1.2445,-0.14346 1.4416,-0.26481 1.209,-0.3538 1.3406,-0.58952 1.2548,-0.64457 0.9072,-0.5388 1.0383,-0.81994 0.7108,-0.73783 0.6713,-0.63536 1.2672,-1.78476 1.0821,-2.39096 0.4226,-1.73078 0.032,-1.77014 v -58.93942 l -0.1414,-0.90899 -0.2101,-0.66149 -0.2984,-1.07142 -0.4418,-1.07685 -0.4733,-1.01774 -0.3698,-0.61491 -0.9962,-1.35072 -0.9572,-1.00027 -0.9422,-0.8506 -0.8825,-0.60388 -1.188,-0.67727 -1.3389,-0.66409 -0.8725,-0.3618 -0.9794,-0.32179 -0.9048,-0.1841 -1.4328,-0.23747 -0.4669,-0.0583 -1.0123,-0.0549 z"
   id="path416" /><path
   style="fill:none;stroke:#000000;stroke-width:1px;stroke-linecap:butt;stroke-linejoin:miter;stroke-opacity:1"
   d="m 353.2324,377.17942 -0.7082,-0.63301 -1.1854,-0.67648 -1.4931,-0.34926 h -9.8804 l -0.9459,0.22194 -1.2204,0.49777 -0.951,0.6206 -0.9876,1.0361 -0.4926,1.26956 -0.1353,0.89081 v 8.2421 l 0.2954,1.45324 0.5257,0.96154 0.8249,0.79579 1.0043,0.74752 0.7941,0.33239 1.1016,0.0723 h 10.9798 l 1.0335,-0.40718 0.9041,-0.58046 0.5953,-0.46986 0.6707,-0.93583 0.4571,-1.10455 v -9.53238 l -0.2623,-1.05549 z"
   id="path418" /><path
   style="fill:none;stroke:#000000;stroke-width:1px;stroke-linecap:butt;stroke-linejoin:miter;stroke-opacity:1"
   d="m 353.2324,415.84804 -0.7082,-0.63301 -1.1854,-0.67648 -1.4931,-0.34926 h -9.8804 l -0.9459,0.22194 -1.2204,0.49777 -0.951,0.6206 -0.9876,1.0361 -0.4926,1.26956 -0.1353,0.89081 v 8.2421 l 0.2954,1.45324 0.5257,0.96154 0.8249,0.79579 1.0043,0.74752 0.7941,0.33239 1.1016,0.0723 h 10.9798 l 1.0335,-0.40718 0.9041,-0.58046 0.5953,-0.46986 0.6707,-0.93583 0.4571,-1.10455 v -9.53238 l -0.2623,-1.05549 z"
   id="path420" /><path
   style="fill:none;stroke:#000000;stroke-width:1px;stroke-linecap:butt;stroke-linejoin:miter;stroke-opacity:1"
   d="m 353.2324,455.45104 -0.7082,-0.63301 -1.1854,-0.67648 -1.4931,-0.34926 h -9.8804 l -0.9459,0.22194 -1.2204,0.49777 -0.951,0.6206 -0.9876,1.0361 -0.4926,1.26956 -0.1353,0.89081 v 8.2421 l 0.2954,1.45324 0.5257,0.96154 0.8249,0.79579 1.0043,0.74752 0.7941,0.33239 1.1016,0.0723 h 10.9798 l 1.0335,-0.40718 0.9041,-0.58046 0.5953,-0.46986 0.6707,-0.93583 0.4571,-1.10455 v -9.53238 l -0.2623,-1.05549 z"
   id="path422" /><path
   style="fill:none;stroke:#000000;stroke-width:1px;stroke-linecap:butt;stroke-linejoin:miter;stroke-opacity:1"
   d="m 353.2324,494.16804 -0.7082,-0.63301 -1.1854,-0.67648 -1.4931,-0.34926 h -9.8804 l -0.9459,0.22194 -1.2204,0.49777 -0.951,0.6206 -0.9876,1.0361 -0.4926,1.26956 -0.1353,0.89081 v 8.2421 l 0.2954,1.45324 0.5257,0.96154 0.8249,0.79579 1.0043,0.74752 0.7941,0.33239 1.1016,0.0723 h 10.9798 l 1.0335,-0.40718 0.9041,-0.58046 0.5953,-0.46986 0.6707,-0.93583 0.4571,-1.10455 v -9.53238 l -0.2623,-1.05549 z"
   id="path424" /><path
   style="fill:none;stroke:#000000;stroke-width:1px;stroke-linecap:butt;stroke-linejoin:miter;stroke-opacity:1"
   d="m 269.3709,104.10426 h -4.9495 l -1.0113,0.19773 -1.022,0.65678 -0.7694,0.84217 -0.623,1.27551 -0.4117,1.3715 -0.6037,2.17152 -0.5303,2.14305 -0.3827,1.9667 -0.3142,1.95063 -0.2528,2.01116 -0.2212,2.18086 -0.1418,2.35493 -0.046,2.05813 0.034,2.89349 0.1866,2.92296 0.2597,3.11808 0.3257,2.74124 0.4726,2.4298 0.3837,2.06422 0.6228,2.42502 0.4876,1.70136 0.5673,1.13322 0.656,0.75539 0.7893,0.54624 0.78,0.31802 0.8271,0.091 h 5.1673 0.2296 v -44.33098 z"
   id="path426" /><path
   style="fill:none;stroke:#000000;stroke-width:1px;stroke-linecap:butt;stroke-linejoin:miter;stroke-opacity:1"
   d="m 419.3062,96.55002 h 3.3623 l 0.9525,0.25724 0.8868,0.75004 0.3797,1.09319 v 10.77754 l -0.3997,0.99826 -0.4739,0.71234 -0.6363,0.44149 -0.5074,0.1596 h -3.3662 -0.2116 z"
   id="path428" /><path
   style="fill:none;stroke:#000000;stroke-width:1px;stroke-linecap:butt;stroke-linejoin:miter;stroke-opacity:1"
   d="m 368.2112,752.94459 h -46.6816 l 23.3408,36.91648 z"
   id="path430" /><path
   style="fill:none;stroke:#000000;stroke-width:1px;stroke-linecap:butt;stroke-linejoin:miter;stroke-opacity:1"
   d="m 368.2112,797.10229 h -46.6816 l 23.3408,36.91648 z"
   id="path432" /><path
   style="fill:none;stroke:#000000;stroke-width:1px;stroke-linecap:butt;stroke-linejoin:miter;stroke-opacity:1"
   d="m 368.2112,841.28729 h -46.6816 l 23.3408,36.91648 z"
   id="path434" /><path
   style="fill:none;stroke:#000000;stroke-width:1px;stroke-linecap:butt;stroke-linejoin:miter;stroke-opacity:1"
   d="m 343.5847,742.18039 h -27.013 l -1.8698,0.27984 -1.342,0.35861 -1.606,0.66271 -1.1661,0.75038 -1.1412,0.87581 -0.7833,0.82352 -0.7034,0.79476 -0.6319,1.11034 -0.4797,0.98671 -0.3453,1.02557 -0.2487,1.19482 -0.069,0.83001 v 125.13444 l 0.052,0.87022 0.1667,1.04823 0.4222,1.1949 0.7328,1.49184 0.8537,1.14843 1.4176,1.35197 1.1779,0.91682 1.5965,0.85748 1.9127,0.61446 1.7443,0.19502 h 57.292 l 1.482,-0.11697 1.5379,-0.37898 1.0258,-0.41892 1.0471,-0.55491 0.7983,-0.48511 1.0868,-0.81532 1.1798,-1.27639 0.6871,-0.91853 0.4367,-0.77474 0.3972,-0.76502 0.3643,-1.03505 0.1713,-0.79475 0.086,-1.21863 V 752.00137 l -0.076,-1.09842 -0.204,-0.95021 -0.2266,-0.79788 -0.3429,-0.76312 -0.7969,-1.46949 -0.8643,-1.14165 -1.3636,-1.22192 -1.4025,-0.94721 -0.7682,-0.40168 -1.6691,-0.59213 -1.312,-0.24962 -1.4844,-0.18211 -1.158,0.007 z"
   id="path436" /><path
   style="fill:none;stroke:#000000;stroke-width:1px;stroke-linecap:butt;stroke-linejoin:miter;stroke-opacity:1"
   d="M 390.4523,7.633323 V 4.484912 L 390.0808,3.029851 389.3249,1.962501 388.1373,0.983654 386.4348,0.5 h -45.228 l -1.5835,0.188593 -1.2132,0.588021 -0.8602,0.633602 -0.6208,0.614809 -0.7767,1.219105 -0.2726,1.398908 v 2.485188 z"
   id="path438" /><path
   style="fill:none;stroke:#000000;stroke-width:1px;stroke-linecap:butt;stroke-linejoin:miter;stroke-opacity:1"
   d="m 419.68509,299.72429 h 3.3148 l 1.2108,0.19587 1.41971,0.53011 1.5704,0.97007 0.9319,0.98029 0.8244,1.30095 0.4607,1.28829 0.064,0.91052 0.1581,2.35685 0.2578,3.05672 0.2171,3.22797 0.2039,3.98205 0.1256,3.05298 0.1452,4.34265 0.086,5.4517 v 13.88157 l -0.1562,2.15427 -0.069,2.19292 -0.2028,3.00598 -0.2269,2.94631 -0.169,2.82951 -0.3265,4.36272 -0.1216,1.92949 -0.121,1.18236 -0.3083,1.24744 -0.7538,1.13179 -1.0196,0.99385 -1.5458,0.79964 -1.28051,0.22452 h -4.5718 -0.1723 z"
   id="path440" /><path
   style="font-variation-settings:normal;opacity:1;vector-effect:none;fill:#1a1a1a;fill-opacity:1;stroke:#000000;stroke-width:1px;stroke-linecap:butt;stroke-linejoin:miter;stroke-miterlimit:4;stroke-dasharray:none;stroke-dashoffset:0;stroke-opacity:1;stop-color:#000000;stop-opacity:1"
   d="m 301.56367,893.75162 c -1.71731,-0.84721 -3.63309,-2.66124 -4.25728,-4.03118 -0.83944,-1.84238 -1.13488,-108.88626 -1.13488,-411.19219 0,-355.43486 0.18968,-409.068199 1.45533,-411.515706 2.62275,-5.071837 3.78377,-5.186325 49.5035,-4.881544 l 42.3754,0.282487 2.41681,2.810569 2.41681,2.810569 V 477.63214 c 0,315.43004 -0.27513,410.20136 -1.19673,412.22405 -2.45691,5.39234 -3.25051,5.48336 -47.58702,5.45862 -34.72063,-0.0193 -41.33931,-0.25457 -43.99194,-1.56319 z m 79.55885,-9.25108 c 2.12921,-1.98898 3.21222,-4.13527 3.6646,-7.26242 0.35319,-2.44147 0.50577,-32.49109 0.33906,-66.77694 l -0.30309,-62.3379 -3.27345,-3.27429 -3.27346,-3.27428 -30.78478,-0.31262 c -34.35748,-0.34891 -37.22985,0.016 -40.34521,5.12532 -1.88189,3.08639 -1.95191,5.54504 -1.95552,68.66293 l -0.004,65.46193 3.40582,3.40582 3.40582,3.40583 h 33.05076 33.05075 z M 358.239,711.54335 c 1.57682,-0.81541 3.80829,-2.67928 4.95882,-4.14195 2.02772,-2.57783 2.09187,-3.69856 2.09187,-36.54766 v -33.8883 l -3.08754,-3.51651 c -3.72994,-4.24816 -7.95721,-5.55561 -17.9866,-5.56302 -5.84642,-0.004 -8.55999,0.5032 -12.02055,2.24826 -7.84443,3.95572 -7.97242,4.60298 -7.97242,40.31894 0,34.66615 0.19721,35.81681 6.90659,40.29897 2.99392,2.00007 4.65814,2.27382 13.82329,2.27382 7.24014,0 11.29442,-0.45239 13.28654,-1.48255 z m -5.99204,-139.00766 c 6.10086,-3.11739 8.53502,-6.75988 8.53502,-12.77184 0,-8.4223 -5.95352,-14.17655 -15.26265,-14.7518 -7.02351,-0.43401 -12.57208,2.34255 -15.43573,7.72419 -7.14597,13.42935 8.05461,27.00867 22.16336,19.79945 z m 1.45148,-63.42988 c 1.10087,-1.10086 1.57412,-3.48865 1.57412,-7.94215 0,-8.51585 -1.07862,-9.51627 -10.26023,-9.51627 -9.38389,0 -10.77573,1.20668 -10.77573,9.34222 0,8.48897 1.31434,9.69032 10.60168,9.69032 5.28806,0 7.7177,-0.43166 8.86016,-1.57412 z m 0.37207,-38.69473 c 0.69725,-0.69725 1.20205,-4.03875 1.20205,-7.9569 0,-8.44376 -1.52314,-9.87359 -10.51798,-9.87359 -8.88853,0 -10.51798,1.47199 -10.51798,9.50153 0,8.65087 1.00564,9.53101 10.89005,9.53101 4.68578,0 8.21631,-0.4745 8.94386,-1.20205 z m -0.62982,-39.52257 c 2.44013,-2.20828 2.62327,-13.43508 0.25775,-15.80059 -2.26592,-2.26593 -15.101,-2.20499 -17.62997,0.0837 -2.48085,2.24514 -2.59975,12.86248 -0.17405,15.54285 2.27669,2.51572 14.82125,2.64015 17.54627,0.17404 z m -0.1057,-38.44592 c 1.6168,-0.86529 1.93757,-2.13749 1.93757,-7.6844 0,-9.02878 -1.23743,-10.31119 -9.94949,-10.31119 -9.51513,0 -11.08647,1.3467 -11.08647,9.50153 0,8.51102 1.08671,9.53101 10.15453,9.53101 3.85346,0 7.8782,-0.46663 8.94386,-1.03695 z m 6.37774,-81.04974 c 5.473,-3.60783 5.50308,-3.82625 5.54147,-40.2376 0.0344,-32.65824 -0.0275,-33.75284 -2.05638,-36.3321 -3.6348,-4.6209 -6.89038,-5.62449 -18.24536,-5.62449 -9.16515,0 -10.82937,0.27374 -13.82329,2.27381 -6.85365,4.57854 -6.99491,5.45124 -6.6855,41.30069 0.2612,30.26439 0.38856,32.20349 2.28008,34.71678 3.82743,5.08555 6.09521,5.79768 18.53169,5.81933 9.72787,0.0169 11.97662,-0.28115 14.45729,-1.91642 z"
   id="path504" /><path
   style="font-variation-settings:normal;opacity:1;vector-effect:none;fill:#1a1a1a;fill-opacity:1;stroke:#000000;stroke-width:1px;stroke-linecap:butt;stroke-linejoin:miter;stroke-miterlimit:4;stroke-dasharray:none;stroke-dashoffset:0;stroke-opacity:1;stop-color:#000000;stop-opacity:1"
   d="m 420.36151,334.90004 v -34.75633 l 2.0263,0.23815 c 2.75467,0.32376 4.80203,1.57598 5.69709,3.48449 1.06072,2.26176 1.52361,9.71023 1.72256,27.71794 0.14637,13.24854 0.0672,17.02245 -0.52828,25.19166 -0.77583,10.64303 -0.85918,10.95183 -3.29112,12.19251 -0.89452,0.45635 -2.06849,0.68792 -3.48749,0.68792 h -2.13906 z"
   id="path506" /><path
   style="font-variation-settings:normal;opacity:1;vector-effect:none;fill:#1a1a1a;fill-opacity:1;stroke:#000000;stroke-width:1px;stroke-linecap:butt;stroke-linejoin:miter;stroke-miterlimit:4;stroke-dasharray:none;stroke-dashoffset:0;stroke-opacity:1;stop-color:#000000;stop-opacity:1"
   d="m 420.36151,260.53157 v -34.75143 l 1.85933,0.15785 c 2.39951,0.20371 4.31925,1.13642 5.48512,2.66497 0.83656,1.09678 0.97668,1.7388 1.39976,6.41356 0.25858,2.85712 0.56214,12.52586 0.67458,21.48608 0.1781,14.19187 0.11309,17.54027 -0.50447,25.983 l -0.70891,9.69168 -1.16519,1.20216 c -1.30344,1.34481 -2.86398,1.89866 -5.35797,1.90159 l -1.68225,0.002 z"
   id="path508" /><path
   style="font-variation-settings:normal;opacity:1;vector-effect:none;fill:#1a1a1a;fill-opacity:1;stroke:#000000;stroke-width:1px;stroke-linecap:butt;stroke-linejoin:miter;stroke-miterlimit:4;stroke-dasharray:none;stroke-dashoffset:0;stroke-opacity:1;stop-color:#000000;stop-opacity:1"
   d="m 420.36151,181.9026 v -34.75712 l 1.92371,0.19854 c 2.49155,0.25715 4.263,1.11778 5.41822,2.63234 1.41345,1.85314 1.85463,7.51526 2.10513,27.01756 0.17647,13.73942 0.10561,18.07268 -0.42766,26.14973 -0.46732,7.07821 -0.78975,9.98262 -1.19916,10.80185 -0.79619,1.59315 -3.17954,2.71422 -5.77033,2.71422 h -2.04991 z"
   id="path510" /><path
   style="font-variation-settings:normal;opacity:1;vector-effect:none;fill:#1a1a1a;fill-opacity:1;stroke:#000000;stroke-width:1px;stroke-linecap:butt;stroke-linejoin:miter;stroke-miterlimit:4;stroke-dasharray:none;stroke-dashoffset:0;stroke-opacity:1;stop-color:#000000;stop-opacity:1"
   d="m 447.5015,605.96853 c -1.8715,-0.70661 -2.9819,-1.7154 -3.3712,-3.06268 -0.2644,-0.9154 -0.3472,-22.05223 -0.2745,-70.13291 l 0.1041,-68.8226 1.2946,-1.18645 c 2.041,-1.87038 4.9744,-2.37787 9.1933,-1.59049 4.2243,0.78838 8.8238,4.07342 10.363,7.40147 0.6902,1.49247 0.7677,2.40752 0.9325,11.01292 l 0.1796,9.38522 1.7041,5.81417 c 7.6872,26.22849 7.7031,50.97284 0.05,77.62707 l -1.8918,6.58875 -0.1107,9.17132 -0.1107,9.17132 -1.0625,1.92041 c -1.2599,2.27718 -3.7071,4.33173 -6.8926,5.78647 -1.902,0.86861 -2.8591,1.06811 -5.6666,1.18115 -2.0013,0.0806 -3.8109,-0.0275 -4.4404,-0.26514 z"
   id="path512" /><path
   style="font-variation-settings:normal;opacity:1;vector-effect:none;fill:#1a1a1a;fill-opacity:1;stroke:#000000;stroke-width:1px;stroke-linecap:butt;stroke-linejoin:miter;stroke-miterlimit:4;stroke-dasharray:none;stroke-dashoffset:0;stroke-opacity:1;stop-color:#000000;stop-opacity:1"
   d="m 441.6385,552.69826 c -0.5999,-0.72278 -2.3597,-1.63125 -3.6993,-1.9097 l -1.06248,-0.22083 -0.092,-16.88205 -0.092,-16.88205 1.50858,-0.39612 c 0.8297,-0.21787 2.1062,-0.86942 2.8367,-1.4479 l 1.3281,-1.05178 v 19.67251 c 0,10.81988 -0.06,19.67251 -0.1337,19.67251 -0.074,0 -0.3409,-0.24956 -0.594,-0.55459 z"
   id="path514" /><path
   style="font-variation-settings:normal;opacity:1;vector-effect:none;fill:#1a1a1a;fill-opacity:1;stroke:#000000;stroke-width:1px;stroke-linecap:butt;stroke-linejoin:miter;stroke-miterlimit:4;stroke-dasharray:none;stroke-dashoffset:0;stroke-opacity:1;stop-color:#000000;stop-opacity:1"
   d="m 420.05417,533.58457 v -43.39693 l 0.79594,0.42597 c 0.43776,0.23429 1.60747,1.27059 2.59935,2.30289 4.51391,4.69789 9.10684,12.69355 10.93014,19.02792 l 0.9034,3.1385 v 18.51411 18.51411 l -0.90522,3.13851 c -1.92215,6.6643 -6.56913,14.65718 -11.23693,19.32767 -1.32154,1.3223 -2.55667,2.40418 -2.74474,2.40418 -0.21796,0 -0.34194,-15.73501 -0.34194,-43.39693 z"
   id="path516" /><path
   style="font-variation-settings:normal;opacity:1;vector-effect:none;fill:#ff5f55;fill-opacity:0.956863;stroke:#000000;stroke-width:1px;stroke-linecap:butt;stroke-linejoin:miter;stroke-miterlimit:4;stroke-dasharray:none;stroke-dashoffset:0;stroke-opacity:1;stop-color:#000000;stop-opacity:1"
   d="m 335.63335,311.65118 c -4.47211,-1.43044 -8.16447,-5.23504 -9.00365,-9.27735 -0.36988,-1.78171 -0.50034,-12.34937 -0.40296,-32.64139 0.1423,-29.65153 0.1568,-30.03042 1.22506,-32.01013 1.34355,-2.48987 3.26115,-4.29846 6.18136,-5.82996 2.12582,-1.11488 2.76601,-1.18203 11.26927,-1.18203 8.8705,0 9.06155,0.0226 11.88512,1.40919 3.43345,1.68603 5.6601,4.21719 6.66095,7.57192 1.03853,3.48097 1.0586,61.11582 0.0223,64.01972 -1.0408,2.91652 -3.11143,5.26991 -5.9528,6.76568 -2.52331,1.32834 -2.85912,1.3709 -11.61386,1.4719 -4.95847,0.0572 -9.58033,-0.0767 -10.27079,-0.29755 z m 1.17111,-23.89097 c 1.69917,-0.99041 3.83672,-2.36548 4.75009,-3.05572 0.91337,-0.69024 1.70222,-1.17588 1.753,-1.07919 1.60614,3.05845 3.23281,4.12486 6.29196,4.12486 5.19413,0 6.57219,-2.34745 6.57219,-11.1954 V 270.5284 H 344.652 333.13231 v 2.25385 2.25386 h 4.75813 c 4.47471,0 4.75814,0.0616 4.75814,1.03464 0,1.88763 -0.98287,2.92107 -5.26942,5.5405 l -4.24685,2.59518 v 2.67726 c 0,1.47249 0.13111,2.67725 0.29136,2.67725 0.16026,0 1.68161,-0.81033 3.38079,-1.80073 z m 7.18951,-19.21031 c 1.90336,-1.16056 2.36822,-1.96052 3.72198,-6.40498 1.21367,-3.98456 2.07495,-5.11781 3.30156,-4.34408 2.13621,1.34748 1.7548,5.31898 -0.59668,6.21301 -1.0615,0.40359 -1.26112,0.80104 -1.26112,2.51102 0,2.58432 0.81809,2.92167 3.70089,1.52613 1.69365,-0.81988 2.40738,-1.54533 3.0154,-3.06492 0.99104,-2.47686 1.02301,-5.96842 0.0754,-8.23635 -1.41693,-3.39119 -5.90057,-4.74899 -9.14645,-2.76987 -1.84312,1.12382 -2.71795,2.62112 -3.89293,6.66291 -0.81261,2.79529 -1.83361,4.37621 -2.82627,4.37621 -0.26832,0 -1.04107,-0.55322 -1.71723,-1.22937 -2.13056,-2.13056 -1.41573,-5.33732 1.45735,-6.53777 1.49097,-0.62297 1.59061,-0.81469 1.40965,-2.71231 -0.17112,-1.79435 -0.3471,-2.04196 -1.45129,-2.04196 -1.84609,0 -4.85285,1.86721 -5.92333,3.67842 -1.29272,2.18722 -1.24224,7.61334 0.0923,9.92452 1.85527,3.21295 6.80729,4.42097 10.04074,2.44939 z"
   id="path518" /><path
   style="font-variation-settings:normal;opacity:1;vector-effect:none;fill:#ff5f55;fill-opacity:0.956863;stroke:#000000;stroke-width:1px;stroke-linecap:butt;stroke-linejoin:miter;stroke-miterlimit:4;stroke-dasharray:none;stroke-dashoffset:0;stroke-opacity:1;stop-color:#000000;stop-opacity:1"
   d="m 347.44249,282.26275 c -0.55227,-0.55227 -0.78706,-1.74758 -0.78706,-4.00685 v -3.21979 h 2.50428 2.50428 v 3.40582 c 0,1.98117 -0.25141,3.65724 -0.60102,4.00685 -0.84282,0.84282 -2.68636,0.74809 -3.62048,-0.18603 z"
   id="path520" /><path
   style="font-variation-settings:normal;opacity:1;vector-effect:none;fill:#ff5f55;fill-opacity:0.956863;stroke:#000000;stroke-width:1px;stroke-linecap:butt;stroke-linejoin:miter;stroke-miterlimit:4;stroke-dasharray:none;stroke-dashoffset:0;stroke-opacity:1;stop-color:#000000;stop-opacity:1"
   d="m 334.88531,710.66523 c -4.08385,-1.46139 -7.41169,-5.10597 -8.27047,-9.05767 -0.39391,-1.8126 -0.51594,-11.66957 -0.40418,-32.64792 0.15917,-29.87946 0.16641,-30.0632 1.26505,-32.11702 1.31842,-2.46467 3.58409,-4.47301 6.65831,-5.90207 2.01627,-0.93727 3.17779,-1.04771 11.01884,-1.04771 h 8.76499 l 3.21386,1.74208 c 3.44927,1.86967 5.61596,4.54534 6.58007,8.12575 0.31884,1.1841 0.45204,13.03108 0.3633,32.31294 -0.13946,30.30268 -0.14521,30.45295 -1.24507,32.50904 -1.28959,2.41079 -3.5888,4.47899 -6.40788,5.76408 -1.71077,0.77986 -3.32038,0.9091 -11.01884,0.88473 -5.07582,-0.0161 -9.67201,-0.2635 -10.51798,-0.56623 z m 2.25385,-27.68161 v -5.259 h 9.26584 9.26584 v -2.25385 -2.25385 h -11.26926 -11.26927 v 7.51284 7.51285 h 2.00342 2.00343 z m 7.23263,-16.40305 c 1.04294,-1.04599 2.03345,-2.88088 2.77129,-5.13378 1.35999,-4.1525 1.84267,-4.85599 3.19534,-4.65709 1.45334,0.2137 2.14262,3.09822 1.11508,4.66644 -0.42049,0.64175 -1.22131,1.31179 -1.77959,1.48899 -0.79461,0.2522 -1.01505,0.75334 -1.01505,2.30756 0,2.35268 0.7199,2.79079 3.22648,1.96355 2.36653,-0.78103 3.79708,-2.9265 4.13511,-6.20164 0.56019,-5.42779 -1.92602,-8.83365 -6.4484,-8.83365 -3.46529,0 -5.41883,1.94515 -6.92124,6.89148 -0.59652,1.96393 -1.40159,3.83387 -1.78904,4.15542 -1.2313,1.02189 -3.08886,0.13924 -3.71784,-1.76661 -0.87934,-2.66441 0.4337,-4.76927 3.68814,-5.91226 0.24054,-0.0845 0.27392,-1.1209 0.0742,-2.30316 -0.34102,-2.01849 -0.44403,-2.12941 -1.68948,-1.81902 -4.49974,1.1214 -6.58532,3.80592 -6.58532,8.47649 0,5.59772 2.42033,8.29969 7.43772,8.30319 2.35751,0.002 2.87466,-0.19378 4.30262,-1.62591 z"
   id="path522" /><path
   style="font-variation-settings:normal;opacity:1;vector-effect:none;fill:#ff5f55;fill-opacity:0.956863;stroke:#000000;stroke-width:1px;stroke-linecap:butt;stroke-linejoin:miter;stroke-miterlimit:4;stroke-dasharray:none;stroke-dashoffset:0;stroke-opacity:1;stop-color:#000000;stop-opacity:1"
   d="m 313.88181,991.6997 c -16.64557,-5.3212 -30.50206,-17.45831 -38.10114,-33.37334 l -4.05847,-8.49982 -10e-4,-449.14954 -0.001,-449.149526 3.6816,-7.388006 c 4.92503,-9.883248 18.43709,-23.13166 28.94978,-28.384917 13.20323,-6.59773 20.54918,-7.52699 55.54013,-7.025803 29.89918,0.428256 31.85668,0.623692 37.75368,3.769305 7.63586,4.073165 13.77249,10.442959 17.2755,17.931906 2.5727,5.500068 2.65109,19.35905 2.66838,471.739691 l 0.0178,466.07316 -4.10192,7.15133 c -2.25606,3.93323 -6.65047,8.91748 -9.76536,11.07616 -10.15801,7.0395 -16.20668,7.9874 -50.43404,7.9041 -26.30887,-0.064 -32.59012,-0.4902 -39.42372,-2.6747 z m 79.22337,-98.0772 3.27873,-3.08022 V 478.70517 c 0,-403.299387 -0.0561,-411.906451 -2.70657,-415.18149 l -2.70657,-3.344371 -44.75789,-0.411392 -44.75788,-0.411393 -3.53443,3.53443 -3.53443,3.534431 v 412.250205 412.2502 l 3.10039,2.88845 c 2.98408,2.7801 4.77438,2.88846 47.72015,2.88846 43.86243,0 44.67541,-0.0523 47.8985,-3.0802 z"
   id="path524" /><path
   style="font-variation-settings:normal;opacity:1;vector-effect:none;fill:#ff5f55;fill-opacity:0.956863;stroke:#000000;stroke-width:1px;stroke-linecap:butt;stroke-linejoin:miter;stroke-miterlimit:4;stroke-dasharray:none;stroke-dashoffset:0;stroke-opacity:1;stop-color:#000000;stop-opacity:1"
   d="m 265.08247,192.22486 c -4.04844,-8.33293 -16.84559,-24.10246 -35.30544,-43.50582 -26.81029,-28.1806 -38.0727,-43.30831 -37.13963,-49.88609 0.44804,-3.15847 0.96223,-3.25776 21.0005,-4.05519 23.39935,-0.93118 27.97177,-2.38673 36.23703,-11.535383 2.82569,-3.127701 8.27206,-12.399218 12.10303,-20.60337 3.83097,-8.204153 7.11203,-14.663774 7.29123,-14.354713 0.1792,0.309061 0.12781,12.833536 -0.1142,27.832167 l -0.44002,27.270239 h -3.52801 c -5.21935,0 -7.63511,7.05409 -7.62545,22.26651 0.0108,17.00318 1.77689,22.92697 7.15611,24.00281 l 4.16908,0.83382 v 23.90572 c 0,13.14815 -0.19172,23.90573 -0.42603,23.90573 -0.23432,0 -1.75451,-2.73439 -3.3782,-6.07643 z"
   id="path526" /><path
   style="font-variation-settings:normal;opacity:1;vector-effect:none;fill:#000000;fill-opacity:1;stroke:#000000;stroke-width:1px;stroke-linecap:butt;stroke-linejoin:miter;stroke-miterlimit:4;stroke-dasharray:none;stroke-dashoffset:0;stroke-opacity:1;stop-color:#000000;stop-opacity:1"
   d="m 310.21607,882.09088 c -3.06937,-3.2672 -3.08021,-3.50553 -3.08021,-67.75157 v -64.47284 l 3.27873,-3.08021 c 3.1609,-2.96951 4.397,-3.08022 34.39237,-3.08022 25.86749,0 31.6445,0.37184 34.26211,2.20529 l 3.14848,2.20528 v 66.42122 66.42122 l -3.14848,2.20528 c -2.61908,1.83448 -8.41347,2.20529 -34.46063,2.20529 -30.89856,0 -31.35284,-0.0433 -34.39237,-3.27874 z m 47.71558,-21.98427 c 6.3449,-10.04502 11.53618,-18.66994 11.53618,-19.1665 0,-0.49656 -11.156,-0.90284 -24.79112,-0.90284 -13.63512,0 -24.79113,0.29527 -24.79113,0.65616 0,1.91942 24.53684,38.89625 25.44009,38.33801 0.58838,-0.36364 6.26108,-8.87982 12.60598,-18.92483 z m 0.81724,-45.33249 c 6.02548,-9.60941 10.67427,-17.7528 10.33065,-18.09642 -0.34362,-0.34362 -11.57568,-0.44996 -24.96012,-0.23629 l -24.33536,0.38847 12.30737,19.5671 c 9.83848,15.64187 12.64787,19.19414 14.00472,17.70795 0.93353,-1.02254 6.62727,-9.7214 12.65274,-19.33081 z m -1.35005,-42.18638 c 6.72239,-10.60616 11.96004,-19.54641 11.63923,-19.86722 -0.32082,-0.32081 -11.49343,-0.40848 -24.82804,-0.19482 l -24.24473,0.38848 12.22448,19.47874 c 6.72347,10.71331 12.39595,19.47874 12.60551,19.47874 0.20956,0 5.88115,-8.67777 12.60355,-19.28392 z"
   id="path528" /><path
   style="font-variation-settings:normal;opacity:1;vector-effect:none;fill:#000000;fill-opacity:1;stroke:#000000;stroke-width:1px;stroke-linecap:butt;stroke-linejoin:miter;stroke-miterlimit:4;stroke-dasharray:none;stroke-dashoffset:0;stroke-opacity:1;stop-color:#000000;stop-opacity:1"
   d="m 196.99243,86.54473 c -4.52027,-5.360964 -4.60406,-5.716965 -4.60406,-19.561688 0,-17.245226 1.53991,-19.423933 14.87467,-21.045102 9.67784,-1.176582 21.30897,-4.300574 54.43023,-14.619361 12.79533,-3.986331 23.60171,-6.910403 24.01417,-6.497937 0.41247,0.412465 -3.24157,4.643703 -8.12008,9.40275 -7.11384,6.939632 -10.30184,11.627912 -16.10171,23.679226 -9.7373,20.232709 -13.18698,25.141957 -20.82047,29.629592 -5.8988,3.46784 -7.96111,3.84295 -22.77737,4.14298 l -16.29131,0.32989 z"
   id="path530" /><path
   style="font-variation-settings:normal;opacity:1;vector-effect:none;fill:#000000;fill-opacity:1;stroke:#000000;stroke-width:1px;stroke-linecap:butt;stroke-linejoin:miter;stroke-miterlimit:4;stroke-dasharray:none;stroke-dashoffset:0;stroke-opacity:1;stop-color:#000000;stop-opacity:1"
   d="m 261.55709,143.40666 c -0.87612,-2.14266 -1.64667,-9.63313 -1.71233,-16.64547 -0.12772,-13.64015 2.04786,-20.81867 6.57361,-21.69025 2.25853,-0.43495 2.46833,1.33957 2.46833,20.87806 0,20.49599 -0.11518,21.35341 -2.86834,21.35341 -1.7985,0 -3.46247,-1.45304 -4.46127,-3.89575 z"
   id="path532" /><path
   style="font-variation-settings:normal;opacity:1;vector-effect:none;fill:#000000;fill-opacity:1;stroke:#000000;stroke-width:1px;stroke-linecap:butt;stroke-linejoin:miter;stroke-miterlimit:4;stroke-dasharray:none;stroke-dashoffset:0;stroke-opacity:1;stop-color:#000000;stop-opacity:1"
   d="m 336.88521,5.812294 c 0,-3.788187 4.69017,-4.480771 27.79365,-4.104217 21.43376,0.34934 23.92612,0.642883 24.35351,2.86828 0.43963,2.289165 -1.53987,2.479113 -25.83553,2.479113 -14.47139,0 -26.31163,-0.559429 -26.31163,-1.243176 z"
   id="path534" /><path
   style="font-variation-settings:normal;opacity:1;vector-effect:none;fill:#000000;fill-opacity:1;stroke:#000000;stroke-width:1px;stroke-linecap:butt;stroke-linejoin:miter;stroke-miterlimit:4;stroke-dasharray:none;stroke-dashoffset:0;stroke-opacity:1;stop-color:#000000;stop-opacity:1"
   d="m 424.74041,104.106 c 8.8e-4,-3.58112 0.0807,-4.98041 0.17728,-3.10952 0.0966,1.87089 0.0959,4.8009 -0.002,6.51113 -0.0975,1.71024 -0.17656,0.17952 -0.17569,-3.40161 z"
   id="path536" /><path
   style="font-variation-settings:normal;opacity:1;vector-effect:none;fill:#000000;fill-opacity:1;stroke:#000000;stroke-width:1px;stroke-linecap:butt;stroke-linejoin:miter;stroke-miterlimit:4;stroke-dasharray:none;stroke-dashoffset:0;stroke-opacity:1;stop-color:#000000;stop-opacity:1"
   d="m 420.0381,104.07577 v -6.7918 l 1.87821,0.15545 1.87822,0.15545 0.14568,5.50942 c 0.1916,7.24582 0.0477,7.76327 -2.15865,7.76327 h -1.74346 z"
   id="path538" /><path
   style="font-variation-settings:normal;opacity:1;vector-effect:none;fill:#333333;fill-opacity:1;stroke:#000000;stroke-width:1px;stroke-linecap:butt;stroke-linejoin:miter;stroke-miterlimit:4;stroke-dasharray:none;stroke-dashoffset:0;stroke-opacity:1;stop-color:#000000;stop-opacity:1"
   d="m 338.48617,508.2901 c -2.19623,-1.2454 -2.45664,-1.99681 -2.46826,-7.12218 -0.0156,-6.85757 0.89462,-7.61441 9.15712,-7.61441 7.80021,0 8.54577,0.67937 8.52913,7.77202 -0.0118,5.04452 -0.28443,5.77844 -2.59878,6.99661 -1.98044,1.04243 -10.76374,1.02013 -12.61921,-0.032 z"
   id="path540" /><path
   style="font-variation-settings:normal;opacity:1;vector-effect:none;fill:#333333;fill-opacity:1;stroke:#000000;stroke-width:1px;stroke-linecap:butt;stroke-linejoin:miter;stroke-miterlimit:4;stroke-dasharray:none;stroke-dashoffset:0;stroke-opacity:1;stop-color:#000000;stop-opacity:1"
   d="m 337.4237,468.76238 c -1.1468,-1.1468 -1.41664,-2.36106 -1.41664,-6.37486 0,-6.99816 0.90152,-7.79149 8.85397,-7.79149 7.95246,0 8.85398,0.79333 8.85398,7.79149 0,6.99816 -0.90152,7.7915 -8.85398,7.7915 -5.07627,0 -6.24292,-0.22222 -7.43733,-1.41664 z"
   id="path542" /><path
   style="font-variation-settings:normal;opacity:1;vector-effect:none;fill:#333333;fill-opacity:1;stroke:#000000;stroke-width:1px;stroke-linecap:butt;stroke-linejoin:miter;stroke-miterlimit:4;stroke-dasharray:none;stroke-dashoffset:0;stroke-opacity:1;stop-color:#000000;stop-opacity:1"
   d="m 337.1097,428.93898 c -1.1539,-1.64742 -1.56235,-10.10035 -0.56055,-11.60068 1.12091,-1.67873 3.8388,-2.40807 8.97364,-2.40807 7.17121,0 8.19222,0.95142 8.19222,7.63389 0,7.35206 -0.665,7.9491 -8.85398,7.9491 -6.0676,0 -6.74506,-0.13759 -7.75133,-1.57424 z"
   id="path544" /><path
   style="font-variation-settings:normal;opacity:1;vector-effect:none;fill:#333333;fill-opacity:1;stroke:#000000;stroke-width:1px;stroke-linecap:butt;stroke-linejoin:miter;stroke-miterlimit:4;stroke-dasharray:none;stroke-dashoffset:0;stroke-opacity:1;stop-color:#000000;stop-opacity:1"
   d="m 337.17932,390.26041 c -1.7438,-1.92688 -1.65581,-10.79723 0.12307,-12.40709 1.96955,-1.78242 13.60092,-1.68849 15.24036,0.12307 1.7438,1.92688 1.65581,10.79722 -0.12307,12.40709 -1.96955,1.78241 -13.60092,1.68849 -15.24036,-0.12307 z"
   id="path546" /><path
   style="font-variation-settings:normal;opacity:1;vector-effect:none;fill:#1a1a1a;fill-opacity:1;stroke:#000000;stroke-width:1px;stroke-linecap:butt;stroke-linejoin:miter;stroke-miterlimit:4;stroke-dasharray:none;stroke-dashoffset:0;stroke-opacity:1;stop-color:#000000;stop-opacity:1"
   d="m 334.02423,770.95978 -10.6817,-16.86137 10.97722,-0.19529 c 6.03746,-0.10741 15.72027,-0.10741 21.51734,0 l 10.54013,0.19529 -10.29748,16.29131 c -5.66361,8.96022 -10.53965,16.54784 -10.83564,16.86137 -0.296,0.31353 -5.34494,-7.01756 -11.21987,-16.29131 z"
   id="path548" /><path
   style="font-variation-settings:normal;opacity:1;vector-effect:none;fill:#1a1a1a;fill-opacity:1;stroke:#000000;stroke-width:1px;stroke-linecap:butt;stroke-linejoin:miter;stroke-miterlimit:4;stroke-dasharray:none;stroke-dashoffset:0;stroke-opacity:1;stop-color:#000000;stop-opacity:1"
   d="m 334.02948,815.13005 -10.82491,-17.11593 11.04619,-0.19529 c 6.07541,-0.10741 15.82454,-0.10741 21.66473,0 l 10.61853,0.19529 -10.74364,16.99963 c -5.90901,9.34979 -10.78693,17.05196 -10.83982,17.11593 -0.0529,0.064 -4.96738,-7.58586 -10.92108,-16.99963 z"
   id="path550" /><path
   style="font-variation-settings:normal;opacity:1;vector-effect:none;fill:#1a1a1a;fill-opacity:1;stroke:#000000;stroke-width:1px;stroke-linecap:butt;stroke-linejoin:miter;stroke-miterlimit:4;stroke-dasharray:none;stroke-dashoffset:0;stroke-opacity:1;stop-color:#000000;stop-opacity:1"
   d="m 334.13106,859.45761 -10.61146,-16.81947 10.88868,-0.19529 c 5.98878,-0.10741 15.60026,-0.10741 21.35885,0 l 10.47016,0.19529 -10.39596,16.46804 c -5.71779,9.05743 -10.55411,16.62619 -10.74739,16.81947 -0.19329,0.19328 -5.12658,-7.21734 -10.96288,-16.46804 z"
   id="path552" /><path
   style="font-variation-settings:normal;opacity:1;vector-effect:none;fill:#1a1a1a;fill-opacity:1;stroke:#000000;stroke-width:1px;stroke-linecap:butt;stroke-linejoin:miter;stroke-miterlimit:4;stroke-dasharray:none;stroke-dashoffset:0;stroke-opacity:1;stop-color:#000000;stop-opacity:1"
   d="m 420.0231,716.55938 c 0,-20.55696 0.0782,-24.48016 0.48787,-24.48016 1.26302,0 1.28964,0.54348 1.19693,24.43316 l -0.0911,23.46906 -0.79685,0.52905 -0.79686,0.52905 z"
   id="path572" /></svg>
